<?xml version="1.0" encoding="UTF-8" standalone="no"?>
<!DOCTYPE svg PUBLIC "-//W3C//DTD SVG 1.1//EN" "http://www.w3.org/Graphics/SVG/1.1/DTD/svg11.dtd">
<!-- Created with Vectornator (http://vectornator.io/) -->
<svg height="100%" stroke-miterlimit="10" style="fill-rule:nonzero;clip-rule:evenodd;stroke-linecap:round;stroke-linejoin:round;" version="1.1" viewBox="0 0 1024 1024" width="100%" xml:space="preserve" xmlns="http://www.w3.org/2000/svg" xmlns:xlink="http://www.w3.org/1999/xlink">
<defs/>
<g id="Без-названия">
<g opacity="1">
<path d="M622.44 312.06C613.1 305.34 617.85 276.86 633.43 279.59C636.36 280.1 638.74 282.49 639.94 285.3C643.28 293.11 642.7 304.05 636.39 310.42C632.54 314.31 627.01 315.36 622.44 312.06Z" fill="#122528" fill-rule="nonzero" opacity="1" stroke="none"/>
<path d="M713.59 312.83C709.58 314.95 702.67 314 701.36 308.67C699.393 300.697 700.09 293.05 703.45 285.73C705.56 281.14 710.55 278.54 715.37 280.5C719.95 282.36 721.38 287.87 721.48 292.5C721.65 300.42 721.26 308.77 713.59 312.83Z" fill="#122528" fill-rule="nonzero" opacity="1" stroke="none"/>
<path d="M227.6 430.02C235.1 437.05 233.45 448.42 225.81 454.19C202.76 463.97 198.65 430.64 217.44 428.13C221.107 427.643 224.493 428.273 227.6 430.02Z" fill="#122528" fill-rule="nonzero" opacity="1" stroke="none"/>
<path d="M133.509 428.43C139.909 429.318 144.257 436.1 143.219 443.578C142.181 451.056 136.152 456.398 129.751 455.51C123.351 454.622 119.003 447.84 120.041 440.362C121.079 432.884 127.108 427.542 133.509 428.43Z" fill="#122528" fill-rule="nonzero" opacity="1" stroke="none"/>
<path d="M459.569 452.106C464.327 454.976 465.744 461.347 462.734 466.336C459.724 471.325 453.428 473.043 448.671 470.174C443.913 467.304 442.496 460.933 445.506 455.944C448.516 450.955 454.812 449.237 459.569 452.106Z" fill="#122528" fill-rule="nonzero" opacity="1" stroke="none"/>
<path d="M352.08 461.83C352.08 456.147 356.687 451.54 362.37 451.54C368.053 451.54 372.66 456.147 372.66 461.83C372.66 467.513 368.053 472.12 362.37 472.12C356.687 472.12 352.08 467.513 352.08 461.83Z" fill="#111e21" fill-rule="nonzero" opacity="1" stroke="none"/>
<path d="M804.94 573.81C798.34 570.24 800.74 553.77 807.19 550.69C812.47 548.16 819.28 550.6 819.49 557.32C819.68 563.99 814.32 578.89 804.94 573.81Z" fill="#122528" fill-rule="nonzero" opacity="1" stroke="none"/>
<path d="M901.78 574.04C892.99 575 895.45 557.35 898.5 553.35C902.36 548.29 912.14 549.43 912.14 557.05C912.13 563.16 909.07 573.25 901.78 574.04Z" fill="#22363b" fill-rule="nonzero" opacity="1" stroke="none"/>
</g>
</g>
</svg>
