<?xml version="1.0" standalone="no"?>
<!DOCTYPE svg PUBLIC "-//W3C//DTD SVG 20010904//EN"
 "http://www.w3.org/TR/2001/REC-SVG-20010904/DTD/svg10.dtd">
<svg version="1.0" xmlns="http://www.w3.org/2000/svg"
 width="1024.000000pt" height="1024.000000pt" viewBox="0 0 1024.000000 1024.000000"
 preserveAspectRatio="xMidYMid meet">

<g transform="translate(0.000000,1024.000000) scale(0.100000,-0.100000)"
fill="#000000" stroke="none">
<path d="M5666 8528 c-9 -12 -16 -29 -16 -36 0 -10 -6 -12 -17 -7 -10 4 -57 9
-104 12 -142 9 -268 -42 -353 -144 -66 -78 -110 -233 -92 -325 9 -50 71 -117
132 -144 81 -36 207 -51 306 -36 91 13 189 54 228 95 14 15 30 27 36 27 14 0
91 -145 110 -205 l13 -40 1 35 c1 64 21 125 53 165 31 39 32 42 32 145 0 94
-3 111 -27 164 -18 37 -51 81 -92 121 -46 45 -61 66 -55 76 17 27 9 52 -28 85
-46 42 -103 47 -127 12z"/>
<path d="M6122 8303 c1 -5 -12 -30 -30 -57 -17 -27 -30 -51 -28 -54 3 -2 22 8
43 22 22 16 51 26 72 26 l35 0 -42 -43 -42 -42 35 -28 c42 -34 55 -34 86 -1
13 14 41 35 62 46 22 11 37 21 35 23 -12 11 -228 114 -226 108z"/>
<path d="M2316 8268 c-85 -23 -156 -131 -140 -213 13 -73 91 -144 157 -145 15
0 27 -3 27 -6 0 -3 -18 -26 -39 -51 -50 -56 -80 -142 -88 -255 -6 -83 -5 -88
14 -88 43 0 89 -84 77 -139 -13 -59 -27 -80 -59 -91 -17 -6 -39 -8 -47 -5 -13
5 -14 -2 -6 -52 10 -68 74 -207 90 -197 6 4 8 3 5 -3 -9 -14 32 -65 45 -57 7
4 8 2 4 -4 -8 -13 66 -70 129 -101 49 -24 255 -91 280 -91 16 0 17 -7 12 -70
-4 -53 -3 -69 6 -64 8 5 9 4 2 -3 -9 -10 -264 -178 -457 -302 -93 -59 -97 -66
-52 -81 68 -23 78 -18 432 209 45 29 86 61 91 70 5 9 19 67 31 130 19 95 20
120 11 152 -12 40 -26 45 -49 19 -11 -13 -11 -12 -3 7 6 12 8 29 4 39 -5 13
-3 15 7 9 9 -5 11 -4 6 3 -4 7 -19 12 -34 12 -17 0 -22 -3 -15 -8 13 -8 -88
-6 -164 4 -23 3 -62 16 -87 29 -24 13 -48 20 -52 17 -4 -4 -4 -1 0 6 6 10 -6
17 -18 10 -7 -5 -56 45 -51 52 7 11 -31 61 -41 53 -5 -5 -6 -4 -2 0 3 5 -5 32
-18 61 -13 29 -27 74 -30 100 -6 39 -4 50 13 66 19 17 42 80 73 197 l11 42 34
-38 c81 -89 220 -135 395 -129 109 3 120 5 185 38 87 43 115 89 115 185 0 171
-93 314 -250 389 -63 30 -68 31 -202 30 -76 -1 -138 1 -138 5 0 3 7 15 15 25
21 28 19 100 -5 146 -36 71 -139 111 -224 88z m114 -1344 c0 -8 -19 -13 -24
-6 -3 5 1 9 9 9 8 0 15 -2 15 -3z"/>
<path d="M4850 7989 c19 -11 49 -37 67 -57 27 -31 34 -34 47 -23 23 20 20 33
-17 69 -28 27 -40 32 -82 32 l-50 0 35 -21z"/>
<path d="M6633 7984 c16 -20 15 -21 -68 -58 -47 -21 -85 -41 -85 -44 0 -3 14
-27 31 -53 l30 -48 53 19 c28 9 71 21 94 25 38 6 44 4 72 -27 46 -49 92 -149
88 -189 -4 -41 -45 -67 -147 -94 -92 -24 -95 -28 -81 -106 14 -77 23 -89 64
-89 56 0 150 -29 170 -53 26 -31 17 -130 -18 -216 -49 -120 -78 -131 -213 -85
-66 23 -77 24 -90 11 -13 -12 -8 -19 36 -51 28 -20 51 -43 51 -52 0 -8 5 -12
10 -9 14 9 12 -9 -2 -24 -11 -10 -9 -11 5 -5 17 6 17 5 1 -30 -10 -20 -21 -36
-26 -36 -11 0 -30 -49 -23 -60 3 -5 12 -7 20 -4 8 4 12 11 8 18 -4 6 0 5 9 -2
23 -19 19 -55 -5 -48 -15 4 -16 2 -6 -10 9 -11 8 -14 -5 -14 -10 0 -14 -4 -11
-10 3 -5 2 -10 -3 -10 -5 0 -14 -11 -20 -25 -11 -24 -9 -26 41 -51 28 -15 78
-44 111 -66 l58 -40 29 34 c16 18 50 63 75 101 25 37 54 72 64 77 26 14 66
145 80 257 25 201 -39 550 -137 748 -46 94 -113 182 -204 270 -40 39 -66 61
-56 49z m103 -106 l29 -33 -32 29 c-31 28 -38 36 -30 36 2 0 16 -15 33 -32z
m-56 -1152 c0 -2 -8 -10 -17 -17 -16 -13 -17 -12 -4 4 13 16 21 21 21 13z"/>
<path d="M8125 7968 c-65 -38 -89 -109 -60 -180 6 -16 -2 -17 -107 -11 -78 4
-132 2 -169 -7 -150 -35 -260 -135 -309 -281 -30 -88 -24 -203 16 -309 l29
-75 3 56 3 55 51 -25 c69 -34 187 -40 319 -16 53 10 104 15 113 12 14 -5 16
-26 15 -144 0 -196 -7 -225 -59 -278 -52 -53 -96 -70 -158 -61 -42 6 -44 5
-27 -8 11 -8 24 -12 30 -9 5 4 6 2 2 -2 -10 -12 -38 -15 -31 -4 3 5 1 9 -3 9
-5 0 -14 -9 -21 -20 -10 -16 -10 -20 0 -20 9 0 8 -3 -2 -10 -12 -8 -12 -10 -1
-10 8 0 20 8 28 18 8 9 4 -3 -8 -28 -49 -100 -59 -148 -59 -276 0 -111 -2
-122 -17 -118 -23 5 -39 -5 -47 -32 -5 -18 -2 -22 25 -28 17 -3 68 -6 113 -7
77 0 79 -1 46 -13 -19 -6 -34 -17 -33 -24 2 -6 -3 -9 -10 -6 -16 6 -79 -40
-69 -51 4 -5 1 -5 -6 -1 -8 5 -19 1 -28 -10 -11 -15 -13 -15 -8 -3 14 43 -116
21 -168 -29 -23 -21 -25 -28 -16 -41 7 -9 9 -13 4 -9 -5 4 -15 1 -22 -7 -15
-15 -43 -10 -56 9 -6 8 -8 8 -8 0 0 -6 -7 -11 -15 -11 -8 0 -15 5 -15 10 0 6
-3 7 -6 4 -4 -3 -15 -2 -26 4 -16 9 -18 7 -14 -15 3 -17 1 -23 -8 -20 -17 6
-127 -44 -233 -107 -121 -71 -130 -74 -137 -43 -10 37 3 90 27 111 18 16 20
16 14 1 -3 -9 -3 -19 0 -22 10 -9 33 15 26 27 -4 6 0 8 9 4 10 -3 15 0 14 11
0 9 6 17 14 17 28 1 41 15 31 33 -7 13 -3 24 17 46 15 17 -15 -8 -65 -54 -58
-52 -93 -91 -94 -104 0 -21 0 -21 -8 -1 -5 11 -34 117 -65 235 -32 118 -64
238 -73 265 -14 47 -47 95 -65 95 -7 0 -340 -207 -823 -511 -82 -52 -185 -116
-227 -142 -90 -56 -128 -97 -128 -139 0 -16 17 -93 39 -171 21 -78 65 -245 97
-372 53 -208 61 -233 92 -267 19 -21 30 -38 24 -38 -6 0 -10 -8 -9 -19 1 -12
7 -17 19 -13 14 3 17 0 12 -12 -3 -9 -11 -13 -18 -10 -6 3 0 -4 14 -15 14 -11
29 -19 34 -18 6 2 17 -3 25 -11 39 -34 372 -223 382 -216 7 4 9 3 6 -3 -11
-17 206 -140 266 -150 41 -6 142 35 178 73 29 31 15 30 -57 -3 -74 -34 -124
-34 -192 1 -29 15 -58 24 -64 20 -6 -4 -8 -3 -5 4 9 13 -79 65 -95 56 -7 -4
-8 -3 -4 4 4 6 -6 18 -24 27 -31 16 -56 12 -44 -7 4 -7 2 -8 -5 -4 -8 6 -9 12
-2 20 11 13 5 26 -11 26 -5 0 -7 -4 -3 -9 3 -5 1 -12 -4 -16 -6 -3 -8 3 -6 15
6 29 -69 67 -93 48 -15 -11 -16 -11 -4 4 9 11 10 18 2 23 -14 9 -32 -4 -24
-17 4 -7 2 -8 -5 -4 -9 6 -9 11 -1 21 8 10 0 19 -36 39 -25 14 -51 23 -57 19
-5 -3 -7 -2 -4 3 3 6 -20 25 -51 43 -84 50 -125 91 -90 91 6 0 56 25 109 56
87 50 100 54 121 43 20 -11 22 -11 10 3 -11 14 -8 19 16 37 16 11 33 17 37 13
5 -4 5 -2 2 4 -4 7 66 56 186 130 105 64 242 150 303 190 62 39 139 84 173 99
55 25 78 45 51 45 -5 0 -10 4 -10 8 0 10 80 48 92 44 5 -1 8 2 8 8 0 5 13 16
29 24 28 15 28 16 23 87 -5 68 -4 72 14 64 44 -18 60 -12 119 44 l60 56 -57
-60 c-32 -33 -58 -63 -58 -67 0 -3 35 -26 78 -50 93 -52 97 -54 88 -40 -4 7 7
17 27 26 19 8 38 20 43 27 6 11 4 12 -7 4 -8 -5 -3 0 11 13 14 12 30 20 37 17
7 -2 15 1 19 7 5 7 2 9 -7 4 -8 -4 -3 1 11 11 27 20 39 32 88 86 19 22 43 38
57 39 14 0 31 1 38 2 8 1 11 -9 9 -28 -6 -51 8 -157 20 -150 7 4 8 2 4 -5 -11
-18 2 -63 16 -55 7 4 8 3 4 -5 -9 -15 3 -53 15 -46 5 3 6 -2 2 -11 -4 -10 0
-20 10 -26 10 -5 17 -13 17 -19 0 -5 10 -20 21 -32 12 -12 19 -15 14 -7 -4 8
6 2 21 -15 16 -16 46 -65 68 -107 97 -194 218 -241 393 -153 37 19 70 32 73
30 3 -2 7 10 8 26 2 21 21 48 67 95 36 36 83 89 105 118 43 57 84 141 75 155
-3 5 -1 11 5 13 6 2 13 33 16 69 8 77 -3 182 -17 173 -6 -3 -7 4 -4 19 4 15 1
30 -8 38 -7 8 -12 19 -10 26 2 6 -1 15 -8 19 -8 5 -9 3 -4 -6 6 -9 4 -11 -4
-6 -7 5 -10 15 -7 23 3 8 -6 25 -22 40 -15 15 -20 23 -12 18 8 -4 -3 11 -25
34 -44 46 -62 56 -24 13 13 -15 9 -13 -8 5 -18 18 -33 30 -33 27 0 -4 -9 4
-20 17 -17 21 -21 22 -30 9 -6 -10 -10 -11 -10 -2 0 6 -1 15 -1 20 -3 12 -63
33 -81 28 -10 -2 -16 0 -13 4 3 5 -12 7 -32 4 -28 -3 -33 -2 -18 4 l20 9 -20
5 c-11 3 5 6 36 7 53 1 60 -2 120 -50 l63 -50 66 6 c102 10 167 23 212 43 l42
18 -75 54 c-40 29 -94 61 -118 70 l-44 17 61 29 c34 16 61 34 61 39 1 6 -16
31 -36 56 -21 26 -67 83 -101 127 -35 45 -95 111 -134 148 l-70 66 27 81 c25
76 50 252 70 492 11 128 -19 249 -79 313 -21 23 -21 24 -2 38 11 8 31 14 46
14 82 0 126 111 80 204 -42 86 -154 121 -235 74z m-107 -1236 c-11 -60 -12
-62 -43 -62 -17 0 -34 3 -38 6 -3 4 14 26 38 50 25 24 45 51 45 60 0 10 2 15
5 13 2 -3 -1 -33 -7 -67z m-1229 -444 c11 -35 45 -155 75 -268 31 -113 65
-236 76 -275 11 -38 20 -78 20 -87 0 -19 -99 -87 -410 -285 -417 -266 -725
-451 -732 -440 -13 24 -179 692 -176 711 3 24 44 52 297 206 102 62 311 192
465 289 297 188 334 210 353 211 6 0 20 -28 32 -62z m1061 -152 c0 -2 -7 -7
-16 -10 -8 -3 -12 -2 -9 4 6 10 25 14 25 6z m-75 -42 c-11 -8 -19 -20 -17 -25
1 -6 -3 -7 -9 -3 -9 5 -5 13 10 26 13 10 26 18 30 18 3 0 -3 -8 -14 -16z m-89
-76 c4 -7 3 -8 -4 -4 -7 4 -12 2 -12 -5 0 -7 -3 -10 -6 -6 -6 5 3 27 11 27 2
0 7 -5 11 -12z m732 -44 c2 -1 -8 -1 -21 0 -15 0 -23 6 -20 14 4 10 9 10 22 0
9 -7 17 -13 19 -14z m-1324 -16 c-3 -4 -10 -5 -17 -2 -7 2 -22 -4 -32 -16 -10
-11 -23 -20 -28 -20 -6 0 7 15 29 34 25 22 41 30 46 23 4 -6 5 -14 2 -19z
m552 -2 c0 -13 -3 -23 -5 -20 -2 2 -10 -4 -18 -14 -8 -10 -7 -3 4 21 9 20 18
37 19 37 1 0 1 -11 0 -24z m-306 -59 c0 -2 -19 -18 -42 -36 l-43 -32 39 35
c37 34 46 40 46 33z m-100 -81 c0 -2 -8 -10 -17 -17 -16 -13 -17 -12 -4 4 13
16 21 21 21 13z m1136 -424 c-17 -16 -18 -16 -5 5 7 12 15 20 18 17 3 -2 -3
-12 -13 -22z m-2469 -642 c19 0 36 -27 22 -36 -8 -4 -9 -3 -5 5 8 12 -31 31
-50 24 -7 -2 -15 0 -19 6 -4 7 1 8 12 4 16 -6 17 -5 3 13 -14 18 -14 18 6 2
11 -10 25 -18 31 -18z m69 -56 c1 -9 0 -13 -4 -10 -3 4 -7 14 -8 22 -1 9 0 13
4 10 3 -4 7 -14 8 -22z m65 -23 c3 -1 6 -8 6 -17 0 -15 -1 -15 -12 0 -7 8 -14
13 -17 10 -4 -3 -9 -1 -12 4 -3 6 2 9 11 7 10 -2 21 -4 24 -4z m134 -80 c3 -5
2 -12 -3 -15 -5 -3 -9 1 -9 9 0 17 3 19 12 6z"/>
<path d="M4462 7678 c-75 -115 -132 -290 -151 -463 -6 -50 -7 -101 -3 -115 7
-25 8 -26 47 -14 22 7 34 13 26 13 -11 1 -12 14 -7 66 12 116 27 134 138 161
61 15 66 19 72 47 3 17 4 32 2 35 -3 2 -36 -1 -75 -8 -81 -14 -109 -8 -117 25
-11 45 42 190 85 229 23 21 77 17 154 -10 38 -14 43 -13 54 3 7 9 13 20 13 23
0 6 -176 70 -192 70 -3 0 -24 -28 -46 -62z"/>
<path d="M6073 7715 c-9 -25 -61 -47 -94 -40 -24 5 -29 3 -29 -12 0 -11 6 -25
13 -33 10 -12 9 -12 -5 -2 -14 11 -19 4 -43 -67 -31 -95 -68 -148 -131 -192
-231 -159 -534 -28 -644 279 -13 34 -23 62 -24 62 -6 0 -122 -148 -170 -217
l-57 -82 43 -76 c36 -64 43 -73 50 -55 7 19 9 19 55 -12 26 -18 50 -36 51 -41
2 -4 9 -4 15 0 7 4 8 0 3 -12 -4 -11 0 -26 11 -39 16 -19 16 -19 1 -7 -16 12
-19 10 -28 -14 -6 -15 -13 -33 -16 -39 -3 -6 3 -1 12 12 12 16 27 22 55 22 25
0 41 6 49 18 9 14 10 13 6 -8 -3 -14 -10 -58 -17 -98 -9 -62 -14 -72 -28 -67
-9 4 -24 8 -34 10 -23 5 -78 51 -70 59 4 3 4 6 1 6 -3 0 -17 -18 -31 -39 -32
-48 -44 -42 148 -71 77 -11 160 -25 185 -31 49 -11 103 -48 121 -81 13 -24 59
-192 59 -216 0 -31 16 -41 85 -56 122 -26 287 -47 315 -41 17 4 32 18 42 38
14 30 24 35 92 52 42 11 81 22 86 25 5 3 1 46 -10 103 -19 98 -28 202 -18 212
8 8 38 -6 38 -17 0 -5 -4 -7 -8 -4 -5 3 -9 -1 -9 -8 0 -11 4 -12 18 -3 10 6
15 15 13 19 -3 4 -1 8 5 8 5 0 11 -6 14 -12 3 -10 8 -10 18 1 9 9 9 11 2 7 -7
-4 -13 -2 -13 3 0 15 6 14 36 -6 19 -12 22 -18 12 -24 -10 -7 -9 -9 5 -9 9 0
17 -5 17 -11 0 -19 69 73 82 109 7 17 16 32 20 32 4 0 8 5 8 11 0 16 -75 200
-110 268 -43 87 -144 215 -194 248 -80 51 -82 53 -66 47 20 -6 54 31 68 74 11
32 7 46 -5 17z m182 -745 c-3 -5 -11 -10 -16 -10 -6 0 -7 5 -4 10 3 6 11 10
16 10 6 0 7 -4 4 -10z"/>
<path d="M6102 7607 l-23 -13 23 -22 c17 -15 28 -18 38 -12 8 5 11 10 5 11 -5
0 -1 4 10 9 19 8 19 9 -2 9 -12 1 -25 6 -29 13 -4 6 -3 8 4 4 6 -3 13 -2 17 4
9 14 -15 12 -43 -3z"/>
<path d="M3199 7143 l-24 -28 28 24 c25 23 32 31 24 31 -2 0 -14 -12 -28 -27z"/>
<path d="M2405 6990 c10 -11 20 -20 23 -20 3 0 -3 9 -13 20 -10 11 -20 20 -23
20 -3 0 3 -9 13 -20z"/>
<path d="M1931 6808 c-35 -110 -45 -179 -45 -318 0 -118 5 -155 30 -241 3 -13
-5 -18 -36 -22 -95 -12 -225 -107 -274 -199 -22 -41 -135 -108 -182 -108 -20
0 -25 -3 -16 -9 11 -6 9 -9 -6 -13 -14 -4 -19 -1 -17 11 1 9 -3 23 -10 31 -7
8 -19 27 -26 42 -13 24 -15 25 -29 10 -13 -14 -12 -15 4 -9 14 6 17 4 12 -8
-4 -10 -2 -14 5 -9 7 4 10 1 7 -7 -3 -8 -12 -13 -19 -11 -8 2 -6 -5 6 -19 18
-20 18 -22 2 -16 -11 4 -16 3 -12 -3 4 -6 14 -9 23 -8 11 2 18 -5 20 -19 2
-13 9 -23 17 -23 8 0 11 -7 8 -20 -7 -25 4 -26 25 -2 10 9 14 13 10 8 -5 -6 1
-20 13 -32 l20 -21 -33 -7 -33 -8 25 -10 25 -10 -22 -9 c-20 -7 -23 -16 -23
-64 0 -45 3 -55 18 -56 10 0 12 -3 5 -6 -7 -2 -13 -11 -13 -19 0 -8 -4 -14
-10 -14 -5 0 -10 -9 -10 -20 0 -21 -26 -28 -32 -8 -3 7 -7 5 -11 -6 -4 -10 -3
-15 3 -11 6 3 10 1 10 -5 0 -8 6 -8 21 0 21 12 41 5 24 -8 -6 -4 -16 -15 -24
-25 -12 -15 -12 -17 2 -11 12 4 18 -2 23 -20 3 -14 10 -23 15 -20 5 3 9 -2 9
-11 0 -10 5 -13 12 -9 7 5 9 2 5 -9 -4 -12 -2 -14 11 -10 14 6 15 4 4 -9 -10
-12 -9 -18 3 -28 10 -9 15 -9 15 -1 0 6 -5 11 -10 11 -6 0 -5 6 2 14 7 8 17
12 22 9 4 -3 4 -8 0 -12 -5 -3 -9 -16 -10 -28 0 -13 2 -21 4 -18 3 3 11 0 19
-6 7 -6 13 -8 14 -3 0 5 4 0 9 -11 7 -16 8 399 1 512 -2 26 -21 42 -21 17 0
-10 -2 -15 -5 -12 -4 3 -3 18 1 33 6 23 8 25 16 11 5 -9 14 -16 21 -16 8 0 8
3 -1 9 -11 7 -11 9 1 14 8 3 18 22 21 42 4 20 9 35 11 33 3 -2 -2 -36 -10 -74
-19 -92 -24 -746 -6 -752 13 -4 55 -82 45 -82 -4 0 -1 -7 6 -15 7 -9 19 -14
26 -11 7 3 16 0 20 -6 5 -7 2 -8 -7 -4 -8 4 -5 1 5 -8 10 -8 22 -13 26 -11 12
8 70 -16 64 -26 -8 -13 3 -11 40 6 25 12 38 13 57 5 24 -10 24 -10 -3 -7 -16
3 -28 1 -28 -3 0 -11 103 -22 135 -14 15 4 22 10 16 13 -6 4 5 13 24 20 20 7
33 16 31 20 -3 3 4 7 15 7 26 0 24 -3 -18 -25 -21 -11 -34 -20 -30 -21 14 0
63 28 77 45 8 10 24 21 36 25 22 9 41 70 28 91 -11 18 -17 253 -9 384 l7 125
87 0 c132 0 233 31 265 83 10 16 8 24 -18 88 -6 12 10 28 65 64 40 27 100 61
133 76 l61 28 -38 1 c-41 0 -91 -26 -80 -43 4 -6 0 -8 -11 -4 -9 4 -15 3 -11
-3 3 -5 -3 -9 -12 -9 -10 0 -31 -3 -48 -6 -23 -5 -27 -4 -15 5 12 8 9 9 -11 5
-23 -6 -35 2 -80 47 -30 29 -41 38 -24 18 29 -34 28 -33 -13 5 l-43 40 43 8
c150 27 172 24 310 -44 117 -58 153 -65 216 -41 110 42 542 330 542 361 0 10
-18 31 -41 47 l-41 28 31 26 c17 14 31 29 31 33 0 5 -13 -2 -29 -15 -16 -12
-95 -65 -175 -117 -80 -52 -143 -98 -140 -102 3 -5 -1 -10 -8 -11 -7 0 -17 -2
-23 -2 -19 -3 -76 -29 -71 -33 2 -3 14 0 25 7 12 6 21 7 21 3 -1 -4 -17 -15
-36 -25 -28 -13 -34 -13 -30 -2 7 18 7 18 -56 -5 -29 -11 -77 -25 -106 -31
-30 -7 -56 -18 -58 -25 -3 -7 1 -28 9 -47 11 -27 24 -37 58 -48 24 -7 37 -15
28 -17 -24 -6 -254 92 -251 107 2 9 -6 11 -30 6 -18 -4 -83 -10 -145 -13
l-111 -6 -51 37 c-59 44 -147 81 -214 91 l-49 8 7 61 c4 33 11 78 17 100 15
59 5 82 -39 93 -37 9 -38 10 -41 61 -2 29 4 94 13 145 18 98 27 177 21 177 -3
0 -13 -28 -25 -62z m-14 -120 c-3 -8 -6 -5 -6 6 -1 11 2 17 5 13 3 -3 4 -12 1
-19z m723 -713 c-14 -8 -29 -14 -35 -14 -5 0 1 6 15 14 14 8 30 14 35 14 6 0
-1 -6 -15 -14z m-1087 -20 c-3 -9 -8 -14 -10 -11 -3 3 -2 9 2 15 9 16 15 13 8
-4z m-179 -36 c-3 -5 -11 -3 -18 4 -18 16 -8 31 10 16 7 -6 11 -15 8 -20z
m146 -102 c0 -7 -4 -6 -10 3 -8 13 -10 12 -10 -4 0 -11 -3 -17 -6 -13 -4 3 -4
13 0 22 6 18 26 11 26 -8z m-43 -19 c-3 -7 -5 -2 -5 12 0 14 2 19 5 13 2 -7 2
-19 0 -25z m53 -20 c0 -19 -2 -20 -10 -8 -13 19 -13 30 0 30 6 0 10 -10 10
-22z m-30 -20 c-1 -26 -3 -30 -10 -16 -6 9 -7 23 -4 32 9 25 14 19 14 -16z
m-3 -60 c-3 -8 -6 -5 -6 6 -1 11 2 17 5 13 3 -3 4 -12 1 -19z m-47 -122 c0
-22 -11 -46 -22 -46 -5 0 -7 4 -3 9 3 5 1 12 -5 16 -18 11 -11 35 10 35 11 0
20 -6 20 -14z m-20 -91 c0 -5 -5 -3 -10 5 -5 8 -10 20 -10 25 0 6 5 3 10 -5 5
-8 10 -19 10 -25z m70 1 c0 -3 -4 -8 -10 -11 -5 -3 -10 -1 -10 4 0 6 5 11 10
11 6 0 10 -2 10 -4z m-15 -54 c-5 -5 -45 36 -45 46 0 3 11 -5 25 -18 14 -13
23 -26 20 -28z m35 8 c0 -5 -5 -10 -11 -10 -5 0 -7 5 -4 10 3 6 8 10 11 10 2
0 4 -4 4 -10z m5 -49 c-3 -6 -11 -11 -16 -11 -5 0 -4 6 3 14 14 16 24 13 13
-3z m312 -317 c-3 -3 -12 -4 -19 -1 -8 3 -5 6 6 6 11 1 17 -2 13 -5z m26 -24
c5 0 5 5 2 10 -3 6 4 10 16 10 22 0 22 0 3 -15 -10 -8 -29 -15 -42 -15 -13 0
-21 -4 -18 -9 3 -5 16 -7 29 -4 18 4 19 3 7 -6 -8 -6 -23 -8 -32 -5 -10 3 -23
2 -30 -3 -20 -12 -40 -13 -57 -3 -18 10 -13 12 38 14 13 1 26 7 29 15 3 10 0
12 -12 8 -9 -4 -16 -3 -16 2 0 16 12 19 43 10 18 -5 36 -9 40 -9z m-127 -4
c17 6 17 5 -1 -9 -11 -8 -20 -15 -20 -14 -1 1 -7 11 -15 22 -14 18 -13 19 1 7
9 -7 25 -9 35 -6z m224 -16 c-9 -4 -31 -5 -50 0 -34 8 -33 8 15 9 34 0 45 -3
35 -9z m-35 -20 c4 -6 -7 -10 -27 -9 -31 1 -32 1 -8 9 14 4 26 8 27 9 1 1 5
-3 8 -9z m3 -27 c-10 -2 -28 -2 -40 0 -13 2 -5 4 17 4 22 1 32 -1 23 -4z"/>
<path d="M7497 6818 c-13 -18 -39 -60 -56 -92 -25 -46 -29 -61 -19 -67 13 -8
3 -13 -17 -9 -5 1 -4 -5 4 -12 11 -10 14 -10 18 0 3 7 11 19 20 27 8 8 12 15
9 15 -3 0 6 23 20 51 14 28 23 53 20 56 -3 3 4 19 15 34 28 40 16 37 -14 -3z"/>
<path d="M7622 6826 c4 -5 1 -15 -7 -22 -8 -8 -11 -22 -8 -31 5 -11 3 -14 -6
-8 -10 6 -11 3 -2 -14 7 -11 14 -21 17 -21 3 0 2 5 -2 12 -5 7 -3 8 5 4 7 -5
10 -15 7 -23 -3 -8 -2 -11 3 -8 5 3 12 1 16 -5 4 -6 10 -8 15 -5 5 3 7 -3 5
-15 -2 -11 1 -23 7 -26 7 -5 8 -2 3 6 -5 9 -2 10 13 6 11 -4 23 -2 27 3 4 7
-1 8 -12 4 -17 -6 -17 -5 1 15 17 20 15 27 -7 23 -5 -1 -6 3 -2 9 4 7 14 5 28
-5 12 -8 26 -15 32 -15 11 0 -75 54 -87 55 -3 0 -10 4 -15 9 -5 5 -2 6 7 2 9
-5 8 -2 -2 7 -10 8 -15 16 -13 19 3 3 -3 11 -12 19 -10 7 -15 10 -11 5z"/>
<path d="M7720 6700 c0 -5 4 -10 10 -10 5 0 7 -7 4 -15 -5 -11 -2 -13 10 -9
19 7 20 16 4 32 -15 15 -28 16 -28 2z"/>
<path d="M4873 6673 c-21 -8 -15 -71 7 -93 24 -24 72 -26 90 -5 14 17 5 69
-10 60 -5 -3 -7 1 -4 9 10 25 -46 45 -83 29z m62 -12 c3 -5 0 -13 -6 -17 -8
-4 -9 -3 -5 4 4 7 1 12 -9 12 -9 0 -13 -4 -10 -10 3 -5 1 -10 -4 -10 -6 0 -11
6 -11 13 0 8 -4 7 -10 -3 -5 -8 -10 -10 -10 -4 0 6 3 14 7 17 10 10 51 8 58
-2z m-30 -41 c3 -5 1 -10 -4 -10 -6 0 -11 5 -11 10 0 6 2 10 4 10 3 0 8 -4 11
-10z m15 -40 c0 -5 -5 -10 -11 -10 -5 0 -7 5 -4 10 3 6 8 10 11 10 2 0 4 -4 4
-10z"/>
<path d="M3637 6582 c-16 -18 -238 -668 -251 -735 l-7 -37 440 -291 c248 -164
438 -296 434 -302 -3 -6 -1 -7 6 -3 15 10 143 -73 134 -87 -3 -6 -1 -7 5 -3
10 6 144 -75 184 -111 15 -13 20 -12 46 7 39 29 46 44 86 175 18 61 63 208
100 328 36 119 66 228 66 240 0 12 -7 33 -17 46 -9 13 -167 124 -352 246 -185
122 -445 294 -579 383 -134 89 -251 162 -261 162 -10 0 -25 -8 -34 -18z m314
-258 c265 -178 367 -248 384 -262 6 -4 78 -50 160 -101 83 -52 186 -119 230
-150 44 -31 83 -55 88 -53 4 1 7 -2 7 -6 0 -32 -185 -631 -199 -645 -4 -4
-235 142 -512 325 -277 184 -539 356 -581 383 -43 28 -78 53 -78 58 0 4 48
152 106 328 98 296 107 319 124 307 10 -7 132 -90 271 -184z"/>
<path d="M3246 6571 c-9 -13 31 -44 49 -37 13 5 13 8 -2 26 -18 21 -38 26 -47
11z"/>
<path d="M5560 6534 c0 -9 11 -57 24 -108 13 -50 27 -104 30 -119 4 -15 11
-25 15 -22 5 3 7 -3 4 -14 -3 -10 -1 -21 4 -24 12 -7 99 52 95 65 -1 5 2 6 8
3 15 -9 91 45 83 58 -3 6 -1 7 5 3 7 -4 22 0 34 8 12 9 37 16 56 16 42 0 59
33 30 62 -20 20 -201 63 -306 72 -35 3 -67 8 -72 11 -6 4 -10 -1 -10 -11z
m307 -67 c0 -9 -10 -11 -31 -8 l-31 5 30 7 c17 4 30 7 31 8 0 0 1 -5 1 -12z
m33 3 c0 -5 -5 -10 -11 -10 -5 0 -7 5 -4 10 3 6 8 10 11 10 2 0 4 -4 4 -10z
m-7 -47 c-7 -2 -21 -2 -30 0 -10 3 -4 5 12 5 17 0 24 -2 18 -5z"/>
<path d="M3202 6499 c-43 -31 -74 -31 -50 -1 12 15 11 16 -5 3 -13 -10 -14
-17 -7 -26 8 -9 8 -15 0 -20 -14 -9 -32 4 -24 17 4 7 2 8 -5 4 -8 -6 -9 -12
-2 -20 7 -9 7 -16 -1 -24 -18 -18 -27 -14 -23 9 4 17 2 19 -11 9 -10 -9 -11
-16 -4 -25 8 -9 8 -15 0 -20 -14 -9 -32 4 -24 17 4 6 2 8 -4 5 -13 -9 -8 -43
6 -40 15 4 217 143 206 143 -5 -1 -28 -14 -52 -31z"/>
<path d="M6173 6502 c-82 -22 -91 -27 -83 -43 6 -10 10 -20 10 -23 0 -3 -46
-37 -102 -77 -57 -39 -102 -75 -100 -81 1 -5 -2 -7 -7 -4 -5 4 -32 -8 -60 -25
-44 -28 -49 -34 -38 -48 10 -14 10 -14 -4 -3 -14 11 -23 9 -55 -10 -22 -13
-57 -24 -79 -25 -22 -1 -53 -5 -70 -8 -27 -6 -296 36 -882 139 -106 18 -200
40 -210 47 -15 12 -16 12 -9 -1 4 -8 -1 -5 -10 8 -9 12 -22 22 -28 22 -6 0 -4
-5 4 -10 13 -8 13 -10 -1 -10 -11 0 -16 -10 -17 -30 -1 -43 24 -53 244 -94
486 -92 774 -138 864 -140 77 -1 145 18 133 36 -3 6 0 8 8 6 14 -5 69 17 69
28 0 3 -4 3 -8 0 -5 -3 -9 1 -9 9 0 10 5 11 16 5 12 -6 41 8 106 51 50 32 89
64 87 69 -1 6 6 10 15 8 11 -2 17 2 15 11 -2 8 3 11 11 8 19 -7 59 21 51 35
-5 7 -1 9 9 5 21 -8 40 16 25 31 -16 16 4 15 21 0 8 -7 11 -8 8 -3 -12 22 12
40 56 44 5 1 6 4 4 9 -3 4 14 8 37 9 72 4 111 13 95 24 -11 6 -11 9 -1 9 7 0
10 5 7 10 -3 6 0 10 7 10 8 1 6 6 -6 15 -11 8 -22 14 -25 14 -3 -1 -47 -13
-98 -27z m90 -39 c-7 -2 -19 -2 -25 0 -7 3 -2 5 12 5 14 0 19 -2 13 -5z m-199
-94 c-3 -5 -10 -7 -15 -3 -5 3 -7 10 -3 15 3 5 10 7 15 3 5 -3 7 -10 3 -15z
m-39 -16 c-2 -10 -4 -19 -4 -21 -1 -2 -6 0 -11 3 -8 5 -7 11 1 21 15 18 18 18
14 -3z m-58 -38 c0 -8 -4 -12 -9 -9 -5 3 -6 10 -3 15 9 13 12 11 12 -6z m-30
-20 c0 -8 -4 -12 -9 -9 -5 3 -6 10 -3 15 9 13 12 11 12 -6z m-52 -34 c3 -5 2
-12 -3 -15 -5 -3 -9 1 -9 9 0 17 3 19 12 6z m-31 -32 c-3 -5 -10 -7 -15 -3 -5
3 -7 10 -3 15 3 5 10 7 15 3 5 -3 7 -10 3 -15z m-29 -8 c3 -5 2 -12 -3 -15 -5
-3 -9 1 -9 9 0 17 3 19 12 6z m-45 -37 c0 -8 -19 -13 -24 -6 -3 5 1 9 9 9 8 0
15 -2 15 -3z"/>
<path d="M3337 6513 c-4 -3 -7 -12 -7 -20 0 -15 26 -18 34 -4 7 11 -18 33 -27
24z"/>
<path d="M2683 6406 c-56 -39 -134 -91 -173 -116 -64 -40 -69 -45 -48 -51 12
-3 43 -4 68 -2 81 8 203 23 206 25 3 4 53 213 51 214 -1 0 -48 -31 -104 -70z"/>
<path d="M5963 6463 c9 -2 23 -2 30 0 6 3 -1 5 -18 5 -16 0 -22 -2 -12 -5z"/>
<path d="M1201 6364 c0 -11 3 -14 6 -6 3 7 2 16 -1 19 -3 4 -6 -2 -5 -13z"/>
<path d="M1192 6290 c0 -19 2 -27 5 -17 2 9 2 25 0 35 -3 9 -5 1 -5 -18z"/>
<path d="M1184 6091 c4 -151 9 -186 21 -140 4 19 1 74 -5 74 0 0 -3 47 -5 104
-2 57 -7 106 -10 109 -3 3 -3 -63 -1 -147z"/>
<path d="M1210 5924 c-13 -33 -13 -31 11 -110 15 -48 23 -63 30 -53 5 8 4 15
-1 17 -6 2 -8 8 -4 13 3 5 1 9 -4 9 -5 0 -15 20 -21 44 -13 54 -14 69 -2 62 5
-4 7 4 3 16 -5 20 -4 21 11 9 9 -7 15 -16 13 -20 -3 -4 -1 -13 5 -21 13 -22
12 15 -1 41 -15 26 -29 24 -40 -7z"/>
<path d="M1220 5881 c0 -6 5 -13 10 -16 6 -3 10 1 10 9 0 9 -4 16 -10 16 -5 0
-10 -4 -10 -9z"/>
<path d="M1230 5843 c0 -4 5 -15 10 -23 8 -13 10 -13 10 2 0 9 -4 20 -10 23
-5 3 -10 3 -10 -2z"/>
<path d="M1260 5845 c0 -5 5 -17 10 -25 5 -8 10 -10 10 -5 0 6 -5 17 -10 25
-5 8 -10 11 -10 5z"/>
<path d="M1410 5804 c0 -8 5 -12 10 -9 6 3 10 10 10 16 0 5 -4 9 -10 9 -5 0
-10 -7 -10 -16z"/>
<path d="M1267 5743 c4 -11 3 -14 -5 -9 -7 4 -12 3 -12 -2 0 -6 7 -13 16 -16
10 -4 13 -13 9 -25 -3 -11 -1 -22 5 -26 5 -3 11 -1 11 4 1 6 2 17 3 24 1 6 -4
24 -11 40 -15 29 -26 37 -16 10z"/>
<path d="M3340 5745 c0 -17 9 -19 28 -6 11 7 10 10 -3 15 -23 9 -25 8 -25 -9z"/>
<path d="M1300 5737 c0 -3 7 -21 16 -42 15 -37 11 -62 -6 -35 -6 8 -10 10 -10
4 0 -7 9 -22 19 -35 l20 -24 -5 25 c-5 22 -3 20 18 -10 18 -28 24 -31 26 -16
2 10 -6 24 -18 33 -12 8 -19 21 -16 28 3 8 -2 19 -10 25 -8 7 -14 18 -14 26 0
7 -4 16 -10 19 -5 3 -10 4 -10 2z"/>
<path d="M3281 5727 c-17 -17 -13 -42 12 -65 24 -22 37 -20 37 5 0 10 -6 12
-20 8 -16 -5 -19 -3 -13 10 3 10 0 21 -8 26 -11 7 -11 9 -1 9 7 0 24 -12 37
-27 28 -34 44 -24 18 11 -21 29 -47 38 -62 23z"/>
<path d="M3365 5717 c-17 -13 -16 -15 14 -25 20 -7 29 -7 25 -1 -3 5 0 16 6
24 10 12 9 15 -7 15 -10 0 -27 -6 -38 -13z"/>
<path d="M3427 5713 c-14 -13 -6 -23 17 -21 19 2 22 5 14 15 -12 14 -21 16
-31 6z"/>
<path d="M3227 5691 c-16 -17 -16 -19 5 -37 19 -17 21 -17 15 -1 -4 9 -3 17 1
17 4 0 8 9 9 20 2 24 -6 25 -30 1z"/>
<path d="M3465 5677 c-10 -8 -15 -19 -11 -25 10 -17 26 -15 26 3 0 8 5 15 10
15 6 0 10 5 10 10 0 14 -13 13 -35 -3z"/>
<path d="M3404 5655 c-19 -30 -14 -40 15 -30 26 8 28 25 4 26 -16 0 -16 1 1 8
13 5 16 10 8 15 -6 4 -18 -4 -28 -19z"/>
<path d="M3171 5656 c-10 -12 -9 -17 6 -24 23 -13 48 9 30 27 -15 15 -22 14
-36 -3z"/>
<path d="M3365 5660 c-4 -6 -3 -16 3 -22 6 -6 12 -6 17 2 4 6 3 16 -3 22 -6 6
-12 6 -17 -2z"/>
<path d="M3501 5661 c-11 -7 -11 -9 0 -14 11 -4 11 -6 1 -6 -7 -1 -10 -5 -7
-11 8 -14 26 -13 23 1 -2 6 3 14 10 16 9 3 12 -1 10 -13 -2 -14 4 -19 22 -20
14 -1 34 -5 45 -9 11 -5 -4 8 -34 28 -29 21 -54 37 -55 37 0 0 -7 -4 -15 -9z"/>
<path d="M3256 5645 c-6 -16 14 -30 34 -23 7 2 4 11 -8 21 -17 16 -20 16 -26
2z"/>
<path d="M3115 5620 c-9 -14 1 -27 25 -33 11 -3 18 -1 15 3 -3 5 -1 11 5 15 6
4 7 11 3 18 -4 7 -9 4 -14 -9 -7 -17 -8 -17 -8 -1 -1 19 -16 23 -26 7z"/>
<path d="M3215 5620 c-11 -17 5 -32 21 -19 7 6 11 15 8 20 -7 12 -21 11 -29
-1z"/>
<path d="M3320 5622 c0 -14 11 -21 26 -15 21 8 17 23 -6 23 -11 0 -20 -4 -20
-8z"/>
<path d="M3445 5611 c-5 -9 24 -31 39 -31 13 0 5 28 -10 34 -20 8 -22 8 -29
-3z"/>
<path d="M3175 5600 c-10 -17 12 -37 25 -24 8 8 6 15 -4 23 -10 9 -16 9 -21 1z"/>
<path d="M3280 5601 c0 -10 30 -24 37 -17 3 3 2 9 -2 15 -8 13 -35 15 -35 2z"/>
<path d="M3362 5601 c-11 -6 -10 -10 4 -15 10 -4 21 -1 26 6 6 10 8 8 8 -4 0
-10 5 -18 10 -18 23 0 7 -18 -21 -24 -22 -4 -29 -10 -26 -20 4 -9 -2 -17 -14
-21 -22 -7 -26 -45 -5 -45 21 0 36 24 31 48 -5 27 2 28 28 5 11 -10 17 -12 13
-5 -4 6 -2 12 3 12 6 0 11 -8 11 -18 0 -10 6 -19 13 -19 6 0 20 -4 31 -8 14
-6 17 -4 14 11 -3 13 -11 18 -26 17 -13 -2 -21 1 -18 6 3 5 0 14 -8 20 -7 6
-12 22 -10 36 3 35 -34 56 -64 36z m3 -111 c3 -5 1 -10 -4 -10 -6 0 -11 5 -11
10 0 6 2 10 4 10 3 0 8 -4 11 -10z"/>
<path d="M3523 5603 c4 -6 3 -14 -3 -18 -15 -9 -12 -25 4 -25 21 0 27 27 8 42
-10 8 -13 8 -9 1z"/>
<path d="M3044 5589 c-3 -6 1 -18 10 -27 13 -14 20 -14 36 -4 26 16 35 15 20
-3 -15 -18 -8 -29 29 -45 25 -10 33 -10 46 3 8 9 15 17 15 20 0 8 -35 4 -47
-6 -9 -6 -13 -6 -13 1 0 6 5 14 10 17 15 9 12 25 -4 25 -7 0 -27 7 -42 15 -34
18 -50 19 -60 4z"/>
<path d="M3245 5590 c-7 -12 2 -30 16 -30 5 0 9 9 9 20 0 21 -15 27 -25 10z"/>
<path d="M3565 5590 c3 -5 13 -10 21 -10 8 0 12 5 9 10 -3 6 -13 10 -21 10 -8
0 -12 -4 -9 -10z"/>
<path d="M3610 5575 c0 -10 7 -15 18 -13 21 4 19 22 -2 26 -10 2 -16 -3 -16
-13z"/>
<path d="M3280 5570 c0 -5 5 -10 10 -10 6 0 10 5 10 10 0 6 -4 10 -10 10 -5 0
-10 -4 -10 -10z"/>
<path d="M3321 5551 c-8 -11 -10 -12 -5 -1 6 12 5 13 -7 2 -12 -11 -12 -14 1
-22 8 -5 22 -10 30 -10 12 0 12 2 2 9 -10 6 -7 10 12 15 32 8 34 21 3 22 -13
1 -29 -6 -36 -15z"/>
<path d="M3442 5553 c4 -22 38 -30 38 -10 0 8 -7 18 -16 21 -23 9 -26 8 -22
-11z"/>
<path d="M3198 5553 c6 -2 12 -12 12 -20 0 -13 3 -13 15 -3 23 19 18 30 -12
29 -16 0 -22 -3 -15 -6z"/>
<path d="M3550 5551 c0 -5 7 -11 15 -15 8 -3 15 -1 15 4 0 6 4 10 10 10 5 0 7
-6 4 -14 -4 -10 11 -22 45 -38 28 -12 51 -26 51 -30 0 -5 5 -8 11 -8 5 0 7 5
3 12 -5 7 -3 8 6 3 9 -5 11 -4 6 3 -4 7 -16 12 -27 12 -10 0 -18 6 -16 13 1 7
-8 11 -26 10 -21 -1 -27 2 -23 12 3 8 -3 19 -14 25 -23 12 -60 13 -60 1z"/>
<path d="M3640 5550 c0 -9 17 -14 48 -13 8 1 11 -5 8 -14 -4 -11 -1 -13 14 -8
16 5 20 2 20 -14 0 -12 6 -21 14 -21 32 0 24 20 -21 49 -46 31 -83 40 -83 21z"/>
<path d="M3267 5543 c-25 -7 -17 -38 11 -39 27 -2 38 12 16 20 -8 3 -12 10 -9
16 3 5 5 9 3 9 -2 -1 -11 -3 -21 -6z"/>
<path d="M3495 5540 c-4 -6 -3 -14 0 -20 9 -15 35 -12 35 4 0 17 -27 29 -35
16z"/>
<path d="M3540 5517 c0 -19 26 -40 40 -32 15 9 1 27 -17 21 -8 -3 -11 -2 -8 3
3 5 1 12 -5 16 -5 3 -10 0 -10 -8z"/>
<path d="M7018 5507 c-29 -24 -37 -47 -15 -47 6 1 29 7 50 14 28 11 35 11 27
2 -5 -7 -7 -16 -3 -20 4 -4 0 -4 -8 -1 -9 3 -35 1 -59 -4 -34 -7 -48 -6 -66 5
-25 17 -43 2 -25 -20 9 -10 1 -17 -32 -32 -23 -10 -68 -35 -99 -56 -31 -21
-60 -38 -63 -38 -6 0 -93 -58 -105 -70 -3 -3 -18 -13 -35 -22 -16 -10 -29 -22
-27 -28 1 -7 -2 -9 -8 -5 -13 8 -232 -124 -224 -136 3 -5 -1 -6 -9 -3 -18 6
-32 -12 -17 -21 15 -9 12 -22 -6 -29 -14 -5 -15 -4 -5 8 21 25 -7 29 -44 6
-19 -12 -40 -18 -46 -14 -7 4 -9 3 -6 -3 8 -13 -14 -32 -42 -38 -29 -5 -42
-15 -36 -25 3 -5 -24 -25 -59 -45 -43 -24 -63 -41 -60 -50 8 -20 34 -27 50
-14 11 9 13 9 9 -3 -7 -17 51 -62 68 -52 6 4 9 4 5 -1 -5 -5 8 -19 27 -32 27
-19 39 -21 54 -13 11 5 23 10 28 10 4 -1 -3 -7 -16 -14 l-25 -14 33 -16 c31
-17 34 -16 79 9 26 14 38 19 27 10 -56 -44 -61 -49 -44 -53 17 -3 109 33 109
44 0 4 -8 13 -17 20 -17 13 -17 14 0 8 11 -4 23 0 33 12 12 17 13 17 8 2 -8
-23 -2 -23 48 3 22 11 43 29 45 40 3 10 9 16 14 13 9 -5 169 84 169 95 0 4 -6
13 -12 20 -11 11 -9 11 10 1 30 -15 54 -6 45 17 -5 14 -3 16 7 6 10 -9 18 -9
33 -1 16 8 17 12 6 19 -9 7 -5 8 13 3 19 -4 32 0 47 15 11 11 23 16 26 12 3
-5 50 -37 106 -71 l101 -62 -28 -14 c-49 -26 -144 -85 -144 -91 0 -3 26 10 58
28 31 18 86 48 122 67 36 19 90 49 120 67 30 18 94 54 143 79 48 26 87 52 87
57 0 13 -68 60 -128 88 -42 20 -51 28 -46 43 7 25 -19 64 -59 88 -42 26 -27
25 25 0 53 -25 73 -12 38 25 -17 18 -31 24 -47 20 -12 -3 -24 -1 -27 4 -3 5 0
9 7 8 50 -2 58 15 13 33 -14 6 -16 9 -5 9 8 1 24 -7 35 -17 25 -23 73 -44 84
-37 5 3 22 -2 37 -11 28 -16 28 -16 -2 10 -16 14 -33 26 -37 26 -5 0 -8 5 -8
10 0 6 13 4 31 -5 17 -9 38 -15 47 -13 18 4 -72 61 -95 61 -7 0 -13 6 -13 14
0 12 -13 17 -33 14 -5 -1 -6 3 -3 8 11 18 -27 21 -48 4 -21 -18 -21 -18 -3 3
18 21 17 22 -28 48 -25 15 -50 24 -57 20 -6 -4 -8 -3 -5 3 6 10 -33 33 -56 33
-7 -1 -24 -11 -39 -23z m27 -6 c3 -5 2 -12 -3 -15 -5 -3 -9 1 -9 9 0 17 3 19
12 6z m96 -40 c-18 -14 -20 -20 -10 -24 8 -3 3 -4 -9 -4 l-24 1 27 23 c14 13
29 23 33 23 4 0 -4 -9 -17 -19z m-61 -41 c-8 -5 -19 -10 -25 -10 -5 0 -3 5 5
10 8 5 20 10 25 10 6 0 3 -5 -5 -10z m90 -11 c12 -9 12 -10 -4 -5 -11 4 -27
-1 -40 -11 l-21 -18 19 23 c22 25 25 26 46 11z m-210 -13 c0 -2 -8 -10 -17
-17 -16 -13 -17 -12 -4 4 13 16 21 21 21 13z m70 0 c0 -2 -8 -10 -17 -17 -16
-13 -17 -12 -4 4 13 16 21 21 21 13z m60 -18 c10 -3 7 -6 -9 -11 -13 -3 -20
-3 -17 0 3 4 0 13 -7 22 -10 14 -10 14 3 5 8 -6 22 -13 30 -16z m125 2 c3 -5
2 -10 -4 -10 -5 0 -13 5 -16 10 -3 6 -2 10 4 10 5 0 13 -4 16 -10z m42 4 c-3
-3 -12 -4 -19 -1 -8 3 -5 6 6 6 11 1 17 -2 13 -5z m-337 -18 c0 -2 -9 -6 -20
-9 -11 -3 -18 -1 -14 4 5 9 34 13 34 5z m254 -22 c3 -8 1 -14 -3 -14 -5 0 -11
6 -14 13 -4 10 -7 10 -18 0 -7 -7 -18 -13 -23 -13 -6 0 -3 5 7 11 9 6 15 14
12 19 -3 4 4 6 14 3 11 -3 22 -11 25 -19z m136 6 c0 -5 -2 -10 -4 -10 -3 0 -8
5 -11 10 -3 6 -1 10 4 10 6 0 11 -4 11 -10z m-353 -17 c-4 -3 -1 -13 6 -22 10
-14 10 -14 -5 -3 -13 10 -22 11 -37 2 -12 -6 -21 -8 -21 -6 0 3 12 12 28 20
30 17 39 20 29 9z m156 -14 c25 -13 66 -59 67 -74 0 -5 -7 1 -16 13 -10 15
-20 20 -27 14 -16 -12 -47 -23 -47 -16 0 2 11 9 25 14 33 13 32 23 -7 43 -18
8 -29 16 -25 16 5 1 18 -4 30 -10z m-101 -11 c-9 -9 -8 -16 4 -29 12 -13 12
-19 3 -25 -8 -4 -10 -3 -5 4 4 6 -2 17 -13 24 -18 11 -18 13 -3 25 22 16 30
17 14 1z m-122 -12 c0 -2 -9 -6 -20 -9 -11 -3 -18 -1 -14 4 5 9 34 13 34 5z
m191 -13 c11 -15 11 -16 -1 -6 -10 9 -17 10 -27 2 -9 -8 -13 -8 -13 -1 0 6 6
13 13 15 6 3 13 6 13 6 1 1 8 -7 15 -16z m183 -1 c3 -5 -1 -9 -9 -9 -8 0 -15
4 -15 9 0 4 4 8 9 8 6 0 12 -4 15 -8z m-429 -12 c-3 -5 -12 -10 -18 -10 -7 0
-6 4 3 10 19 12 23 12 15 0z m40 -38 c-3 -3 -15 -6 -27 -7 -18 -2 -19 -1 -5
10 9 7 13 16 9 21 -4 4 1 2 11 -5 9 -8 15 -16 12 -19z m35 24 c0 -3 -4 -8 -10
-11 -5 -3 -10 -1 -10 4 0 6 5 11 10 11 6 0 10 -2 10 -4z m91 -15 l21 -19 -25
2 c-18 1 -25 6 -24 19 2 21 3 21 28 -2z m70 1 c-7 -2 -18 1 -23 6 -8 8 -4 9
13 5 13 -4 18 -8 10 -11z m95 -12 c32 0 94 -28 94 -42 0 -12 -6 -10 -42 12
-37 22 -69 25 -101 9 -21 -10 -21 -10 -3 5 11 9 14 16 8 16 -7 0 -12 5 -12 12
0 9 3 9 12 0 7 -7 26 -12 44 -12z m-313 -49 c23 -26 31 -30 47 -21 11 6 20 15
20 20 0 5 7 7 15 4 8 -4 15 -10 15 -15 0 -4 -7 -6 -15 -3 -8 4 -15 1 -15 -5 0
-6 -7 -11 -16 -11 -9 0 -14 -6 -11 -13 3 -8 -1 -14 -9 -14 -7 0 -11 4 -8 9 3
5 -16 29 -42 54 -26 26 -39 42 -28 36 10 -5 31 -24 47 -41z m111 33 c6 -15 4
-15 -11 -3 -10 7 -20 15 -22 16 -2 2 3 3 11 3 9 0 19 -7 22 -16z m166 -41 c8
1 14 10 14 20 -1 9 2 17 7 17 5 0 9 -4 9 -10 0 -5 8 -7 18 -4 9 4 2 -3 -16
-15 -40 -26 -38 -26 -69 -1 -23 18 -28 19 -42 6 -12 -11 -21 -12 -31 -5 -13
10 -13 10 0 6 18 -5 38 14 32 31 -2 7 11 -1 30 -18 18 -17 40 -29 48 -27z
m-375 28 c3 -6 -5 -15 -17 -21 -21 -10 -21 -10 -6 3 10 8 15 17 11 20 -3 4 -4
7 0 7 3 0 8 -4 12 -9z m152 -7 c-3 -3 -12 -4 -19 -1 -8 3 -5 6 6 6 11 1 17 -2
13 -5z m86 -24 c-4 -14 1 -21 21 -26 14 -3 23 -10 20 -15 -10 -17 -54 22 -52
46 1 13 5 22 9 19 4 -2 5 -13 2 -24z m-346 5 c0 -8 -4 -12 -9 -9 -5 3 -6 10
-3 15 9 13 12 11 12 -6z m58 5 c3 -6 -1 -7 -9 -4 -18 7 -21 14 -7 14 6 0 13
-4 16 -10z m40 -30 c3 -6 -1 -7 -9 -4 -18 7 -21 14 -7 14 6 0 13 -4 16 -10z
m45 6 c0 -2 -7 -7 -16 -10 -8 -3 -12 -2 -9 4 6 10 25 14 25 6z m25 -6 c3 -5 1
-10 -4 -10 -6 0 -11 5 -11 10 0 6 2 10 4 10 3 0 8 -4 11 -10z m256 -8 c-7 -2
-18 1 -23 6 -8 8 -4 9 13 5 13 -4 18 -8 10 -11z m-460 -9 c13 -16 12 -17 -3
-4 -10 7 -18 15 -18 17 0 8 8 3 21 -13z m67 -8 c-3 -3 -9 2 -12 12 -6 14 -5
15 5 6 7 -7 10 -15 7 -18z m97 -5 c3 -5 1 -10 -4 -10 -6 0 -11 5 -11 10 0 6 2
10 4 10 3 0 8 -4 11 -10z m40 0 c-3 -5 -12 -10 -18 -10 -7 0 -6 4 3 10 19 12
23 12 15 0z m188 -25 c32 -22 3 -18 -35 4 -17 11 -36 17 -41 14 -6 -3 -7 -1
-3 5 8 13 43 2 79 -23z m-143 5 c6 -11 9 -20 7 -20 -2 0 -12 9 -22 20 -10 11
-13 20 -7 20 6 0 16 -9 22 -20z m-280 0 c-8 -5 -19 -10 -25 -10 -5 0 -3 5 5
10 8 5 20 10 25 10 6 0 3 -5 -5 -10z m181 -4 l24 5 -24 -14 c-20 -12 -27 -12
-38 -2 -17 17 -17 31 0 17 7 -6 24 -9 38 -6z m174 -14 c5 -14 4 -15 -6 -4 -7
6 -22 12 -33 12 -16 0 -18 2 -7 9 18 12 38 4 46 -17z m-485 12 c0 -8 -19 -13
-24 -6 -3 5 1 9 9 9 8 0 15 -2 15 -3z m220 2 c0 -2 -9 -6 -20 -9 -11 -3 -18
-1 -14 4 5 9 34 13 34 5z m140 -17 c0 -6 -4 -7 -10 -4 -5 3 -10 11 -10 16 0 6
5 7 10 4 6 -3 10 -11 10 -16z m-270 6 c0 -2 -10 -9 -22 -15 -22 -11 -22 -10
-4 4 21 17 26 19 26 11z m180 -20 c0 -10 -40 -10 -43 0 -4 8 3 10 19 7 13 -2
24 -6 24 -7z m-119 -12 c11 -15 11 -16 -1 -6 -11 10 -17 10 -29 0 -14 -11 -14
-10 -2 6 7 9 15 17 16 17 1 0 9 -8 16 -17z m296 1 c3 -9 12 -13 22 -9 13 5 14
4 3 -7 -10 -10 -16 -8 -34 10 -13 13 -17 22 -10 22 7 0 15 -7 19 -16z m-134
-15 c21 -21 21 -21 1 -11 -15 8 -25 8 -34 -1 -12 -10 -12 -9 -2 4 6 9 9 19 5
22 -17 18 11 4 30 -14z m47 17 c0 -3 -4 -8 -10 -11 -5 -3 -10 -1 -10 4 0 6 5
11 10 11 6 0 10 -2 10 -4z m-148 -13 c-6 -2 -9 -10 -6 -15 4 -7 2 -8 -5 -4
-13 9 -5 26 12 25 9 0 8 -2 -1 -6z m-93 -27 c9 -11 9 -16 -1 -22 -7 -4 -10 -4
-6 1 4 4 3 14 -3 22 -6 7 -9 13 -6 13 2 0 10 -6 16 -14z m48 0 c-10 -8 -17
-16 -15 -19 2 -3 0 -8 -4 -12 -3 -4 -5 1 -4 10 1 9 9 21 17 26 22 14 26 10 6
-5z m203 4 c8 -5 11 -10 5 -10 -5 0 -17 5 -25 10 -8 5 -10 10 -5 10 6 0 17 -5
25 -10z m60 6 c0 -2 -7 -7 -16 -10 -8 -3 -12 -2 -9 4 6 10 25 14 25 6z m-170
-15 c0 -5 -13 -11 -30 -13 -36 -5 -39 -1 -7 12 29 12 37 12 37 1z m-225 -18
c5 -14 3 -15 -6 -6 -6 6 -19 9 -28 6 -14 -4 -14 -3 -1 6 21 15 27 14 35 -6z
m260 -11 c-3 -3 -11 0 -18 7 -9 10 -8 11 6 5 10 -3 15 -9 12 -12z m-498 -12
c-3 -12 1 -24 11 -30 10 -5 12 -10 7 -10 -19 0 -33 21 -28 41 3 10 8 19 10 19
3 0 3 -9 0 -20z m199 -2 l19 -23 -25 20 c-14 11 -27 21 -29 22 -2 2 0 3 6 3 5
0 18 -10 29 -22z m104 17 c0 -5 -69 -35 -79 -34 -5 0 68 38 77 39 1 0 2 -2 2
-5z m100 -5 c8 -5 11 -10 5 -10 -5 0 -17 5 -25 10 -8 5 -10 10 -5 10 6 0 17
-5 25 -10z m-7 -39 l32 -7 -32 -5 c-18 -3 -30 -2 -27 3 3 4 -9 11 -26 15 -21
4 -27 8 -19 14 7 4 19 3 26 -3 7 -6 28 -14 46 -17z m71 0 c-2 -3 -12 3 -22 13
-16 17 -16 18 5 5 12 -7 20 -15 17 -18z m-569 -1 c-3 -5 -12 -10 -18 -10 -7 0
-6 4 3 10 19 12 23 12 15 0z m415 -11 c12 -8 11 -9 -6 -4 -11 3 -42 -4 -67
-15 -26 -12 -52 -18 -59 -14 -7 5 -9 2 -6 -8 4 -8 1 -15 -5 -15 -7 0 -13 11
-13 23 -2 20 1 22 17 13 14 -7 30 -5 62 10 50 23 57 24 77 10z m-291 -13 c-2
-2 -15 -9 -29 -15 -24 -11 -24 -11 -6 3 16 13 49 24 35 12z m321 -13 c-8 -3
-24 -10 -35 -15 -20 -9 -20 -9 -1 6 11 9 27 16 35 15 14 0 14 -1 1 -6z m-250
-10 c-8 -3 -25 -14 -37 -23 -17 -14 -19 -20 -10 -31 10 -11 9 -11 -5 0 -13 9
-22 10 -38 1 -12 -6 -24 -10 -26 -7 -2 2 14 12 36 22 22 10 45 24 51 32 6 7
19 13 28 12 13 0 14 -1 1 -6z m319 -19 c14 -12 -19 -1 -35 12 -18 14 -18 14 6
3 14 -6 27 -13 29 -15z m-284 6 c3 -5 1 -10 -4 -10 -6 0 -11 5 -11 10 0 6 2
10 4 10 3 0 8 -4 11 -10z m85 -10 c0 -5 -2 -10 -4 -10 -3 0 -8 5 -11 10 -3 6
-1 10 4 10 6 0 11 -4 11 -10z m90 -11 c0 -4 8 -6 18 -2 10 4 7 -2 -8 -14 -34
-27 -74 -48 -66 -34 4 6 2 11 -3 11 -6 0 -11 5 -11 11 0 8 4 8 14 0 21 -18 62
4 46 24 -8 10 -18 11 -36 4 -37 -13 -44 -10 -9 6 29 13 55 10 55 -6z m-170 -3
c0 -2 -7 -7 -16 -10 -8 -3 -12 -2 -9 4 6 10 25 14 25 6z m40 -16 c0 -5 -2 -10
-4 -10 -3 0 -8 5 -11 10 -3 6 -1 10 4 10 6 0 11 -4 11 -10z m40 0 c0 -5 -8
-10 -17 -10 -15 0 -16 2 -3 10 19 12 20 12 20 0z m-41 -24 c-2 -2 -15 -9 -29
-15 -24 -11 -24 -11 -6 3 16 13 49 24 35 12z m-79 -16 c0 -5 -2 -10 -4 -10 -3
0 -8 5 -11 10 -3 6 -1 10 4 10 6 0 11 -4 11 -10z m115 0 c4 -6 11 -7 17 -4 7
4 8 2 4 -4 -4 -7 -17 -17 -29 -22 -18 -9 -19 -8 -5 2 15 11 15 13 0 25 -10 7
-12 12 -5 13 6 0 15 -5 18 -10z m-345 -4 c0 -3 -4 -8 -10 -11 -5 -3 -10 -1
-10 4 0 6 5 11 10 11 6 0 10 -2 10 -4z m174 -11 c18 -12 29 -13 52 -5 16 6 25
7 19 3 -13 -12 -72 -37 -63 -27 11 10 -30 37 -44 28 -7 -4 -8 -3 -4 4 9 15 12
15 40 -3z m-57 -11 c-3 -3 -12 -4 -19 -1 -8 3 -5 6 6 6 11 1 17 -2 13 -5z
m178 -4 c3 -6 -1 -7 -9 -4 -18 7 -21 14 -7 14 6 0 13 -4 16 -10z m-50 -30 c3
-5 2 -10 -4 -10 -5 0 -13 5 -16 10 -3 6 -2 10 4 10 5 0 13 -4 16 -10z m-64
-17 c12 -16 12 -17 -1 -7 -8 6 -22 14 -30 17 -13 5 -12 6 1 6 9 1 23 -7 30
-16z"/>
<path d="M3230 5511 c0 -7 -4 -10 -9 -7 -11 7 -41 -3 -41 -13 0 -4 11 -13 24
-19 22 -10 25 -8 31 15 3 14 4 28 0 31 -3 3 -5 0 -5 -7z"/>
<path d="M3290 5486 c7 -7 14 -6 21 1 9 9 7 12 -9 10 -14 -1 -18 -5 -12 -11z"/>
<path d="M3392 5495 c4 -5 3 -14 -3 -21 -8 -9 -5 -15 9 -23 15 -8 23 -7 31 3
9 10 5 17 -16 31 -16 10 -25 14 -21 10z"/>
<path d="M3497 5480 c-6 -23 22 -35 55 -24 20 6 21 5 10 -9 -17 -20 3 -34 23
-17 12 10 15 9 15 -4 0 -9 7 -16 15 -16 8 0 15 4 15 10 0 13 -32 28 -49 22 -8
-2 -11 0 -7 6 3 5 -12 19 -33 30 -38 20 -39 20 -44 2z"/>
<path d="M3240 5470 c0 -21 16 -26 39 -11 11 7 10 11 -7 20 -28 15 -32 14 -32
-9z"/>
<path d="M3597 5484 c-13 -13 -7 -24 14 -24 11 0 19 5 17 12 -5 14 -22 21 -31
12z"/>
<path d="M3776 5475 c-6 -18 7 -27 28 -19 20 8 21 -13 1 -33 -17 -17 -14 -40
4 -35 6 1 11 -5 11 -13 0 -9 9 -15 21 -15 17 0 18 2 7 13 -7 7 -22 18 -33 25
-17 10 -18 11 -2 12 15 0 22 11 18 33 -1 9 62 -34 67 -46 2 -4 9 -4 14 -1 7 4
8 2 4 -5 -4 -6 -11 -9 -16 -6 -5 3 -11 1 -15 -5 -3 -5 -1 -10 4 -10 6 0 11 -5
11 -11 0 -8 -4 -8 -14 0 -10 9 -16 8 -25 -3 -15 -17 -52 -12 -67 9 -14 19 -30
19 -38 -1 -4 -11 0 -14 16 -12 13 2 23 -2 23 -9 0 -21 14 -26 31 -12 15 12 16
11 10 -9 -6 -18 -4 -22 13 -22 12 0 21 5 21 10 0 6 -4 10 -10 10 -5 0 -10 4
-10 10 0 5 6 7 14 4 7 -3 26 7 42 21 19 18 30 22 33 14 2 -7 -1 -15 -7 -17
-18 -6 -14 -22 5 -22 9 0 13 3 10 6 -3 4 -2 15 3 24 8 15 -2 26 -68 67 -42 27
-82 53 -88 56 -7 4 -14 0 -18 -8z"/>
<path d="M3717 5463 c-12 -11 -8 -23 7 -23 7 0 19 7 26 15 10 12 9 15 -7 15
-11 0 -23 -3 -26 -7z"/>
<path d="M3284 5445 c-19 -14 -19 -15 4 -21 12 -3 22 -11 22 -18 1 -6 7 0 15
14 10 19 10 27 2 32 -17 11 -21 10 -43 -7z"/>
<path d="M3442 5448 c-9 -9 -7 -14 6 -24 14 -10 20 -10 35 3 9 9 17 11 17 5 0
-6 3 -18 6 -26 5 -12 2 -15 -12 -10 -14 4 -12 0 6 -15 29 -24 36 -25 46 -10 4
7 -4 20 -17 31 -21 17 -21 19 -4 14 17 -5 16 -3 -4 13 -14 10 -31 17 -38 14
-7 -3 -13 0 -13 6 0 14 -13 14 -28 -1z"/>
<path d="M3640 5450 c0 -5 9 -10 20 -10 11 0 20 5 20 10 0 6 -9 10 -20 10 -11
0 -20 -4 -20 -10z"/>
<path d="M3343 5433 c-3 -10 -8 -21 -10 -25 -4 -9 36 3 42 12 3 5 15 6 28 3
21 -4 21 -3 -3 11 -33 20 -49 20 -57 -1z"/>
<path d="M3750 5430 c0 -10 5 -22 10 -25 6 -3 10 -4 10 -1 0 2 3 11 6 19 3 8
-2 17 -10 20 -11 5 -16 0 -16 -13z"/>
<path d="M3695 5420 c3 -5 10 -10 16 -10 5 0 9 5 9 10 0 6 -7 10 -16 10 -8 0
-12 -4 -9 -10z"/>
<path d="M3550 5410 c0 -5 9 -15 20 -22 11 -7 20 -16 20 -20 0 -5 -9 -8 -20
-8 -24 0 -26 -13 -3 -31 13 -11 17 -11 20 -1 3 6 10 9 16 6 9 -5 9 -4 0 6 -6
7 -9 19 -6 27 3 7 -5 22 -17 33 -26 23 -30 24 -30 10z"/>
<path d="M3650 5406 c0 -7 10 -16 23 -20 18 -5 19 -8 7 -15 -8 -6 -11 -14 -6
-18 5 -4 11 -2 13 5 3 6 9 10 14 7 5 -4 6 1 3 9 -3 9 -10 16 -15 16 -5 0 -9 7
-9 15 0 8 -7 15 -15 15 -8 0 -15 -6 -15 -14z"/>
<path d="M3845 5411 c-6 -11 20 -33 28 -24 4 3 7 10 7 14 0 11 -29 19 -35 10z"/>
<path d="M3373 5392 c-9 -21 6 -26 25 -9 23 21 33 22 26 3 -3 -8 0 -17 6 -21
16 -10 23 0 15 24 -4 15 -14 20 -37 18 -17 -1 -33 -8 -35 -15z"/>
<path d="M3621 5391 c-20 -13 -5 -41 21 -40 13 0 17 3 10 6 -6 2 -10 9 -6 14
3 5 0 9 -6 9 -6 0 -8 5 -5 10 8 12 4 12 -14 1z"/>
<path d="M3723 5393 c-16 -6 -5 -33 13 -33 8 0 14 6 14 14 0 18 -11 25 -27 19z"/>
<path d="M3460 5366 c0 -24 26 -38 39 -22 14 16 -2 32 -21 20 -7 -4 -8 -3 -4
4 4 7 2 12 -3 12 -6 0 -11 -6 -11 -14z"/>
<path d="M3960 5360 c0 -5 5 -10 10 -10 6 0 3 -11 -6 -25 -13 -20 -19 -22 -35
-12 -16 10 -22 8 -40 -10 l-21 -21 20 -11 c21 -11 42 2 22 14 -14 8 -13 26 1
23 7 -2 23 -13 37 -25 25 -23 72 -31 72 -14 0 16 -20 23 -34 12 -7 -6 -16 -8
-19 -4 -4 3 1 12 11 19 14 11 14 15 4 22 -10 7 -8 11 10 16 22 6 23 7 4 21
-23 17 -36 19 -36 5z"/>
<path d="M2740 5356 c0 -3 14 -12 30 -21 17 -9 30 -13 30 -11 0 3 -13 12 -30
21 -16 9 -30 13 -30 11z"/>
<path d="M3274 5299 c-147 -82 -164 -92 -164 -99 0 -7 240 -153 281 -170 30
-14 63 1 206 88 l83 50 -33 24 c-17 14 -69 48 -114 77 -48 30 -80 57 -76 64 3
6 1 7 -5 3 -6 -4 -24 0 -40 8 -28 15 -32 13 -138 -45z"/>
<path d="M3685 5340 c-3 -4 -16 -7 -28 -6 -14 2 -24 -2 -24 -11 0 -7 4 -13 8
-13 4 0 14 -3 23 -6 11 -4 16 -1 16 10 0 14 4 15 20 6 16 -8 20 -8 20 4 0 16
-27 29 -35 16z"/>
<path d="M3516 5331 c-8 -13 18 -54 27 -44 4 3 18 -7 32 -23 14 -16 25 -26 25
-22 0 4 11 -4 24 -17 15 -15 31 -22 41 -19 11 5 18 0 21 -13 3 -11 31 -36 62
-56 49 -32 57 -34 67 -20 10 13 13 14 20 3 5 -9 4 -15 -3 -18 -7 -2 -12 -8
-12 -14 0 -6 7 -8 15 -4 8 3 14 0 12 -7 -1 -7 6 -12 15 -12 9 0 20 -4 25 -9 5
-5 2 -6 -7 -2 -8 4 -6 0 4 -8 24 -19 37 -20 60 -3 18 13 18 14 1 21 -11 4 -23
0 -32 -11 -13 -17 -13 -16 -4 4 8 16 7 22 -4 27 -8 3 -21 4 -27 2 -7 -1 -10
-1 -6 1 8 5 -32 40 -69 60 -17 10 -23 10 -26 0 -3 -7 -6 -5 -6 5 -1 20 -36 42
-51 33 -6 -3 -10 1 -10 10 0 9 -4 14 -9 10 -12 -7 -19 4 -25 40 -6 34 -30 60
-46 50 -13 -8 5 -35 25 -35 6 0 12 -7 12 -15 0 -8 -5 -11 -10 -8 -5 3 -13 -1
-18 -8 -7 -11 -10 -9 -15 9 -4 12 -12 22 -20 22 -8 0 -11 6 -7 17 4 11 3 14
-5 9 -7 -4 -24 6 -41 24 -18 20 -31 28 -35 21z"/>
<path d="M3730 5326 c0 -22 13 -26 33 -11 16 11 16 13 1 19 -25 9 -34 7 -34
-8z"/>
<path d="M4010 5315 c-13 -16 -7 -19 37 -16 11 1 24 -3 28 -8 3 -6 0 -8 -8 -5
-18 6 -32 -12 -17 -21 6 -4 18 -1 26 6 8 6 17 9 21 5 4 -3 -2 -12 -12 -19 -17
-13 -17 -14 -1 -20 21 -8 39 0 30 14 -3 5 -2 9 3 8 29 -5 20 5 -31 36 -32 19
-60 35 -61 35 -1 0 -8 -7 -15 -15z"/>
<path d="M3585 5310 c-3 -5 1 -10 9 -10 8 0 18 5 21 10 3 6 -1 10 -9 10 -8 0
-18 -4 -21 -10z"/>
<path d="M3775 5301 c-3 -6 3 -15 14 -20 14 -8 21 -8 24 2 3 7 6 5 6 -5 1 -18
36 -43 61 -43 8 0 15 -9 15 -20 0 -11 8 -21 18 -23 22 -4 22 13 -1 36 -19 19
-115 82 -125 82 -3 0 -8 -4 -12 -9z"/>
<path d="M2833 5292 c-9 -6 -3 -14 20 -27 23 -14 29 -15 20 -3 -7 8 -10 18 -6
22 4 4 -1 4 -11 0 -14 -5 -17 -4 -12 4 8 14 6 15 -11 4z"/>
<path d="M3687 5294 c-9 -10 4 -34 19 -34 8 0 14 4 14 9 0 12 -26 32 -33 25z"/>
<path d="M3727 5282 c2 -10 14 -24 25 -31 18 -11 20 -11 15 3 -11 27 1 18 16
-13 14 -27 13 -30 -6 -35 -25 -6 -37 2 -18 13 10 6 8 10 -6 16 -40 15 -63 16
-63 0 0 -18 26 -20 33 -2 3 7 6 5 6 -5 1 -17 37 -48 56 -48 6 0 16 13 22 29 9
26 8 31 -16 48 -14 11 -36 25 -48 31 -18 10 -20 9 -16 -6z"/>
<path d="M2318 5242 c-28 -21 -44 -40 -39 -45 10 -10 61 20 61 36 0 6 7 19 17
29 23 26 14 22 -39 -20z"/>
<path d="M3920 5255 c-10 -12 -5 -17 26 -30 25 -10 41 -12 48 -5 5 5 8 11 5
12 -53 33 -67 37 -79 23z m45 -15 c3 -5 1 -10 -4 -10 -6 0 -11 5 -11 10 0 6 2
10 4 10 3 0 8 -4 11 -10z"/>
<path d="M2901 5251 c-11 -7 -9 -12 10 -22 21 -11 22 -10 12 3 -7 8 -10 18 -6
21 9 10 1 8 -16 -2z"/>
<path d="M4025 5250 c-3 -6 1 -10 9 -10 9 0 15 -6 14 -12 -2 -7 5 -12 15 -11
13 1 17 -4 14 -16 -6 -23 19 -38 58 -35 48 3 51 4 31 16 -15 8 -21 8 -24 0 -5
-17 -22 -15 -22 3 0 8 -7 15 -15 15 -8 0 -15 4 -15 8 0 15 -59 52 -65 42z"/>
<path d="M2943 5237 c13 -11 14 -16 6 -19 -9 -3 -10 -6 -2 -11 6 -4 13 0 17 8
3 9 -3 19 -17 25 -20 10 -21 10 -4 -3z"/>
<path d="M4131 5236 c-8 -10 -8 -16 2 -24 10 -8 16 -6 24 7 18 29 -4 43 -26
17z"/>
<path d="M3832 5213 c2 -10 14 -19 27 -21 27 -4 21 12 -10 29 -18 9 -20 8 -17
-8z"/>
<path d="M4175 5216 c-18 -13 -17 -15 13 -30 32 -17 52 -14 52 6 0 6 -10 8
-27 3 -23 -5 -25 -4 -14 8 16 20 -2 30 -24 13z"/>
<path d="M4006 5211 c-8 -12 15 -28 37 -28 22 0 22 2 -7 21 -14 9 -27 12 -30
7z"/>
<path d="M7665 5210 c-8 -12 55 -31 72 -21 12 6 9 10 -13 16 -47 13 -54 14
-59 5z"/>
<path d="M3003 5195 c0 -8 4 -12 9 -9 5 3 6 10 3 15 -9 13 -12 11 -12 -6z"/>
<path d="M3942 5193 c4 -24 56 -49 71 -34 10 10 5 13 -19 10 -3 0 -14 9 -23
20 -22 26 -34 27 -29 4z"/>
<path d="M3810 5166 c0 -10 9 -16 21 -16 24 0 21 23 -4 28 -10 2 -17 -3 -17
-12z"/>
<path d="M3863 5166 c0 -8 8 -11 19 -8 28 7 32 22 5 22 -13 0 -24 -6 -24 -14z"/>
<path d="M4245 5169 c-10 -15 1 -23 20 -15 9 3 13 10 10 16 -8 13 -22 13 -30
-1z"/>
<path d="M3064 5162 c3 -5 30 -24 61 -43 38 -23 51 -36 42 -42 -9 -6 -9 -8 1
-5 26 7 16 20 -47 60 -35 22 -61 36 -57 30z"/>
<path d="M3917 5156 c-7 -17 22 -31 36 -17 6 6 2 13 -11 20 -15 8 -21 7 -25
-3z"/>
<path d="M4052 5163 c-10 -4 -10 -8 -1 -19 9 -11 15 -11 25 -3 23 19 6 34 -24
22z"/>
<path d="M4178 5164 c-6 -5 -28 -11 -53 -14 -5 0 -2 -7 8 -14 10 -8 14 -17 9
-20 -5 -3 -15 1 -22 9 -6 7 -18 11 -26 8 -11 -4 -12 -8 -3 -20 7 -7 18 -12 25
-9 29 11 22 -13 -7 -27 l-32 -15 36 -13 c20 -7 34 -16 31 -21 -3 -4 0 -8 5 -8
6 0 11 -5 11 -11 0 -8 -4 -8 -14 0 -14 12 -46 5 -46 -9 0 -18 42 -18 61 1 15
15 19 16 19 4 0 -9 6 -12 18 -9 14 5 15 4 2 -5 -8 -6 -12 -11 -7 -12 18 -4 24
-6 55 -22 36 -20 38 -23 17 -31 -8 -3 -14 0 -12 6 3 15 -30 18 -43 3 -7 -9 -6
-16 5 -25 13 -11 23 -10 55 6 22 10 40 22 40 25 0 7 -31 22 -39 19 -2 -1 -7 2
-10 7 -3 5 -27 22 -53 38 -27 17 -48 33 -48 38 0 4 -6 7 -14 7 -8 0 -16 7 -20
15 -4 12 0 14 22 9 27 -7 27 -7 8 14 -16 19 -17 22 -3 28 9 3 14 11 11 18 -3
7 3 12 13 12 10 -1 19 3 21 9 4 11 -11 18 -20 9z"/>
<path d="M4280 5140 c-10 -19 -12 -19 -36 -4 -18 12 -28 14 -36 6 -7 -7 4 -17
38 -32 27 -12 54 -23 59 -24 6 -1 21 -8 34 -15 l24 -13 -26 -17 c-15 -8 -27
-22 -27 -29 0 -7 4 -11 9 -8 4 3 16 -3 26 -14 21 -24 24 -24 49 -5 16 12 17
17 6 30 -7 8 -9 15 -4 15 5 0 1 5 -10 11 -15 9 -16 13 -5 20 12 8 12 10 0 18
-7 5 -21 6 -31 4 -10 -3 -21 0 -24 6 -4 7 -1 8 8 5 9 -3 16 -1 16 5 0 8 10 6
30 -5 22 -14 27 -21 19 -31 -9 -10 -5 -15 15 -23 14 -5 26 -14 26 -20 0 -7 6
-7 20 0 20 11 19 30 -1 30 -6 0 -7 -5 -3 -12 4 -7 3 -8 -5 -4 -6 4 -9 11 -6
16 3 5 -4 14 -15 20 -11 6 -17 16 -14 22 4 7 3 8 -4 4 -7 -4 -31 6 -54 22 -66
44 -66 44 -78 22z m50 -15 c14 -8 23 -15 20 -15 -3 -1 -19 -3 -37 -5 -30 -4
-34 1 -24 33 2 5 17 0 41 -13z m36 -113 c-8 -9 -18 -13 -22 -10 -8 9 19 37 29
31 5 -3 2 -12 -7 -21z"/>
<path d="M4020 5135 c0 -8 7 -15 16 -15 14 0 14 3 4 15 -7 8 -14 15 -16 15 -2
0 -4 -7 -4 -15z"/>
<path d="M8711 5084 c-23 -125 -24 -145 -9 -139 8 3 24 25 37 49 l24 43 -20
56 -20 57 -12 -66z"/>
<path d="M3860 5131 c0 -6 5 -13 10 -16 6 -3 10 -1 10 4 0 6 5 11 11 11 6 0 9
-7 5 -15 -3 -9 0 -15 9 -15 8 0 18 0 22 -1 19 -2 11 19 -12 29 -31 14 -55 15
-55 3z"/>
<path d="M3970 5124 c0 -8 2 -14 4 -14 2 0 11 -3 20 -6 10 -4 14 0 13 13 -1
22 -37 29 -37 7z"/>
<path d="M5040 5120 c-22 -22 -35 -63 -26 -85 3 -8 4 -15 3 -15 -27 0 -176
-33 -214 -48 -67 -25 -172 -100 -212 -151 -105 -132 -139 -352 -82 -521 38
-111 149 -322 198 -379 l47 -53 -95 6 c-301 22 -647 115 -917 248 -88 43 -128
69 -144 92 -73 107 -139 147 -251 154 -78 5 -79 5 -127 52 -26 26 -62 53 -79
60 -17 7 -31 15 -31 19 0 3 14 22 30 41 73 85 87 109 27 45 -36 -38 -66 -73
-67 -77 0 -9 -114 32 -235 85 l-81 35 -74 -66 c-41 -35 -99 -87 -128 -115
l-53 -49 37 -56 c34 -52 38 -54 50 -37 8 10 14 22 14 26 0 14 132 22 153 10
15 -10 24 -9 43 4 14 9 29 26 33 37 8 21 8 21 14 -1 3 -13 10 -20 15 -17 13 8
23 -19 16 -39 -7 -18 7 -20 24 -3 19 19 14 0 -10 -43 -20 -36 -30 -43 -50 -40
-5 0 -8 -3 -8 -9 0 -5 -5 -10 -12 -10 -6 0 -34 -11 -62 -24 -60 -29 -189 -52
-231 -42 -37 9 -109 84 -153 158 -28 47 -32 60 -22 77 13 25 3 27 -20 6 -15
-14 -21 -10 -59 45 -25 35 -47 57 -53 53 -7 -4 -9 -1 -6 9 4 8 -4 28 -18 44
-44 54 -24 3 37 -97 34 -54 65 -101 69 -104 12 -8 76 -116 84 -142 5 -16 2
-23 -14 -28 -11 -4 -18 -10 -16 -14 3 -4 -8 -15 -25 -25 -16 -9 -29 -21 -29
-26 0 -16 -114 -42 -180 -41 -36 0 -89 7 -117 14 -29 8 -53 13 -53 11 0 -1 20
-15 44 -30 25 -16 42 -32 39 -38 -3 -5 -1 -6 5 -3 13 9 44 -2 37 -13 -3 -5 0
-12 6 -16 8 -5 9 -3 4 6 -5 8 -3 11 6 8 8 -3 13 -10 12 -16 -2 -7 4 -9 14 -5
11 4 14 3 9 -5 -5 -8 -1 -10 10 -5 12 4 15 3 10 -5 -5 -8 -1 -10 10 -5 13 5
15 3 9 -7 -5 -8 -4 -11 3 -6 13 8 103 -34 96 -46 -3 -4 1 -5 9 -2 8 3 25 -5
37 -18 13 -13 20 -17 16 -10 -9 15 -15 16 77 -16 43 -16 75 -31 71 -34 -3 -4
3 -4 14 -2 10 3 25 -1 33 -8 8 -8 58 -28 111 -46 170 -56 283 -40 503 73 101
52 153 65 148 38 -1 -6 5 -10 15 -9 9 0 17 -4 17 -11 0 -6 4 -15 9 -20 5 -5 6
-3 2 5 -12 21 10 13 30 -10 19 -22 19 -23 -1 -8 -18 14 -19 14 -7 -2 8 -9 19
-15 26 -12 7 3 19 -3 27 -12 12 -15 12 -17 0 -9 -10 5 -12 4 -7 -4 4 -6 11 -9
16 -6 11 7 32 -20 22 -30 -4 -5 -2 -5 4 -2 15 9 77 -60 68 -75 -4 -6 -3 -8 4
-5 14 9 86 -89 76 -104 -4 -7 -3 -9 3 -6 6 4 20 -9 32 -29 24 -41 26 -48 9
-38 -8 4 -10 3 -5 -2 5 -5 12 -9 15 -9 17 -1 72 -65 96 -112 l26 -51 -36 -31
c-46 -41 -99 -43 -108 -6 -4 14 -11 23 -16 20 -6 -4 -36 3 -67 15 -116 43
-134 9 -69 -127 25 -52 46 -101 46 -108 0 -7 9 -23 19 -36 l19 -24 36 19 c20
11 45 33 56 50 11 17 20 25 20 17 0 -7 6 -11 15 -8 8 4 17 1 21 -5 5 -7 2 -8
-7 -4 -8 4 -5 0 6 -8 11 -9 25 -14 32 -12 7 3 13 1 13 -3 0 -5 7 -11 15 -15
11 -4 28 14 58 59 28 43 49 65 62 65 17 0 18 2 5 11 -13 8 -11 12 9 27 70 49
68 36 28 163 -46 147 -58 219 -35 212 4 -2 10 9 14 25 11 52 14 47 9 -18 -3
-44 -2 -59 4 -45 7 15 10 8 10 -31 2 -91 10 -115 47 -130 21 -9 34 -21 34 -32
0 -28 29 -62 54 -62 40 0 46 17 25 79 -24 70 -69 307 -69 366 0 43 0 43 28 35
15 -5 73 -22 130 -39 l103 -31 28 21 c26 19 40 20 741 20 l715 0 17 -21 c10
-12 19 -41 19 -64 2 -30 3 -33 6 -13 3 20 10 27 28 27 12 0 25 -7 28 -15 4 -8
9 -79 12 -157 3 -79 8 -156 10 -171 3 -17 1 -26 -5 -22 -5 3 0 -10 13 -29 25
-40 46 -45 73 -15 14 16 28 20 61 17 48 -4 56 7 18 24 -25 11 -26 16 -39 112
-3 22 -3 95 1 163 6 116 7 123 27 123 64 0 431 91 488 121 10 5 -1 -15 -23
-44 -47 -61 -159 -281 -190 -374 -12 -36 -22 -93 -23 -127 l-1 -61 66 -75
c197 -224 349 -550 349 -749 l0 -47 63 -28 c171 -78 402 -144 581 -166 140
-18 460 -8 601 19 395 74 665 211 926 471 325 324 513 815 478 1250 -18 223
-162 614 -283 768 -44 56 -146 146 -193 171 l-22 11 25 60 c40 100 27 138 -40
111 -17 -7 -36 -13 -43 -14 -7 0 -11 -4 -10 -8 1 -4 -50 -42 -113 -83 l-115
-75 -6 27 c-6 26 -6 26 -10 -8 -4 -32 -13 -40 -124 -111 -66 -42 -232 -145
-370 -229 -137 -84 -264 -166 -281 -182 -17 -16 -42 -52 -54 -79 -19 -39 -26
-46 -32 -34 -11 18 -1 38 14 29 7 -5 9 -1 5 9 -7 19 1 49 12 43 4 -3 6 7 6 22
-1 15 2 32 6 37 13 19 21 123 10 130 -12 7 -15 -11 -12 -66 2 -20 -2 -40 -8
-43 -5 -4 -8 -18 -5 -32 3 -14 1 -23 -5 -20 -5 3 -16 -18 -26 -47 -9 -28 -22
-58 -27 -64 -7 -9 -7 -18 2 -28 11 -13 15 -13 22 -3 14 20 -2 -32 -19 -62
l-14 -25 7 25 c4 14 3 22 -1 18 -5 -4 -13 -3 -20 2 -8 7 -15 2 -24 -16 -6 -14
-9 -30 -5 -35 3 -5 2 -9 -3 -8 -4 1 -11 0 -15 -1 -5 -1 -14 -3 -20 -4 -7 0
-13 -10 -13 -21 0 -11 -5 -19 -12 -18 -7 2 -10 -3 -7 -11 3 -7 -3 -19 -13 -27
-17 -13 -17 -13 -3 6 11 15 7 14 -13 -4 -22 -20 -25 -27 -15 -40 7 -9 9 -13 4
-9 -4 3 -19 0 -33 -7 -15 -8 -31 -11 -36 -8 -6 3 -7 1 -3 -6 4 -6 12 -8 18 -5
6 4 6 -2 -1 -15 -13 -23 -23 -29 -16 -8 3 7 -4 12 -18 12 -13 0 -24 -5 -24
-12 0 -7 4 -10 9 -7 4 3 8 1 8 -5 0 -5 -5 -11 -10 -13 -6 -2 0 -9 12 -17 21
-13 22 -13 10 1 -13 16 -5 18 61 19 12 0 17 5 13 14 -3 8 0 17 6 21 7 4 8 3 4
-4 -4 -7 -3 -12 1 -12 12 0 43 38 35 43 -4 2 -1 2 7 0 8 -2 11 2 8 11 -4 10
-1 13 7 10 8 -3 23 10 36 30 27 44 38 48 13 5 -10 -17 -43 -55 -74 -84 -67
-64 -139 -91 -215 -79 -32 4 -42 9 -33 16 9 6 5 7 -12 3 -18 -4 -42 1 -70 15
-49 25 -197 171 -249 248 l-35 50 -77 -39 c-100 -50 -311 -122 -463 -159 -326
-77 -564 -108 -855 -111 -126 0 -182 -5 -201 -15 -15 -7 -29 -11 -32 -8 -3 3
-16 1 -29 -5 -22 -11 -21 -10 2 6 121 87 261 307 311 490 65 236 -46 495 -259
606 -37 19 -82 38 -99 42 -28 6 -31 9 -23 25 18 33 12 79 -15 105 -32 33 -114
36 -145 5z m2593 -1053 c3 -8 -1 -14 -8 -14 -7 0 -11 6 -8 14 3 7 6 13 8 13 2
0 5 -6 8 -13z m-3696 -314 c-2 -16 -4 -3 -4 27 0 30 2 43 4 28 2 -16 2 -40 0
-55z m-20 -55 c-3 -7 -5 -2 -5 12 0 14 2 19 5 13 2 -7 2 -19 0 -25z m20 -10
c-3 -7 -5 -2 -5 12 0 14 2 19 5 13 2 -7 2 -19 0 -25z"/>
<path d="M7776 5099 c-23 -24 -36 -28 -76 -28 -40 1 -68 -9 -176 -64 -71 -36
-128 -70 -127 -76 2 -6 -5 -7 -14 -4 -12 5 -14 3 -8 -7 5 -9 4 -11 -3 -6 -16
10 -54 -12 -46 -26 4 -7 3 -8 -4 -4 -15 9 -54 -12 -47 -24 4 -6 -1 -7 -11 -3
-13 5 -15 3 -9 -7 5 -9 4 -11 -3 -6 -15 9 -123 -55 -115 -68 3 -5 1 -6 -5 -2
-16 10 -134 -52 -126 -66 4 -7 3 -8 -4 -4 -6 4 -28 -2 -48 -12 -27 -14 -38
-26 -40 -45 -3 -34 10 -34 43 1 15 15 23 21 18 13 -4 -8 15 -1 43 15 28 15 48
32 45 38 -3 5 -1 6 5 2 15 -9 145 68 134 79 -4 4 -1 5 5 1 16 -9 146 67 135
79 -4 4 -2 5 5 2 10 -6 163 68 163 79 0 3 -4 3 -9 0 -11 -7 -8 21 4 31 4 4 5
3 2 -4 -4 -6 -1 -13 5 -16 16 -5 59 13 53 23 -3 4 1 7 8 7 6 -1 33 9 58 21 25
12 60 22 77 24 17 1 28 6 26 10 -3 4 0 8 5 8 6 0 11 -4 11 -10 0 -5 5 -10 11
-10 5 0 7 4 4 10 -3 5 0 8 7 5 32 -10 123 -12 145 -2 33 15 29 25 -19 46 -73
31 -90 31 -122 0z m-310 -144 c-1 -8 -6 -18 -11 -22 -4 -4 -5 -2 -1 5 9 15 1
15 -25 2 -10 -6 -19 -8 -19 -6 0 4 47 33 57 36 1 0 0 -7 -1 -15z"/>
<path d="M4166 5112 c-5 -9 82 -62 102 -62 5 0 13 7 16 16 5 13 1 15 -18 12
-18 -4 -23 -1 -18 10 4 12 -1 14 -21 10 -15 -3 -25 -1 -24 5 3 14 -29 21 -37
9z"/>
<path d="M4018 5089 c-21 -23 -38 -25 -38 -4 0 17 -25 21 -35 5 -7 -12 64 -43
83 -35 8 3 12 11 9 19 -4 11 3 13 29 11 30 -3 33 -1 23 11 -16 19 -50 16 -71
-7z"/>
<path d="M3219 5062 c14 -11 38 -27 55 -37 l31 -17 -24 20 c-14 11 -38 27 -55
37 l-31 17 24 -20z"/>
<path d="M4175 5059 c-10 -15 1 -23 20 -15 9 3 13 10 10 16 -8 13 -22 13 -30
-1z"/>
<path d="M4292 5058 c-16 -16 -15 -28 2 -28 19 0 27 13 17 28 -5 9 -10 9 -19
0z"/>
<path d="M4040 5041 c-13 -26 -13 -28 6 -35 14 -5 15 -4 4 9 -10 13 -9 15 9
15 14 0 20 -4 15 -12 -5 -8 -2 -9 10 -5 10 4 23 7 29 7 7 0 -1 9 -18 20 -37
25 -42 25 -55 1z"/>
<path d="M4217 5043 c-14 -14 -6 -25 14 -20 14 4 19 2 16 -7 -3 -8 6 -20 21
-27 15 -8 33 -20 40 -26 16 -16 29 -16 37 -3 3 6 2 10 -3 10 -4 0 -17 8 -28
18 -23 20 -82 62 -87 62 -2 0 -7 -3 -10 -7z"/>
<path d="M3951 5029 c-18 -7 -22 -12 -13 -21 13 -13 62 4 62 22 0 12 -17 12
-49 -1z"/>
<path d="M4410 5015 c7 -9 15 -13 17 -11 7 7 -7 26 -19 26 -6 0 -6 -6 2 -15z"/>
<path d="M3981 5001 c-11 -7 -9 -11 8 -20 11 -7 21 -9 21 -6 0 3 10 -3 22 -15
27 -25 40 -25 61 -2 13 14 14 21 5 30 -17 17 -33 15 -19 -2 9 -11 5 -13 -19
-12 -19 1 -28 5 -26 13 8 19 -29 29 -53 14z"/>
<path d="M1370 4973 l-32 -29 61 -1 c33 -1 79 -7 101 -13 43 -12 60 -7 60 15
0 12 -76 35 -118 35 -10 0 -23 5 -29 11 -8 8 -20 3 -43 -18z"/>
<path d="M3360 4971 c14 -11 28 -21 32 -21 4 0 5 -6 2 -14 -3 -8 -1 -16 4 -20
5 -3 8 4 7 15 -1 12 -16 29 -36 41 l-34 20 25 -21z"/>
<path d="M4558 4971 c-16 -10 -25 -21 -20 -26 4 -4 1 -5 -5 -1 -16 9 -74 -24
-66 -37 3 -6 1 -7 -5 -3 -15 9 -93 -34 -85 -47 3 -6 1 -7 -5 -3 -19 11 -52
-12 -46 -32 5 -13 4 -14 -4 -3 -7 10 -14 11 -31 2 -12 -7 -18 -17 -15 -23 4
-6 3 -8 -4 -5 -13 9 -44 -2 -37 -13 3 -4 -1 -7 -8 -6 -15 1 -207 -106 -202
-114 2 -3 -4 -7 -13 -8 -9 -1 -34 -4 -54 -8 -31 -5 -49 0 -103 30 -37 20 -63
31 -59 25 5 -9 2 -10 -9 -6 -28 11 -19 2 31 -31 58 -38 94 -52 130 -52 27 0
291 138 332 172 11 10 20 15 20 13 0 -3 14 1 30 10 17 9 30 18 30 21 0 3 -5 2
-12 -2 -7 -4 -8 -3 -4 5 4 6 11 9 16 6 5 -3 53 20 107 51 112 65 141 84 128
84 -6 0 -3 5 5 10 13 9 13 10 0 9 -8 0 -27 -8 -42 -18z m-700 -311 c46 -29 52
-41 9 -19 -27 15 -72 49 -63 49 3 0 27 -13 54 -30z"/>
<path d="M1778 4973 c7 -3 16 -2 19 1 4 3 -2 6 -13 5 -11 0 -14 -3 -6 -6z"/>
<path d="M4147 4973 c-10 -10 -8 -25 2 -19 5 3 14 -1 21 -9 10 -12 16 -13 26
-4 11 9 11 15 3 25 -12 15 -41 19 -52 7z"/>
<path d="M4094 4939 c-12 -19 13 -34 33 -19 15 12 16 12 6 0 -10 -11 -7 -17
17 -32 36 -21 57 -23 63 -5 2 6 -18 24 -44 40 -53 30 -65 32 -75 16z"/>
<path d="M3502 4871 c-10 -6 -4 -14 25 -32 21 -12 49 -30 63 -38 23 -15 24
-15 11 2 -7 9 -10 17 -5 17 5 0 1 7 -9 15 -11 7 -25 11 -33 8 -17 -6 -46 15
-38 28 6 11 3 11 -14 0z m83 -49 c-3 -3 -11 0 -18 7 -9 10 -8 11 6 5 10 -3 15
-9 12 -12z"/>
<path d="M2440 4842 c0 -10 -3 -22 -7 -28 -5 -5 0 -1 10 9 19 21 22 37 7 37
-5 0 -10 -8 -10 -18z"/>
<path d="M2476 4841 c-8 -12 3 -41 15 -41 5 0 15 -11 21 -25 9 -21 8 -28 -7
-45 -10 -11 -24 -20 -31 -20 -29 0 -39 -79 -13 -96 5 -3 7 1 6 8 -2 7 -2 10 0
5 3 -4 8 -5 11 -3 4 2 8 -15 8 -39 3 -85 12 -85 106 -1 99 88 142 144 135 178
-4 21 -4 20 -6 -4 0 -16 -4 -28 -8 -28 -5 0 -35 16 -67 36 -60 36 -151 84
-160 84 -3 0 -7 -4 -10 -9z"/>
<path d="M3655 4785 c11 -9 20 -20 20 -25 0 -4 4 -12 9 -17 5 -5 6 -3 2 5 -9
15 -1 15 27 1 36 -19 5 6 -38 30 -22 13 -31 15 -20 6z"/>
<path d="M2170 4611 c5 -11 15 -23 21 -27 6 -3 3 5 -6 20 -20 30 -30 35 -15 7z"/>
<path d="M1062 4518 c-37 -100 -99 -316 -117 -413 -22 -116 -28 -252 -15 -360
48 -411 161 -674 407 -950 236 -264 570 -458 928 -541 326 -74 726 -55 1048
51 61 19 236 93 237 99 0 1 7 49 15 107 20 154 84 308 162 391 l26 27 -59 -18
c-32 -10 -76 -26 -97 -35 -47 -21 -72 -14 -88 24 -8 16 -16 27 -19 25 -17 -11
10 88 30 109 20 22 20 24 4 22 -11 -2 -19 -7 -20 -12 -2 -21 -17 -43 -25 -38
-5 3 -8 -3 -7 -13 0 -10 0 -29 0 -42 -2 -19 -5 -22 -14 -13 -8 8 -8 15 1 26 8
10 9 21 3 32 -8 15 -9 15 -15 0 -5 -11 -3 -15 4 -10 7 4 10 1 7 -7 -3 -8 -10
-13 -15 -12 -5 1 -9 -7 -9 -17 0 -10 4 -16 8 -14 4 3 5 -2 2 -11 -6 -14 -8
-14 -19 1 -8 12 -14 13 -19 6 -4 -6 -13 -9 -21 -5 -10 3 -15 -1 -16 -13 -1
-14 -3 -13 -9 6 -5 16 -8 19 -9 8 -1 -12 -12 -18 -38 -20 -25 -2 -38 -8 -38
-17 0 -15 -49 -34 -59 -23 -3 3 -6 1 -6 -4 0 -10 -11 -11 -117 -16 -39 -2 -69
-6 -66 -11 2 -4 -29 -6 -69 -5 -40 0 -89 -2 -108 -6 -26 -5 -31 -4 -20 3 12 8
6 11 -25 11 -45 0 -241 25 -267 34 -10 3 -26 9 -35 12 -16 6 -76 15 -110 17
-7 0 -13 4 -13 8 0 6 -22 17 -50 24 -26 7 -60 26 -60 34 0 6 -7 8 -15 5 -8 -4
-15 -2 -15 4 0 5 -14 12 -30 15 -17 4 -38 8 -48 11 -9 2 -21 5 -25 5 -5 1 -6
5 -3 9 3 5 -1 9 -9 9 -8 0 -12 -3 -10 -7 2 -4 -2 -7 -10 -7 -8 0 -12 4 -9 9 3
4 -3 8 -13 8 -10 0 -29 9 -42 19 -14 10 -31 16 -39 13 -8 -3 -20 1 -26 9 -6 8
-29 23 -51 34 -39 19 -86 55 -72 55 10 0 -36 44 -66 63 -15 10 -32 15 -37 12
-6 -3 -10 -1 -10 4 0 22 -3 26 -35 48 -18 12 -35 29 -38 38 -4 8 -13 15 -22
15 -8 0 -15 7 -15 15 0 8 -4 15 -10 15 -5 0 -10 7 -10 16 0 11 -6 14 -22 9
-17 -6 -20 -4 -15 9 4 9 2 15 -5 13 -6 -1 -13 4 -16 12 -3 9 0 11 8 6 8 -5 11
-3 8 6 -3 8 -11 13 -17 12 -6 -2 -11 4 -11 12 0 8 -6 15 -14 15 -8 0 -17 7
-20 16 -9 22 -8 26 6 18 7 -4 8 -3 4 4 -9 15 -43 16 -51 2 -3 -5 -11 -10 -17
-10 -6 0 -5 6 3 16 11 14 11 18 -4 29 -14 10 -15 14 -5 18 8 4 5 8 -9 12 -12
4 -24 18 -28 32 -5 20 -8 23 -20 13 -17 -14 -20 1 -4 17 13 13 3 36 -12 28 -5
-4 -9 -1 -9 5 0 6 -5 8 -11 4 -8 -5 -9 -2 -2 11 10 18 6 54 -6 57 -3 0 -18 2
-33 3 -21 2 -25 -1 -18 -10 5 -6 7 -15 3 -19 -4 -4 0 -4 9 -1 9 4 19 2 23 -4
9 -15 -28 -14 -43 1 -15 15 -43 -7 -35 -30 4 -15 3 -15 -6 -2 -9 13 -11 13
-11 0 0 -9 6 -22 13 -29 10 -11 8 -11 -10 -2 -27 14 -29 24 -8 41 9 7 13 15
10 18 -10 10 17 31 33 25 9 -3 14 -3 10 2 -11 12 11 35 28 28 8 -3 14 -1 12 5
-2 5 0 9 4 9 4 -1 15 8 24 21 9 13 21 21 28 19 7 -3 11 4 10 17 -2 36 -16 86
-25 92 -5 3 -9 16 -9 30 0 34 -17 31 -129 -26 -54 -27 -104 -50 -110 -50 -6 0
-16 10 -21 23 -13 31 -30 155 -30 217 0 44 4 56 29 79 16 15 65 41 108 58 l78
31 3 86 c1 47 -1 86 -6 86 -17 0 -125 -40 -138 -51 -7 -6 -17 -8 -23 -5 -5 3
-11 0 -14 -6 -3 -9 -8 -10 -16 -2 -20 18 -19 86 1 138 10 27 17 50 15 53 -2 2
-18 -34 -35 -79z m272 -777 c4 -5 -3 -7 -14 -4 -23 6 -26 13 -6 13 8 0 17 -4
20 -9z m-139 -61 c-3 -5 -2 -10 4 -10 5 0 9 -9 8 -20 -1 -18 -2 -18 -19 -3
-14 12 -15 19 -7 30 13 15 23 18 14 3z m-9 -52 c10 -12 13 -18 5 -13 -11 6
-13 3 -9 -13 4 -12 2 -20 -2 -17 -5 3 -10 0 -12 -5 -2 -6 -4 7 -4 30 -1 22 0
40 1 40 1 0 10 -10 21 -22z m839 -578 c3 -5 1 -10 -4 -10 -6 0 -11 5 -11 10 0
6 2 10 4 10 3 0 8 -4 11 -10z m1182 -226 c-3 -3 -12 -4 -19 -1 -8 3 -5 6 6 6
11 1 17 -2 13 -5z"/>
<path d="M7457 4523 c-19 -32 -46 -80 -60 -108 -18 -35 -40 -59 -74 -81 -73
-48 -119 -74 -124 -71 -2 2 16 -16 41 -40 25 -23 54 -42 66 -43 41 0 96 81
128 190 9 30 27 90 40 133 14 42 23 77 21 77 -2 0 -19 -26 -38 -57z"/>
<path d="M7762 4530 c0 -19 2 -27 5 -17 2 9 2 25 0 35 -3 9 -5 1 -5 -18z"/>
<path d="M7686 4325 c-9 -26 -7 -32 5 -12 6 10 9 21 6 23 -2 3 -7 -2 -11 -11z"/>
<path d="M7654 4193 c4 -8 2 -13 -4 -13 -18 0 -6 -23 13 -26 22 -3 22 20 0 37
-11 10 -14 10 -9 2z"/>
<path d="M7358 3913 c7 -3 16 -2 19 1 4 3 -2 6 -13 5 -11 0 -14 -3 -6 -6z"/>
<path d="M7263 3903 c15 -2 39 -2 55 0 15 2 2 4 -28 4 -30 0 -43 -2 -27 -4z"/>
<path d="M3120 3735 c-16 -19 -1 -39 52 -66 65 -33 106 11 55 59 -27 26 -88
30 -107 7z"/>
<path d="M5811 3604 c0 -11 3 -14 6 -6 3 7 2 16 -1 19 -3 4 -6 -2 -5 -13z"/>
<path d="M2443 3593 c-17 -6 -16 -38 1 -52 20 -17 75 -31 81 -21 3 5 -5 11
-17 13 -13 2 -8 3 10 1 26 -2 32 1 32 16 0 11 -8 23 -17 28 -24 12 -75 21 -90
15z"/>
<path d="M4301 3406 c-14 -28 -27 -54 -29 -58 -2 -4 5 -11 16 -17 14 -7 19 -7
19 4 0 8 -4 12 -8 9 -4 -2 -10 0 -14 6 -4 6 6 10 24 10 33 0 37 12 22 71 -6
25 -7 24 -30 -25z"/>
<path d="M4997 3402 c-10 -10 -17 -26 -17 -36 0 -29 20 -58 36 -52 8 3 13 2
10 -3 -3 -5 4 -11 17 -15 27 -7 71 23 75 52 5 30 -16 65 -34 58 -9 -3 -12 -1
-9 4 11 19 -61 11 -78 -8z m107 -20 c3 -5 -1 -9 -9 -9 -8 0 -12 4 -9 9 3 4 7
8 9 8 2 0 6 -4 9 -8z"/>
<path d="M3624 3355 c-3 -8 -4 -20 -2 -27 3 -7 7 -1 10 15 6 29 1 36 -8 12z"/>
<path d="M4342 3285 c0 -16 2 -22 5 -12 2 9 2 23 0 30 -3 6 -5 -1 -5 -18z"/>
<path d="M5790 3271 c0 -6 4 -13 10 -16 6 -3 7 1 4 9 -7 18 -14 21 -14 7z"/>
<path d="M5761 3254 c0 -11 3 -14 6 -6 3 7 2 16 -1 19 -3 4 -6 -2 -5 -13z"/>
<path d="M6248 3163 c7 -3 16 -2 19 1 4 3 -2 6 -13 5 -11 0 -14 -3 -6 -6z"/>
<path d="M4482 1790 c0 -14 2 -19 5 -12 2 6 2 18 0 25 -3 6 -5 1 -5 -13z"/>
<path d="M4461 1688 c-7 -40 -14 -113 -16 -163 -2 -49 -2 -74 1 -55 2 19 11
90 20 158 17 136 14 175 -5 60z"/>
<path d="M5206 1550 c3 -96 9 -191 13 -210 9 -40 3 140 -10 290 -6 73 -7 54
-3 -80z"/>
<path d="M5592 1660 c0 -14 2 -19 5 -12 2 6 2 18 0 25 -3 6 -5 1 -5 -13z"/>
</g>
</svg>
