<?xml version="1.0" encoding="UTF-8" standalone="no"?>
<!DOCTYPE svg PUBLIC "-//W3C//DTD SVG 1.1//EN" "http://www.w3.org/Graphics/SVG/1.1/DTD/svg11.dtd">
<svg xmlns="http://www.w3.org/2000/svg" version="1.1" viewBox="0.00 0.00 221.00 228.00">
<g stroke-width="2.00" fill="none" stroke-linecap="butt">
<path stroke="#8f8f8f" vector-effect="non-scaling-stroke" d="
  M 144.50 35.29
  L 135.00 35.04"
/>
<path stroke="#848384" vector-effect="non-scaling-stroke" d="
  M 135.00 35.04
  L 127.25 35.04"
/>
<path stroke="#8f8f8f" vector-effect="non-scaling-stroke" d="
  M 127.25 35.04
  L 119.09 34.98"
/>
<path stroke="#848384" vector-effect="non-scaling-stroke" d="
  M 119.09 34.98
  L 112.05 35.02
  Q 111.52 35.02 111.52 35.55
  L 111.50 40.05"
/>
<path stroke="#8f8f8f" vector-effect="non-scaling-stroke" d="
  M 111.50 40.05
  L 111.48 43.31
  Q 111.48 43.77 111.02 43.76
  L 103.38 43.53
  Q 102.71 43.51 102.72 44.18
  L 102.81 51.31
  Q 102.82 51.99 102.14 51.99
  L 95.00 52.00
  Q 94.50 52.00 94.50 52.50
  L 94.50 59.73
  Q 94.50 60.22 94.02 60.22
  L 86.78 60.33
  Q 86.22 60.34 86.22 60.90
  L 86.26 68.24
  Q 86.27 68.75 85.76 68.75
  L 61.25 68.75
  A 0.50 0.50 0.0 0 0 60.75 69.25
  L 60.75 76.50
  Q 60.75 77.00 60.25 77.00
  L 52.71 77.00
  A 0.76 0.76 0.0 0 0 51.95 77.79
  L 52.31 85.25
  Q 52.34 85.85 51.74 85.83
  L 45.14 85.53
  A 1.09 1.09 0.0 0 0 44.00 86.62
  L 44.00 93.50
  Q 44.00 94.00 43.50 94.00
  L 36.25 94.00
  A 0.50 0.50 0.0 0 0 35.75 94.50
  L 35.75 102.00
  Q 35.75 102.50 35.25 102.50
  L 27.62 102.50
  Q 27.05 102.50 27.05 103.07
  L 27.06 116.16
  Q 27.06 116.75 27.66 116.75
  L 35.25 116.75
  Q 35.75 116.75 35.75 117.25
  L 35.75 124.50
  Q 35.75 125.00 36.25 125.00
  L 43.50 125.00
  Q 44.00 125.00 44.00 125.50
  L 44.00 132.75
  Q 44.00 133.25 44.50 133.25
  L 52.16 133.25
  Q 52.56 133.25 52.55 133.65
  L 52.48 141.45
  A 0.54 0.54 0.0 0 0 53.02 142.00
  L 66.12 142.00
  Q 66.75 142.00 66.75 141.38
  L 66.75 133.75
  Q 66.75 133.25 67.25 133.25
  L 77.16 133.25
  Q 77.56 133.25 77.55 133.65
  L 77.48 141.36
  Q 77.47 142.00 78.11 142.00
  L 85.65 142.00
  Q 86.05 142.00 86.05 142.40
  L 86.12 152.56
  Q 86.12 153.00 85.69 153.00
  L 78.19 153.00
  Q 77.56 153.00 77.57 153.63
  L 77.71 166.62
  Q 77.72 167.27 78.37 167.26
  L 85.69 167.22
  Q 86.10 167.22 86.10 167.62
  L 86.21 175.26
  Q 86.22 175.80 86.76 175.79
  L 94.14 175.61
  Q 94.74 175.59 94.74 176.20
  L 94.75 183.50
  Q 94.75 184.00 95.25 184.00
  L 102.50 184.00
  Q 103.00 184.00 103.00 184.50
  L 103.00 192.14
  Q 103.00 192.79 103.64 192.78
  L 116.54 192.68
  Q 117.25 192.67 117.25 191.96
  L 117.25 184.50
  Q 117.25 184.00 117.75 184.00
  L 124.99 184.00
  Q 125.55 184.00 125.55 183.44
  L 125.52 176.28
  Q 125.52 175.58 126.22 175.57
  L 133.41 175.49
  Q 134.00 175.49 134.00 174.90
  L 134.00 167.58
  Q 134.00 167.16 134.42 167.17
  L 141.85 167.28
  Q 142.48 167.29 142.47 166.65
  L 142.35 159.20
  Q 142.34 158.75 142.79 158.75
  L 150.25 158.75
  Q 151.00 158.75 151.00 158.00
  L 151.00 134.00
  Q 151.00 133.25 151.75 133.25
  L 158.75 133.25
  Q 159.25 133.25 159.25 132.75
  L 159.25 125.50
  Q 159.25 125.00 159.75 125.00
  L 167.20 125.00
  A 0.73 0.72 0.4 0 0 167.93 124.29
  L 168.04 116.50"
/>
<path stroke="#848384" vector-effect="non-scaling-stroke" d="
  M 168.04 116.50
  Q 171.34 116.02 174.73 116.61
  A 1.09 1.09 0.0 0 0 176.00 115.54
  L 176.00 108.50
  Q 176.00 108.00 176.50 108.00
  L 183.75 108.00
  A 0.49 0.49 0.0 0 0 184.24 107.51
  L 184.21 87.00"
/>
<path stroke="#8f8f8f" vector-effect="non-scaling-stroke" d="
  M 184.21 87.00
  L 184.25 74.75
  Q 184.26 74.25 184.76 74.25
  L 192.50 74.25
  Q 193.00 74.25 193.00 73.75
  L 193.00 66.00
  Q 193.00 65.50 193.50 65.50
  L 200.75 65.50
  Q 201.25 65.50 201.25 65.00
  L 201.25 57.75
  Q 201.25 57.25 201.75 57.25
  L 209.22 57.26
  Q 209.70 57.26 209.70 56.78
  L 209.71 44.50"
/>
<path stroke="#848384" vector-effect="non-scaling-stroke" d="
  M 209.71 44.50
  L 209.72 10.24
  Q 209.72 9.75 209.23 9.75
  L 162.50 9.75
  Q 161.75 9.75 161.75 10.50
  L 161.75 18.00
  Q 161.75 18.50 161.25 18.50
  L 153.50 18.50
  Q 153.00 18.50 153.00 19.00
  L 153.00 26.42
  Q 153.00 26.84 152.58 26.83
  L 145.31 26.71
  Q 144.73 26.70 144.72 27.28
  L 144.50 35.29"
/>
<path stroke="#141314" vector-effect="non-scaling-stroke" d="
  M 209.71 44.50
  Q 209.08 44.80 208.64 45.30
  Q 208.36 45.63 207.94 45.48
  Q 207.28 45.25 206.79 44.75"
/>
<path stroke="#7d6515" vector-effect="non-scaling-stroke" d="
  M 206.79 44.75
  L 206.89 12.93
  Q 206.89 12.50 206.46 12.50
  L 165.66 12.50
  Q 165.01 12.50 165.01 13.15
  L 165.00 20.27
  Q 165.00 20.79 164.48 20.79
  L 156.79 20.67
  Q 156.25 20.66 156.25 21.21
  L 156.25 28.76
  Q 156.25 29.31 155.70 29.29
  L 148.25 29.04"
/>
<path stroke="#141314" vector-effect="non-scaling-stroke" d="
  M 148.25 29.04
  Q 147.49 28.14 146.59 28.59
  Q 146.07 28.85 146.16 29.42
  Q 146.76 33.12 145.72 36.70
  Q 145.56 37.25 144.98 37.25
  L 143.51 37.25
  Q 142.52 37.25 142.95 36.36
  Q 143.41 35.42 144.50 35.29"
/>
<path stroke="#141314" vector-effect="non-scaling-stroke" d="
  M 184.21 87.00
  L 183.02 87.86
  Q 182.75 88.06 182.75 87.72
  Q 182.75 87.59 182.75 87.45
  Q 182.76 86.61 182.49 87.41
  Q 181.89 89.14 181.79 91.00"
/>
<path stroke="#82443b" vector-effect="non-scaling-stroke" d="
  M 181.79 91.00
  L 181.44 83.08
  Q 181.41 82.50 180.82 82.50
  L 176.75 82.50
  Q 176.00 82.50 176.00 83.25
  L 176.00 90.15
  Q 176.00 91.05 175.10 91.03
  L 168.57 90.92
  A 0.57 0.56 -89.5 0 0 168.00 91.49
  L 168.00 98.88
  Q 168.00 99.50 167.37 99.50
  L 160.29 99.49
  Q 159.25 99.49 159.25 100.53
  L 159.25 107.50
  Q 159.25 108.00 158.75 108.00
  L 151.50 108.00
  Q 151.00 108.00 151.00 108.50
  L 151.00 115.72
  A 0.55 0.55 0.0 0 1 150.46 116.27
  L 142.78 116.46
  Q 142.29 116.47 142.30 116.96
  L 142.44 124.53
  Q 142.45 125.00 141.97 125.00
  L 134.50 125.00
  Q 134.00 125.00 134.00 125.50
  L 134.00 132.62
  A 0.63 0.63 0.0 0 1 133.37 133.25
  L 126.17 133.25
  Q 125.60 133.25 125.62 133.82
  L 125.80 141.34
  Q 125.82 142.00 125.16 142.00
  L 117.82 142.00
  Q 117.22 142.00 117.22 142.61
  L 117.26 149.62
  Q 117.27 150.25 116.63 150.25
  L 108.95 150.25
  Q 108.40 150.25 108.43 150.80
  L 108.76 158.23
  Q 108.78 158.75 108.27 158.75
  L 95.50 158.75
  Q 94.75 158.75 94.75 158.00
  L 94.75 150.88
  Q 94.75 150.25 94.12 150.25
  L 89.75 150.25
  Q 89.00 150.25 89.00 151.00
  L 89.00 155.25
  Q 89.00 156.00 88.25 156.00
  L 80.75 156.00
  Q 80.25 156.00 80.25 156.50
  L 80.25 164.03
  Q 80.25 164.56 80.78 164.57
  L 88.34 164.68
  Q 88.75 164.68 88.75 165.09
  L 88.75 172.50
  Q 88.75 173.00 89.25 173.00
  L 96.75 173.00
  Q 97.25 173.00 97.25 173.50
  L 97.25 180.75
  Q 97.25 181.25 97.75 181.25
  L 104.98 181.25
  Q 105.46 181.25 105.47 181.73
  L 105.57 189.27
  Q 105.58 189.71 106.02 189.71
  L 113.42 189.83
  A 0.74 0.74 0.0 0 0 114.17 189.09
  L 114.19 181.91
  Q 114.19 181.25 114.84 181.25
  L 122.25 181.25
  Q 122.75 181.25 122.75 180.75
  L 122.75 173.50
  Q 122.75 173.00 123.25 173.00
  L 130.67 173.00
  Q 131.09 173.00 131.08 172.58
  L 130.97 165.39
  Q 130.95 164.48 131.86 164.49
  L 139.11 164.60
  A 0.76 0.76 0.0 0 0 139.88 163.82
  L 139.70 156.66
  Q 139.69 156.01 140.34 156.00
  L 147.10 155.99
  Q 147.75 155.99 147.75 155.34
  L 147.75 130.93
  Q 147.75 130.35 148.33 130.39
  L 155.56 130.84
  A 0.65 0.64 1.7 0 0 156.25 130.20
  L 156.25 122.75
  Q 156.25 122.25 156.75 122.25
  L 164.44 122.25
  Q 164.87 122.25 164.86 121.82
  L 164.70 114.54
  Q 164.69 114.01 165.23 114.01
  L 167.25 114.04"
/>
<path stroke="#141314" vector-effect="non-scaling-stroke" d="
  M 167.25 114.04
  Q 166.42 115.49 168.04 116.50"
/>
<path stroke="#141314" vector-effect="non-scaling-stroke" d="
  M 111.50 40.05
  Q 115.13 41.47 113.43 37.13
  Q 113.20 36.55 113.83 36.52
  Q 114.63 36.48 114.75 37.42"
/>
<path stroke="#82443b" vector-effect="non-scaling-stroke" d="
  M 114.75 37.42
  Q 113.89 41.29 114.41 45.29
  Q 114.50 46.00 113.78 46.00
  L 106.25 46.00
  Q 105.75 46.00 105.75 46.50
  L 105.75 54.02
  Q 105.75 54.54 105.23 54.54
  L 97.70 54.59
  Q 97.25 54.60 97.25 55.05
  L 97.25 62.50
  Q 97.25 63.00 96.75 63.00
  L 89.50 63.00
  Q 89.00 63.00 89.00 63.50
  L 89.00 70.75
  Q 89.00 71.25 88.50 71.25
  L 64.03 71.25
  Q 63.49 71.25 63.49 71.78
  L 63.50 79.27
  Q 63.50 79.80 62.98 79.79
  L 55.92 79.66
  Q 55.00 79.65 55.00 80.57
  L 55.00 87.37
  Q 55.00 88.00 54.38 88.00
  L 47.00 88.00
  Q 46.50 88.00 46.50 88.50
  L 46.50 96.25
  Q 46.50 96.75 46.00 96.75
  L 38.48 96.75
  Q 37.95 96.75 37.96 97.27
  L 38.08 104.46
  Q 38.09 105.00 37.55 105.00
  L 30.00 105.00
  Q 29.50 105.00 29.50 105.50
  L 29.50 113.25
  Q 29.50 113.75 30.00 113.75
  L 37.69 113.75
  Q 38.11 113.75 38.11 114.18
  L 37.95 121.74
  Q 37.94 122.28 38.49 122.28
  L 45.18 122.19
  Q 46.43 122.18 46.43 123.43
  L 46.39 129.96
  Q 46.38 130.61 47.03 130.62
  L 54.46 130.69
  Q 54.98 130.70 54.97 131.21
  L 54.86 138.43
  Q 54.85 139.00 55.43 139.00
  L 63.12 139.00
  Q 63.80 139.00 63.79 138.32
  L 63.64 131.03
  A 0.57 0.57 0.0 0 1 64.24 130.45
  L 68.48 130.65
  Q 69.06 130.68 69.06 130.09
  L 69.07 125.56
  Q 69.07 125.00 68.50 125.00
  L 61.50 125.00
  Q 60.75 125.00 60.75 124.25
  L 60.75 111.50
  Q 60.75 111.00 61.25 111.00
  L 68.61 111.00
  Q 69.28 111.00 69.27 110.33
  L 69.18 103.13
  Q 69.17 102.50 69.80 102.50
  L 77.12 102.50
  Q 77.80 102.50 77.79 101.82
  L 77.64 94.68
  Q 77.63 94.00 78.31 94.00
  L 85.78 94.00
  Q 86.31 94.00 86.30 93.47
  L 86.13 85.97
  A 0.46 0.46 0.0 0 1 86.59 85.50
  L 93.84 85.50
  Q 94.50 85.50 94.50 84.85
  L 94.50 78.28
  Q 94.50 77.00 95.78 77.00
  L 102.26 77.00
  Q 102.83 77.00 102.82 76.43
  L 102.72 69.27
  Q 102.71 68.75 103.23 68.75
  L 111.00 68.75
  Q 111.50 68.75 111.50 68.25
  L 111.49 61.02
  Q 111.49 60.47 112.04 60.47
  L 118.97 60.56
  A 0.77 0.77 0.0 0 0 119.75 59.79
  L 119.75 52.73
  Q 119.75 52.14 120.33 52.15
  L 127.72 52.29
  Q 128.25 52.30 128.25 51.78
  L 128.25 44.22
  Q 128.25 43.69 128.78 43.70
  L 136.34 43.86
  Q 136.79 43.87 136.81 43.41
  L 137.05 38.05
  Q 137.08 37.50 136.52 37.50
  L 117.50 37.46"
/>
<path stroke="#141314" vector-effect="non-scaling-stroke" d="
  M 117.50 37.46
  Q 121.86 37.38 119.09 34.98"
/>
<path stroke="#141314" vector-effect="non-scaling-stroke" d="
  M 127.25 35.04
  Q 126.12 35.27 126.24 36.28
  Q 126.30 36.85 126.85 36.98
  Q 129.65 37.68 132.40 36.94
  Q 132.86 36.82 133.35 36.80
  L 135.96 36.69
  Q 136.68 36.66 136.34 36.02
  Q 135.88 35.15 135.00 35.04"
/>
<path stroke="#887120" vector-effect="non-scaling-stroke" d="
  M 206.79 44.75
  L 206.76 54.50
  A 0.50 0.50 0.0 0 1 206.26 55.00
  L 199.07 55.00
  Q 198.47 55.00 198.47 55.61
  L 198.51 62.49
  Q 198.52 63.00 198.01 63.00
  L 190.52 63.00
  Q 190.03 63.00 190.03 63.48
  L 189.88 71.02
  A 0.57 0.57 0.0 0 1 189.30 71.58
  L 181.97 71.46
  Q 181.13 71.45 181.18 72.28
  L 181.53 78.57
  Q 181.61 80.00 180.18 80.00
  L 173.50 80.00
  Q 173.00 80.00 173.00 80.50
  L 173.00 88.00
  A 0.50 0.50 0.0 0 1 172.50 88.50
  L 165.07 88.50
  Q 164.64 88.50 164.65 88.93
  L 164.79 96.32
  Q 164.80 97.00 164.12 97.00
  L 156.50 97.00
  Q 156.00 97.00 156.00 97.50
  L 156.00 104.78
  Q 156.00 105.56 155.22 105.55
  L 147.93 105.39
  Q 147.50 105.38 147.50 105.81
  L 147.50 113.50
  Q 147.50 114.00 147.00 114.00
  L 140.25 114.00
  Q 139.75 114.00 139.75 114.50
  L 139.75 121.55
  Q 139.75 122.36 138.94 122.32
  L 131.52 121.98
  Q 131.00 121.95 131.00 122.48
  L 131.00 130.15
  Q 131.00 130.80 130.35 130.78
  L 123.17 130.67
  Q 122.75 130.66 122.75 131.08
  L 122.75 138.50
  Q 122.75 139.00 122.25 139.00
  L 115.12 139.00
  A 0.87 0.87 0.0 0 0 114.25 139.88
  L 114.34 146.93
  Q 114.35 147.51 113.76 147.51
  L 106.25 147.50
  Q 105.75 147.50 105.75 148.00
  L 105.75 155.50
  Q 105.75 156.00 105.25 156.00
  L 97.75 156.00
  Q 97.25 156.00 97.25 155.50
  L 97.25 148.00
  A 0.50 0.50 0.0 0 0 96.75 147.50
  L 89.25 147.50
  Q 88.75 147.50 88.75 147.00
  L 88.75 139.50
  A 0.50 0.50 0.0 0 0 88.25 139.00
  L 80.65 139.00
  Q 80.24 139.00 80.24 138.59
  L 80.25 131.30
  Q 80.25 130.78 79.74 130.77
  L 72.69 130.65
  Q 72.00 130.64 72.00 129.94
  L 72.00 123.35
  Q 72.00 121.94 70.60 121.97
  L 64.14 122.08
  Q 63.50 122.09 63.50 121.45
  L 63.50 114.23
  Q 63.50 113.46 64.27 113.47
  L 71.43 113.57
  A 0.56 0.56 0.0 0 0 72.00 113.01
  L 72.00 105.50
  Q 72.00 105.00 72.50 105.00
  L 79.76 105.00
  Q 80.33 105.00 80.32 104.43
  L 80.22 97.27
  Q 80.21 96.75 80.73 96.75
  L 88.50 96.75
  Q 89.00 96.75 89.00 96.25
  L 89.00 88.46
  Q 89.00 87.92 89.54 87.95
  L 96.37 88.29
  A 0.94 0.94 0.0 0 0 97.36 87.32
  L 97.20 80.28
  Q 97.19 79.75 97.72 79.75
  L 105.25 79.75
  Q 105.75 79.75 105.75 79.25
  L 105.75 71.75
  Q 105.75 71.25 106.25 71.25
  L 113.75 71.25
  Q 114.25 71.25 114.25 70.75
  L 114.25 63.50
  Q 114.25 63.00 114.75 63.00
  L 122.25 63.00
  A 0.50 0.50 0.0 0 0 122.75 62.50
  L 122.75 55.00
  Q 122.75 54.50 123.25 54.50
  L 130.76 54.50
  A 0.50 0.50 0.0 0 0 131.26 53.99
  L 131.22 46.61
  Q 131.22 46.00 131.83 46.00
  L 139.00 46.00
  Q 139.50 46.00 139.50 45.50
  L 139.50 38.00
  Q 139.50 37.50 140.00 37.50
  L 147.49 37.50
  Q 148.02 37.50 148.03 36.97
  L 148.25 29.04"
/>
<path stroke="#773930" vector-effect="non-scaling-stroke" d="
  M 117.50 37.46
  L 114.75 37.42"
/>
<path stroke="#773930" vector-effect="non-scaling-stroke" d="
  M 181.79 91.00
  L 181.88 105.09
  Q 181.88 105.51 181.46 105.51
  L 173.68 105.50
  Q 173.05 105.50 173.06 106.13
  L 173.18 113.54
  Q 173.19 113.98 172.75 113.99
  L 167.25 114.04"
/>
<path stroke="#8f8f8f" vector-effect="non-scaling-stroke" d="
  M 32.99 127.75
  A 0.49 0.49 0.0 0 1 32.50 127.26
  L 32.50 119.70
  A 0.49 0.49 0.0 0 0 32.01 119.21
  L 18.49 119.34
  A 0.49 0.49 0.0 0 0 18.00 119.83
  L 18.00 135.76
  A 0.49 0.49 0.0 0 1 17.51 136.25
  L 10.38 136.25
  A 0.49 0.49 0.0 0 0 9.89 136.74
  L 9.81 158.36
  A 0.49 0.49 0.0 0 0 10.31 158.85
  L 23.49 158.71
  A 0.49 0.49 0.0 0 0 23.98 158.22
  L 24.05 150.73
  A 0.49 0.49 0.0 0 1 24.54 150.25
  L 32.01 150.25
  A 0.49 0.49 0.0 0 0 32.50 149.76
  L 32.50 142.49
  A 0.49 0.49 0.0 0 1 32.99 142.00
  L 40.51 142.00
  A 0.49 0.49 0.0 0 0 41.00 141.51
  L 41.00 128.24
  A 0.49 0.49 0.0 0 0 40.51 127.75
  L 32.99 127.75"
/>
<path stroke="#8f8f8f" vector-effect="non-scaling-stroke" d="
  M 58.64 152.56
  A 0.39 0.39 0.0 0 1 58.25 152.17
  L 58.25 144.89
  A 0.39 0.39 0.0 0 0 57.86 144.50
  L 44.39 144.50
  A 0.39 0.39 0.0 0 0 44.00 144.89
  L 44.00 161.11
  A 0.39 0.39 0.0 0 1 43.61 161.50
  L 36.14 161.50
  A 0.39 0.39 0.0 0 0 35.75 161.89
  L 35.75 177.86
  A 0.39 0.39 0.0 0 1 35.36 178.25
  L 27.46 178.25
  A 0.39 0.39 0.0 0 0 27.07 178.64
  L 27.24 208.86
  A 0.39 0.39 0.0 0 0 27.63 209.25
  L 40.86 209.25
  A 0.39 0.39 0.0 0 0 41.25 208.86
  L 41.25 200.79
  A 0.39 0.39 0.0 0 1 41.65 200.40
  L 49.35 200.55
  A 0.39 0.39 0.0 0 0 49.75 200.16
  L 49.75 192.63
  A 0.39 0.39 0.0 0 1 50.14 192.24
  L 57.89 192.26
  A 0.39 0.39 0.0 0 0 58.28 191.87
  L 58.20 183.89
  A 0.39 0.39 0.0 0 1 58.59 183.50
  L 66.36 183.50
  A 0.39 0.39 0.0 0 0 66.75 183.11
  L 66.76 175.34
  A 0.39 0.39 0.0 0 1 67.16 174.95
  L 74.85 175.12
  A 0.39 0.39 0.0 0 0 75.25 174.73
  L 75.25 161.39
  A 0.39 0.39 0.0 0 0 74.86 161.00
  L 67.14 161.00
  A 0.39 0.39 0.0 0 1 66.75 160.61
  L 66.75 152.86
  A 0.39 0.39 0.0 0 0 66.36 152.47
  L 58.64 152.56"
/>
<path stroke="#8f8f8f" vector-effect="non-scaling-stroke" d="
  M 92.42 186.50
  A 0.54 0.54 0.0 0 1 91.88 185.96
  L 91.91 178.54
  A 0.54 0.54 0.0 0 0 91.37 178.00
  L 78.10 178.00
  A 0.54 0.54 0.0 0 0 77.56 178.55
  L 77.83 194.45
  A 0.54 0.54 0.0 0 1 77.29 195.00
  L 69.54 195.00
  A 0.54 0.54 0.0 0 0 69.00 195.54
  L 69.12 216.96
  A 0.54 0.54 0.0 0 0 69.66 217.50
  L 82.71 217.50
  A 0.54 0.54 0.0 0 0 83.25 216.96
  L 83.25 209.54
  A 0.54 0.54 0.0 0 1 83.79 209.00
  L 91.21 209.00
  A 0.54 0.54 0.0 0 0 91.75 208.46
  L 91.75 200.75
  A 0.54 0.54 0.0 0 1 92.32 200.21
  L 99.68 200.58
  A 0.54 0.54 0.0 0 0 100.25 200.04
  L 100.25 187.04
  A 0.54 0.54 0.0 0 0 99.71 186.50
  L 92.42 186.50"
/>
<path stroke="#141314" vector-effect="non-scaling-stroke" d="
  M 154.64 19.87
  C 154.31 21.81 155.01 25.77 154.04 27.12
  Q 153.86 27.38 154.16 27.47
  Q 154.31 27.51 154.45 27.57
  Q 154.93 27.78 154.96 27.25
  Q 155.12 23.58 155.01 19.89
  Q 154.95 17.99 154.64 19.87"
/>
<path stroke="#887120" vector-effect="non-scaling-stroke" d="
  M 184.7666 35.3173
  A 0.29 0.29 0.0 0 0 184.4771 35.0268
  L 153.8171 34.9733
  A 0.29 0.29 0.0 0 0 153.5266 35.2628
  L 153.4734 65.7627
  A 0.29 0.29 0.0 0 0 153.7629 66.0532
  L 184.4229 66.1067
  A 0.29 0.29 0.0 0 0 184.7134 65.8172
  L 184.7666 35.3173"
/>
<path stroke="#82443b" vector-effect="non-scaling-stroke" d="
  M 181.9781 38.0275
  A 0.31 0.31 0.0 0 0 181.6676 37.7181
  L 156.5276 37.7620
  A 0.31 0.31 0.0 0 0 156.2182 38.0725
  L 156.2619 63.1125
  A 0.31 0.31 0.0 0 0 156.5724 63.4219
  L 181.7124 63.3780
  A 0.31 0.31 0.0 0 0 182.0218 63.0675
  L 181.9781 38.0275"
/>
<path stroke="#887120" vector-effect="non-scaling-stroke" d="
  M 21.09 138.37
  A 0.63 0.63 0.0 0 1 20.46 139.00
  L 13.55 139.00
  A 0.63 0.63 0.0 0 0 12.92 139.63
  L 12.82 155.37
  A 0.63 0.63 0.0 0 0 13.45 156.00
  L 20.22 156.00
  A 0.63 0.63 0.0 0 0 20.85 155.36
  L 20.70 148.07
  A 0.63 0.63 0.0 0 1 21.33 147.43
  L 28.87 147.38
  A 0.63 0.63 0.0 0 0 29.50 146.75
  L 29.50 139.63
  A 0.63 0.63 0.0 0 1 30.13 139.00
  L 37.37 139.00
  A 0.63 0.63 0.0 0 0 38.00 138.37
  L 38.00 131.10
  A 0.63 0.63 0.0 0 0 37.37 130.47
  L 30.30 130.52
  A 0.63 0.63 0.0 0 1 29.67 129.89
  L 29.67 122.63
  A 0.63 0.63 0.0 0 0 29.04 122.00
  L 21.59 122.00
  A 0.63 0.63 0.0 0 0 20.96 122.63
  L 21.09 138.37"
/>
<path stroke="#887120" vector-effect="non-scaling-stroke" d="
  M 63.75 173.00
  A 0.31 0.31 0.0 0 1 64.06 172.69
  L 71.94 172.78
  A 0.31 0.31 0.0 0 0 72.25 172.47
  L 72.25 164.56
  A 0.31 0.31 0.0 0 0 71.94 164.25
  L 64.06 164.25
  A 0.31 0.31 0.0 0 1 63.75 163.94
  L 63.75 155.77
  A 0.31 0.31 0.0 0 0 63.43 155.46
  L 55.57 155.58
  A 0.31 0.31 0.0 0 1 55.25 155.27
  L 55.25 147.56
  A 0.31 0.31 0.0 0 0 54.94 147.25
  L 47.06 147.25
  A 0.31 0.31 0.0 0 0 46.75 147.56
  L 46.75 163.94
  A 0.31 0.31 0.0 0 1 46.44 164.25
  L 38.56 164.25
  A 0.31 0.31 0.0 0 0 38.25 164.56
  L 38.25 180.69
  A 0.31 0.31 0.0 0 1 37.94 181.00
  L 30.08 181.00
  A 0.31 0.31 0.0 0 0 29.77 181.31
  L 29.70 206.20
  A 0.31 0.31 0.0 0 0 30.02 206.51
  L 38.26 206.28
  A 0.31 0.31 0.0 0 0 38.56 205.96
  L 38.38 198.27
  A 0.31 0.31 0.0 0 1 38.70 197.95
  L 46.43 198.13
  A 0.31 0.31 0.0 0 0 46.75 197.82
  L 46.75 190.06
  A 0.31 0.31 0.0 0 1 47.06 189.75
  L 54.94 189.75
  A 0.31 0.31 0.0 0 0 55.25 189.44
  L 55.25 181.31
  A 0.31 0.31 0.0 0 1 55.56 181.00
  L 63.44 181.00
  A 0.31 0.31 0.0 0 0 63.75 180.69
  L 63.75 173.00"
/>
<path stroke="#887120" vector-effect="non-scaling-stroke" d="
  M 89.39 189.26
  A 0.39 0.39 0.0 0 1 89.00 188.87
  L 89.00 180.83
  A 0.39 0.39 0.0 0 0 88.60 180.44
  L 80.63 180.65
  A 0.39 0.39 0.0 0 0 80.25 181.04
  L 80.25 197.11
  A 0.39 0.39 0.0 0 1 79.86 197.50
  L 72.39 197.50
  A 0.39 0.39 0.0 0 0 72.00 197.89
  L 72.00 214.38
  A 0.39 0.39 0.0 0 0 72.37 214.77
  L 80.09 215.07
  A 0.39 0.39 0.0 0 0 80.50 214.68
  L 80.50 206.59
  A 0.39 0.39 0.0 0 1 80.91 206.20
  L 88.59 206.56
  A 0.39 0.39 0.0 0 0 89.00 206.17
  L 89.00 198.39
  A 0.39 0.39 0.0 0 1 89.39 198.00
  L 97.13 198.00
  A 0.39 0.39 0.0 0 0 97.52 197.61
  L 97.47 189.71
  A 0.39 0.39 0.0 0 0 97.09 189.33
  L 89.39 189.26"
/>
</g>
<path fill="#ffffff" d="
  M 0.00 0.00
  L 221.00 0.00
  L 221.00 228.00
  L 0.00 228.00
  L 0.00 0.00
  Z
  M 144.50 35.29
  L 135.00 35.04
  L 127.25 35.04
  L 119.09 34.98
  L 112.05 35.02
  Q 111.52 35.02 111.52 35.55
  L 111.50 40.05
  L 111.48 43.31
  Q 111.48 43.77 111.02 43.76
  L 103.38 43.53
  Q 102.71 43.51 102.72 44.18
  L 102.81 51.31
  Q 102.82 51.99 102.14 51.99
  L 95.00 52.00
  Q 94.50 52.00 94.50 52.50
  L 94.50 59.73
  Q 94.50 60.22 94.02 60.22
  L 86.78 60.33
  Q 86.22 60.34 86.22 60.90
  L 86.26 68.24
  Q 86.27 68.75 85.76 68.75
  L 61.25 68.75
  A 0.50 0.50 0.0 0 0 60.75 69.25
  L 60.75 76.50
  Q 60.75 77.00 60.25 77.00
  L 52.71 77.00
  A 0.76 0.76 0.0 0 0 51.95 77.79
  L 52.31 85.25
  Q 52.34 85.85 51.74 85.83
  L 45.14 85.53
  A 1.09 1.09 0.0 0 0 44.00 86.62
  L 44.00 93.50
  Q 44.00 94.00 43.50 94.00
  L 36.25 94.00
  A 0.50 0.50 0.0 0 0 35.75 94.50
  L 35.75 102.00
  Q 35.75 102.50 35.25 102.50
  L 27.62 102.50
  Q 27.05 102.50 27.05 103.07
  L 27.06 116.16
  Q 27.06 116.75 27.66 116.75
  L 35.25 116.75
  Q 35.75 116.75 35.75 117.25
  L 35.75 124.50
  Q 35.75 125.00 36.25 125.00
  L 43.50 125.00
  Q 44.00 125.00 44.00 125.50
  L 44.00 132.75
  Q 44.00 133.25 44.50 133.25
  L 52.16 133.25
  Q 52.56 133.25 52.55 133.65
  L 52.48 141.45
  A 0.54 0.54 0.0 0 0 53.02 142.00
  L 66.12 142.00
  Q 66.75 142.00 66.75 141.38
  L 66.75 133.75
  Q 66.75 133.25 67.25 133.25
  L 77.16 133.25
  Q 77.56 133.25 77.55 133.65
  L 77.48 141.36
  Q 77.47 142.00 78.11 142.00
  L 85.65 142.00
  Q 86.05 142.00 86.05 142.40
  L 86.12 152.56
  Q 86.12 153.00 85.69 153.00
  L 78.19 153.00
  Q 77.56 153.00 77.57 153.63
  L 77.71 166.62
  Q 77.72 167.27 78.37 167.26
  L 85.69 167.22
  Q 86.10 167.22 86.10 167.62
  L 86.21 175.26
  Q 86.22 175.80 86.76 175.79
  L 94.14 175.61
  Q 94.74 175.59 94.74 176.20
  L 94.75 183.50
  Q 94.75 184.00 95.25 184.00
  L 102.50 184.00
  Q 103.00 184.00 103.00 184.50
  L 103.00 192.14
  Q 103.00 192.79 103.64 192.78
  L 116.54 192.68
  Q 117.25 192.67 117.25 191.96
  L 117.25 184.50
  Q 117.25 184.00 117.75 184.00
  L 124.99 184.00
  Q 125.55 184.00 125.55 183.44
  L 125.52 176.28
  Q 125.52 175.58 126.22 175.57
  L 133.41 175.49
  Q 134.00 175.49 134.00 174.90
  L 134.00 167.58
  Q 134.00 167.16 134.42 167.17
  L 141.85 167.28
  Q 142.48 167.29 142.47 166.65
  L 142.35 159.20
  Q 142.34 158.75 142.79 158.75
  L 150.25 158.75
  Q 151.00 158.75 151.00 158.00
  L 151.00 134.00
  Q 151.00 133.25 151.75 133.25
  L 158.75 133.25
  Q 159.25 133.25 159.25 132.75
  L 159.25 125.50
  Q 159.25 125.00 159.75 125.00
  L 167.20 125.00
  A 0.73 0.72 0.4 0 0 167.93 124.29
  L 168.04 116.50
  Q 171.34 116.02 174.73 116.61
  A 1.09 1.09 0.0 0 0 176.00 115.54
  L 176.00 108.50
  Q 176.00 108.00 176.50 108.00
  L 183.75 108.00
  A 0.49 0.49 0.0 0 0 184.24 107.51
  L 184.21 87.00
  L 184.25 74.75
  Q 184.26 74.25 184.76 74.25
  L 192.50 74.25
  Q 193.00 74.25 193.00 73.75
  L 193.00 66.00
  Q 193.00 65.50 193.50 65.50
  L 200.75 65.50
  Q 201.25 65.50 201.25 65.00
  L 201.25 57.75
  Q 201.25 57.25 201.75 57.25
  L 209.22 57.26
  Q 209.70 57.26 209.70 56.78
  L 209.71 44.50
  L 209.72 10.24
  Q 209.72 9.75 209.23 9.75
  L 162.50 9.75
  Q 161.75 9.75 161.75 10.50
  L 161.75 18.00
  Q 161.75 18.50 161.25 18.50
  L 153.50 18.50
  Q 153.00 18.50 153.00 19.00
  L 153.00 26.42
  Q 153.00 26.84 152.58 26.83
  L 145.31 26.71
  Q 144.73 26.70 144.72 27.28
  L 144.50 35.29
  Z
  M 32.99 127.75
  A 0.49 0.49 0.0 0 1 32.50 127.26
  L 32.50 119.70
  A 0.49 0.49 0.0 0 0 32.01 119.21
  L 18.49 119.34
  A 0.49 0.49 0.0 0 0 18.00 119.83
  L 18.00 135.76
  A 0.49 0.49 0.0 0 1 17.51 136.25
  L 10.38 136.25
  A 0.49 0.49 0.0 0 0 9.89 136.74
  L 9.81 158.36
  A 0.49 0.49 0.0 0 0 10.31 158.85
  L 23.49 158.71
  A 0.49 0.49 0.0 0 0 23.98 158.22
  L 24.05 150.73
  A 0.49 0.49 0.0 0 1 24.54 150.25
  L 32.01 150.25
  A 0.49 0.49 0.0 0 0 32.50 149.76
  L 32.50 142.49
  A 0.49 0.49 0.0 0 1 32.99 142.00
  L 40.51 142.00
  A 0.49 0.49 0.0 0 0 41.00 141.51
  L 41.00 128.24
  A 0.49 0.49 0.0 0 0 40.51 127.75
  L 32.99 127.75
  Z
  M 58.64 152.56
  A 0.39 0.39 0.0 0 1 58.25 152.17
  L 58.25 144.89
  A 0.39 0.39 0.0 0 0 57.86 144.50
  L 44.39 144.50
  A 0.39 0.39 0.0 0 0 44.00 144.89
  L 44.00 161.11
  A 0.39 0.39 0.0 0 1 43.61 161.50
  L 36.14 161.50
  A 0.39 0.39 0.0 0 0 35.75 161.89
  L 35.75 177.86
  A 0.39 0.39 0.0 0 1 35.36 178.25
  L 27.46 178.25
  A 0.39 0.39 0.0 0 0 27.07 178.64
  L 27.24 208.86
  A 0.39 0.39 0.0 0 0 27.63 209.25
  L 40.86 209.25
  A 0.39 0.39 0.0 0 0 41.25 208.86
  L 41.25 200.79
  A 0.39 0.39 0.0 0 1 41.65 200.40
  L 49.35 200.55
  A 0.39 0.39 0.0 0 0 49.75 200.16
  L 49.75 192.63
  A 0.39 0.39 0.0 0 1 50.14 192.24
  L 57.89 192.26
  A 0.39 0.39 0.0 0 0 58.28 191.87
  L 58.20 183.89
  A 0.39 0.39 0.0 0 1 58.59 183.50
  L 66.36 183.50
  A 0.39 0.39 0.0 0 0 66.75 183.11
  L 66.76 175.34
  A 0.39 0.39 0.0 0 1 67.16 174.95
  L 74.85 175.12
  A 0.39 0.39 0.0 0 0 75.25 174.73
  L 75.25 161.39
  A 0.39 0.39 0.0 0 0 74.86 161.00
  L 67.14 161.00
  A 0.39 0.39 0.0 0 1 66.75 160.61
  L 66.75 152.86
  A 0.39 0.39 0.0 0 0 66.36 152.47
  L 58.64 152.56
  Z
  M 92.42 186.50
  A 0.54 0.54 0.0 0 1 91.88 185.96
  L 91.91 178.54
  A 0.54 0.54 0.0 0 0 91.37 178.00
  L 78.10 178.00
  A 0.54 0.54 0.0 0 0 77.56 178.55
  L 77.83 194.45
  A 0.54 0.54 0.0 0 1 77.29 195.00
  L 69.54 195.00
  A 0.54 0.54 0.0 0 0 69.00 195.54
  L 69.12 216.96
  A 0.54 0.54 0.0 0 0 69.66 217.50
  L 82.71 217.50
  A 0.54 0.54 0.0 0 0 83.25 216.96
  L 83.25 209.54
  A 0.54 0.54 0.0 0 1 83.79 209.00
  L 91.21 209.00
  A 0.54 0.54 0.0 0 0 91.75 208.46
  L 91.75 200.75
  A 0.54 0.54 0.0 0 1 92.32 200.21
  L 99.68 200.58
  A 0.54 0.54 0.0 0 0 100.25 200.04
  L 100.25 187.04
  A 0.54 0.54 0.0 0 0 99.71 186.50
  L 92.42 186.50
  Z"
/>
<path fill="#090709" d="
  M 209.71 44.50
  Q 209.08 44.80 208.64 45.30
  Q 208.36 45.63 207.94 45.48
  Q 207.28 45.25 206.79 44.75
  L 206.89 12.93
  Q 206.89 12.50 206.46 12.50
  L 165.66 12.50
  Q 165.01 12.50 165.01 13.15
  L 165.00 20.27
  Q 165.00 20.79 164.48 20.79
  L 156.79 20.67
  Q 156.25 20.66 156.25 21.21
  L 156.25 28.76
  Q 156.25 29.31 155.70 29.29
  L 148.25 29.04
  Q 147.49 28.14 146.59 28.59
  Q 146.07 28.85 146.16 29.42
  Q 146.76 33.12 145.72 36.70
  Q 145.56 37.25 144.98 37.25
  L 143.51 37.25
  Q 142.52 37.25 142.95 36.36
  Q 143.41 35.42 144.50 35.29
  L 144.72 27.28
  Q 144.73 26.70 145.31 26.71
  L 152.58 26.83
  Q 153.00 26.84 153.00 26.42
  L 153.00 19.00
  Q 153.00 18.50 153.50 18.50
  L 161.25 18.50
  Q 161.75 18.50 161.75 18.00
  L 161.75 10.50
  Q 161.75 9.75 162.50 9.75
  L 209.23 9.75
  Q 209.72 9.75 209.72 10.24
  L 209.71 44.50
  Z
  M 154.64 19.87
  C 154.31 21.81 155.01 25.77 154.04 27.12
  Q 153.86 27.38 154.16 27.47
  Q 154.31 27.51 154.45 27.57
  Q 154.93 27.78 154.96 27.25
  Q 155.12 23.58 155.01 19.89
  Q 154.95 17.99 154.64 19.87
  Z"
/>
<path fill="#f1c321" d="
  M 206.79 44.75
  L 206.76 54.50
  A 0.50 0.50 0.0 0 1 206.26 55.00
  L 199.07 55.00
  Q 198.47 55.00 198.47 55.61
  L 198.51 62.49
  Q 198.52 63.00 198.01 63.00
  L 190.52 63.00
  Q 190.03 63.00 190.03 63.48
  L 189.88 71.02
  A 0.57 0.57 0.0 0 1 189.30 71.58
  L 181.97 71.46
  Q 181.13 71.45 181.18 72.28
  L 181.53 78.57
  Q 181.61 80.00 180.18 80.00
  L 173.50 80.00
  Q 173.00 80.00 173.00 80.50
  L 173.00 88.00
  A 0.50 0.50 0.0 0 1 172.50 88.50
  L 165.07 88.50
  Q 164.64 88.50 164.65 88.93
  L 164.79 96.32
  Q 164.80 97.00 164.12 97.00
  L 156.50 97.00
  Q 156.00 97.00 156.00 97.50
  L 156.00 104.78
  Q 156.00 105.56 155.22 105.55
  L 147.93 105.39
  Q 147.50 105.38 147.50 105.81
  L 147.50 113.50
  Q 147.50 114.00 147.00 114.00
  L 140.25 114.00
  Q 139.75 114.00 139.75 114.50
  L 139.75 121.55
  Q 139.75 122.36 138.94 122.32
  L 131.52 121.98
  Q 131.00 121.95 131.00 122.48
  L 131.00 130.15
  Q 131.00 130.80 130.35 130.78
  L 123.17 130.67
  Q 122.75 130.66 122.75 131.08
  L 122.75 138.50
  Q 122.75 139.00 122.25 139.00
  L 115.12 139.00
  A 0.87 0.87 0.0 0 0 114.25 139.88
  L 114.34 146.93
  Q 114.35 147.51 113.76 147.51
  L 106.25 147.50
  Q 105.75 147.50 105.75 148.00
  L 105.75 155.50
  Q 105.75 156.00 105.25 156.00
  L 97.75 156.00
  Q 97.25 156.00 97.25 155.50
  L 97.25 148.00
  A 0.50 0.50 0.0 0 0 96.75 147.50
  L 89.25 147.50
  Q 88.75 147.50 88.75 147.00
  L 88.75 139.50
  A 0.50 0.50 0.0 0 0 88.25 139.00
  L 80.65 139.00
  Q 80.24 139.00 80.24 138.59
  L 80.25 131.30
  Q 80.25 130.78 79.74 130.77
  L 72.69 130.65
  Q 72.00 130.64 72.00 129.94
  L 72.00 123.35
  Q 72.00 121.94 70.60 121.97
  L 64.14 122.08
  Q 63.50 122.09 63.50 121.45
  L 63.50 114.23
  Q 63.50 113.46 64.27 113.47
  L 71.43 113.57
  A 0.56 0.56 0.0 0 0 72.00 113.01
  L 72.00 105.50
  Q 72.00 105.00 72.50 105.00
  L 79.76 105.00
  Q 80.33 105.00 80.32 104.43
  L 80.22 97.27
  Q 80.21 96.75 80.73 96.75
  L 88.50 96.75
  Q 89.00 96.75 89.00 96.25
  L 89.00 88.46
  Q 89.00 87.92 89.54 87.95
  L 96.37 88.29
  A 0.94 0.94 0.0 0 0 97.36 87.32
  L 97.20 80.28
  Q 97.19 79.75 97.72 79.75
  L 105.25 79.75
  Q 105.75 79.75 105.75 79.25
  L 105.75 71.75
  Q 105.75 71.25 106.25 71.25
  L 113.75 71.25
  Q 114.25 71.25 114.25 70.75
  L 114.25 63.50
  Q 114.25 63.00 114.75 63.00
  L 122.25 63.00
  A 0.50 0.50 0.0 0 0 122.75 62.50
  L 122.75 55.00
  Q 122.75 54.50 123.25 54.50
  L 130.76 54.50
  A 0.50 0.50 0.0 0 0 131.26 53.99
  L 131.22 46.61
  Q 131.22 46.00 131.83 46.00
  L 139.00 46.00
  Q 139.50 46.00 139.50 45.50
  L 139.50 38.00
  Q 139.50 37.50 140.00 37.50
  L 147.49 37.50
  Q 148.02 37.50 148.03 36.97
  L 148.25 29.04
  L 155.70 29.29
  Q 156.25 29.31 156.25 28.76
  L 156.25 21.21
  Q 156.25 20.66 156.79 20.67
  L 164.48 20.79
  Q 165.00 20.79 165.00 20.27
  L 165.01 13.15
  Q 165.01 12.50 165.66 12.50
  L 206.46 12.50
  Q 206.89 12.50 206.89 12.93
  L 206.79 44.75
  Z
  M 184.7666 35.3173
  A 0.29 0.29 0.0 0 0 184.4771 35.0268
  L 153.8171 34.9733
  A 0.29 0.29 0.0 0 0 153.5266 35.2628
  L 153.4734 65.7627
  A 0.29 0.29 0.0 0 0 153.7629 66.0532
  L 184.4229 66.1067
  A 0.29 0.29 0.0 0 0 184.7134 65.8172
  L 184.7666 35.3173
  Z"
/>
<path fill="#1f1e1f" d="
  M 154.04 27.12
  C 155.01 25.77 154.31 21.81 154.64 19.87
  Q 154.95 17.99 155.01 19.89
  Q 155.12 23.58 154.96 27.25
  Q 154.93 27.78 154.45 27.57
  Q 154.31 27.51 154.16 27.47
  Q 153.86 27.38 154.04 27.12
  Z"
/>
<path fill="#1f1e1f" d="
  M 148.25 29.04
  L 148.03 36.97
  Q 148.02 37.50 147.49 37.50
  L 140.00 37.50
  Q 139.50 37.50 139.50 38.00
  L 139.50 45.50
  Q 139.50 46.00 139.00 46.00
  L 131.83 46.00
  Q 131.22 46.00 131.22 46.61
  L 131.26 53.99
  A 0.50 0.50 0.0 0 1 130.76 54.50
  L 123.25 54.50
  Q 122.75 54.50 122.75 55.00
  L 122.75 62.50
  A 0.50 0.50 0.0 0 1 122.25 63.00
  L 114.75 63.00
  Q 114.25 63.00 114.25 63.50
  L 114.25 70.75
  Q 114.25 71.25 113.75 71.25
  L 106.25 71.25
  Q 105.75 71.25 105.75 71.75
  L 105.75 79.25
  Q 105.75 79.75 105.25 79.75
  L 97.72 79.75
  Q 97.19 79.75 97.20 80.28
  L 97.36 87.32
  A 0.94 0.94 0.0 0 1 96.37 88.29
  L 89.54 87.95
  Q 89.00 87.92 89.00 88.46
  L 89.00 96.25
  Q 89.00 96.75 88.50 96.75
  L 80.73 96.75
  Q 80.21 96.75 80.22 97.27
  L 80.32 104.43
  Q 80.33 105.00 79.76 105.00
  L 72.50 105.00
  Q 72.00 105.00 72.00 105.50
  L 72.00 113.01
  A 0.56 0.56 0.0 0 1 71.43 113.57
  L 64.27 113.47
  Q 63.50 113.46 63.50 114.23
  L 63.50 121.45
  Q 63.50 122.09 64.14 122.08
  L 70.60 121.97
  Q 72.00 121.94 72.00 123.35
  L 72.00 129.94
  Q 72.00 130.64 72.69 130.65
  L 79.74 130.77
  Q 80.25 130.78 80.25 131.30
  L 80.24 138.59
  Q 80.24 139.00 80.65 139.00
  L 88.25 139.00
  A 0.50 0.50 0.0 0 1 88.75 139.50
  L 88.75 147.00
  Q 88.75 147.50 89.25 147.50
  L 96.75 147.50
  A 0.50 0.50 0.0 0 1 97.25 148.00
  L 97.25 155.50
  Q 97.25 156.00 97.75 156.00
  L 105.25 156.00
  Q 105.75 156.00 105.75 155.50
  L 105.75 148.00
  Q 105.75 147.50 106.25 147.50
  L 113.76 147.51
  Q 114.35 147.51 114.34 146.93
  L 114.25 139.88
  A 0.87 0.87 0.0 0 1 115.12 139.00
  L 122.25 139.00
  Q 122.75 139.00 122.75 138.50
  L 122.75 131.08
  Q 122.75 130.66 123.17 130.67
  L 130.35 130.78
  Q 131.00 130.80 131.00 130.15
  L 131.00 122.48
  Q 131.00 121.95 131.52 121.98
  L 138.94 122.32
  Q 139.75 122.36 139.75 121.55
  L 139.75 114.50
  Q 139.75 114.00 140.25 114.00
  L 147.00 114.00
  Q 147.50 114.00 147.50 113.50
  L 147.50 105.81
  Q 147.50 105.38 147.93 105.39
  L 155.22 105.55
  Q 156.00 105.56 156.00 104.78
  L 156.00 97.50
  Q 156.00 97.00 156.50 97.00
  L 164.12 97.00
  Q 164.80 97.00 164.79 96.32
  L 164.65 88.93
  Q 164.64 88.50 165.07 88.50
  L 172.50 88.50
  A 0.50 0.50 0.0 0 0 173.00 88.00
  L 173.00 80.50
  Q 173.00 80.00 173.50 80.00
  L 180.18 80.00
  Q 181.61 80.00 181.53 78.57
  L 181.18 72.28
  Q 181.13 71.45 181.97 71.46
  L 189.30 71.58
  A 0.57 0.57 0.0 0 0 189.88 71.02
  L 190.03 63.48
  Q 190.03 63.00 190.52 63.00
  L 198.01 63.00
  Q 198.52 63.00 198.51 62.49
  L 198.47 55.61
  Q 198.47 55.00 199.07 55.00
  L 206.26 55.00
  A 0.50 0.50 0.0 0 0 206.76 54.50
  L 206.79 44.75
  Q 207.28 45.25 207.94 45.48
  Q 208.36 45.63 208.64 45.30
  Q 209.08 44.80 209.71 44.50
  L 209.70 56.78
  Q 209.70 57.26 209.22 57.26
  L 201.75 57.25
  Q 201.25 57.25 201.25 57.75
  L 201.25 65.00
  Q 201.25 65.50 200.75 65.50
  L 193.50 65.50
  Q 193.00 65.50 193.00 66.00
  L 193.00 73.75
  Q 193.00 74.25 192.50 74.25
  L 184.76 74.25
  Q 184.26 74.25 184.25 74.75
  L 184.21 87.00
  L 183.02 87.86
  Q 182.75 88.06 182.75 87.72
  Q 182.75 87.59 182.75 87.45
  Q 182.76 86.61 182.49 87.41
  Q 181.89 89.14 181.79 91.00
  L 181.44 83.08
  Q 181.41 82.50 180.82 82.50
  L 176.75 82.50
  Q 176.00 82.50 176.00 83.25
  L 176.00 90.15
  Q 176.00 91.05 175.10 91.03
  L 168.57 90.92
  A 0.57 0.56 -89.5 0 0 168.00 91.49
  L 168.00 98.88
  Q 168.00 99.50 167.37 99.50
  L 160.29 99.49
  Q 159.25 99.49 159.25 100.53
  L 159.25 107.50
  Q 159.25 108.00 158.75 108.00
  L 151.50 108.00
  Q 151.00 108.00 151.00 108.50
  L 151.00 115.72
  A 0.55 0.55 0.0 0 1 150.46 116.27
  L 142.78 116.46
  Q 142.29 116.47 142.30 116.96
  L 142.44 124.53
  Q 142.45 125.00 141.97 125.00
  L 134.50 125.00
  Q 134.00 125.00 134.00 125.50
  L 134.00 132.62
  A 0.63 0.63 0.0 0 1 133.37 133.25
  L 126.17 133.25
  Q 125.60 133.25 125.62 133.82
  L 125.80 141.34
  Q 125.82 142.00 125.16 142.00
  L 117.82 142.00
  Q 117.22 142.00 117.22 142.61
  L 117.26 149.62
  Q 117.27 150.25 116.63 150.25
  L 108.95 150.25
  Q 108.40 150.25 108.43 150.80
  L 108.76 158.23
  Q 108.78 158.75 108.27 158.75
  L 95.50 158.75
  Q 94.75 158.75 94.75 158.00
  L 94.75 150.88
  Q 94.75 150.25 94.12 150.25
  L 89.75 150.25
  Q 89.00 150.25 89.00 151.00
  L 89.00 155.25
  Q 89.00 156.00 88.25 156.00
  L 80.75 156.00
  Q 80.25 156.00 80.25 156.50
  L 80.25 164.03
  Q 80.25 164.56 80.78 164.57
  L 88.34 164.68
  Q 88.75 164.68 88.75 165.09
  L 88.75 172.50
  Q 88.75 173.00 89.25 173.00
  L 96.75 173.00
  Q 97.25 173.00 97.25 173.50
  L 97.25 180.75
  Q 97.25 181.25 97.75 181.25
  L 104.98 181.25
  Q 105.46 181.25 105.47 181.73
  L 105.57 189.27
  Q 105.58 189.71 106.02 189.71
  L 113.42 189.83
  A 0.74 0.74 0.0 0 0 114.17 189.09
  L 114.19 181.91
  Q 114.19 181.25 114.84 181.25
  L 122.25 181.25
  Q 122.75 181.25 122.75 180.75
  L 122.75 173.50
  Q 122.75 173.00 123.25 173.00
  L 130.67 173.00
  Q 131.09 173.00 131.08 172.58
  L 130.97 165.39
  Q 130.95 164.48 131.86 164.49
  L 139.11 164.60
  A 0.76 0.76 0.0 0 0 139.88 163.82
  L 139.70 156.66
  Q 139.69 156.01 140.34 156.00
  L 147.10 155.99
  Q 147.75 155.99 147.75 155.34
  L 147.75 130.93
  Q 147.75 130.35 148.33 130.39
  L 155.56 130.84
  A 0.65 0.64 1.7 0 0 156.25 130.20
  L 156.25 122.75
  Q 156.25 122.25 156.75 122.25
  L 164.44 122.25
  Q 164.87 122.25 164.86 121.82
  L 164.70 114.54
  Q 164.69 114.01 165.23 114.01
  L 167.25 114.04
  Q 166.42 115.49 168.04 116.50
  L 167.93 124.29
  A 0.73 0.72 0.4 0 1 167.20 125.00
  L 159.75 125.00
  Q 159.25 125.00 159.25 125.50
  L 159.25 132.75
  Q 159.25 133.25 158.75 133.25
  L 151.75 133.25
  Q 151.00 133.25 151.00 134.00
  L 151.00 158.00
  Q 151.00 158.75 150.25 158.75
  L 142.79 158.75
  Q 142.34 158.75 142.35 159.20
  L 142.47 166.65
  Q 142.48 167.29 141.85 167.28
  L 134.42 167.17
  Q 134.00 167.16 134.00 167.58
  L 134.00 174.90
  Q 134.00 175.49 133.41 175.49
  L 126.22 175.57
  Q 125.52 175.58 125.52 176.28
  L 125.55 183.44
  Q 125.55 184.00 124.99 184.00
  L 117.75 184.00
  Q 117.25 184.00 117.25 184.50
  L 117.25 191.96
  Q 117.25 192.67 116.54 192.68
  L 103.64 192.78
  Q 103.00 192.79 103.00 192.14
  L 103.00 184.50
  Q 103.00 184.00 102.50 184.00
  L 95.25 184.00
  Q 94.75 184.00 94.75 183.50
  L 94.74 176.20
  Q 94.74 175.59 94.14 175.61
  L 86.76 175.79
  Q 86.22 175.80 86.21 175.26
  L 86.10 167.62
  Q 86.10 167.22 85.69 167.22
  L 78.37 167.26
  Q 77.72 167.27 77.71 166.62
  L 77.57 153.63
  Q 77.56 153.00 78.19 153.00
  L 85.69 153.00
  Q 86.12 153.00 86.12 152.56
  L 86.05 142.40
  Q 86.05 142.00 85.65 142.00
  L 78.11 142.00
  Q 77.47 142.00 77.48 141.36
  L 77.55 133.65
  Q 77.56 133.25 77.16 133.25
  L 67.25 133.25
  Q 66.75 133.25 66.75 133.75
  L 66.75 141.38
  Q 66.75 142.00 66.12 142.00
  L 53.02 142.00
  A 0.54 0.54 0.0 0 1 52.48 141.45
  L 52.55 133.65
  Q 52.56 133.25 52.16 133.25
  L 44.50 133.25
  Q 44.00 133.25 44.00 132.75
  L 44.00 125.50
  Q 44.00 125.00 43.50 125.00
  L 36.25 125.00
  Q 35.75 125.00 35.75 124.50
  L 35.75 117.25
  Q 35.75 116.75 35.25 116.75
  L 27.66 116.75
  Q 27.06 116.75 27.06 116.16
  L 27.05 103.07
  Q 27.05 102.50 27.62 102.50
  L 35.25 102.50
  Q 35.75 102.50 35.75 102.00
  L 35.75 94.50
  A 0.50 0.50 0.0 0 1 36.25 94.00
  L 43.50 94.00
  Q 44.00 94.00 44.00 93.50
  L 44.00 86.62
  A 1.09 1.09 0.0 0 1 45.14 85.53
  L 51.74 85.83
  Q 52.34 85.85 52.31 85.25
  L 51.95 77.79
  A 0.76 0.76 0.0 0 1 52.71 77.00
  L 60.25 77.00
  Q 60.75 77.00 60.75 76.50
  L 60.75 69.25
  A 0.50 0.50 0.0 0 1 61.25 68.75
  L 85.76 68.75
  Q 86.27 68.75 86.26 68.24
  L 86.22 60.90
  Q 86.22 60.34 86.78 60.33
  L 94.02 60.22
  Q 94.50 60.22 94.50 59.73
  L 94.50 52.50
  Q 94.50 52.00 95.00 52.00
  L 102.14 51.99
  Q 102.82 51.99 102.81 51.31
  L 102.72 44.18
  Q 102.71 43.51 103.38 43.53
  L 111.02 43.76
  Q 111.48 43.77 111.48 43.31
  L 111.50 40.05
  Q 115.13 41.47 113.43 37.13
  Q 113.20 36.55 113.83 36.52
  Q 114.63 36.48 114.75 37.42
  Q 113.89 41.29 114.41 45.29
  Q 114.50 46.00 113.78 46.00
  L 106.25 46.00
  Q 105.75 46.00 105.75 46.50
  L 105.75 54.02
  Q 105.75 54.54 105.23 54.54
  L 97.70 54.59
  Q 97.25 54.60 97.25 55.05
  L 97.25 62.50
  Q 97.25 63.00 96.75 63.00
  L 89.50 63.00
  Q 89.00 63.00 89.00 63.50
  L 89.00 70.75
  Q 89.00 71.25 88.50 71.25
  L 64.03 71.25
  Q 63.49 71.25 63.49 71.78
  L 63.50 79.27
  Q 63.50 79.80 62.98 79.79
  L 55.92 79.66
  Q 55.00 79.65 55.00 80.57
  L 55.00 87.37
  Q 55.00 88.00 54.38 88.00
  L 47.00 88.00
  Q 46.50 88.00 46.50 88.50
  L 46.50 96.25
  Q 46.50 96.75 46.00 96.75
  L 38.48 96.75
  Q 37.95 96.75 37.96 97.27
  L 38.08 104.46
  Q 38.09 105.00 37.55 105.00
  L 30.00 105.00
  Q 29.50 105.00 29.50 105.50
  L 29.50 113.25
  Q 29.50 113.75 30.00 113.75
  L 37.69 113.75
  Q 38.11 113.75 38.11 114.18
  L 37.95 121.74
  Q 37.94 122.28 38.49 122.28
  L 45.18 122.19
  Q 46.43 122.18 46.43 123.43
  L 46.39 129.96
  Q 46.38 130.61 47.03 130.62
  L 54.46 130.69
  Q 54.98 130.70 54.97 131.21
  L 54.86 138.43
  Q 54.85 139.00 55.43 139.00
  L 63.12 139.00
  Q 63.80 139.00 63.79 138.32
  L 63.64 131.03
  A 0.57 0.57 0.0 0 1 64.24 130.45
  L 68.48 130.65
  Q 69.06 130.68 69.06 130.09
  L 69.07 125.56
  Q 69.07 125.00 68.50 125.00
  L 61.50 125.00
  Q 60.75 125.00 60.75 124.25
  L 60.75 111.50
  Q 60.75 111.00 61.25 111.00
  L 68.61 111.00
  Q 69.28 111.00 69.27 110.33
  L 69.18 103.13
  Q 69.17 102.50 69.80 102.50
  L 77.12 102.50
  Q 77.80 102.50 77.79 101.82
  L 77.64 94.68
  Q 77.63 94.00 78.31 94.00
  L 85.78 94.00
  Q 86.31 94.00 86.30 93.47
  L 86.13 85.97
  A 0.46 0.46 0.0 0 1 86.59 85.50
  L 93.84 85.50
  Q 94.50 85.50 94.50 84.85
  L 94.50 78.28
  Q 94.50 77.00 95.78 77.00
  L 102.26 77.00
  Q 102.83 77.00 102.82 76.43
  L 102.72 69.27
  Q 102.71 68.75 103.23 68.75
  L 111.00 68.75
  Q 111.50 68.75 111.50 68.25
  L 111.49 61.02
  Q 111.49 60.47 112.04 60.47
  L 118.97 60.56
  A 0.77 0.77 0.0 0 0 119.75 59.79
  L 119.75 52.73
  Q 119.75 52.14 120.33 52.15
  L 127.72 52.29
  Q 128.25 52.30 128.25 51.78
  L 128.25 44.22
  Q 128.25 43.69 128.78 43.70
  L 136.34 43.86
  Q 136.79 43.87 136.81 43.41
  L 137.05 38.05
  Q 137.08 37.50 136.52 37.50
  L 117.50 37.46
  Q 121.86 37.38 119.09 34.98
  L 127.25 35.04
  Q 126.12 35.27 126.24 36.28
  Q 126.30 36.85 126.85 36.98
  Q 129.65 37.68 132.40 36.94
  Q 132.86 36.82 133.35 36.80
  L 135.96 36.69
  Q 136.68 36.66 136.34 36.02
  Q 135.88 35.15 135.00 35.04
  L 144.50 35.29
  Q 143.41 35.42 142.95 36.36
  Q 142.52 37.25 143.51 37.25
  L 144.98 37.25
  Q 145.56 37.25 145.72 36.70
  Q 146.76 33.12 146.16 29.42
  Q 146.07 28.85 146.59 28.59
  Q 147.49 28.14 148.25 29.04
  Z"
/>
<path fill="#090709" d="
  M 119.09 34.98
  Q 121.86 37.38 117.50 37.46
  L 114.75 37.42
  Q 114.63 36.48 113.83 36.52
  Q 113.20 36.55 113.43 37.13
  Q 115.13 41.47 111.50 40.05
  L 111.52 35.55
  Q 111.52 35.02 112.05 35.02
  L 119.09 34.98
  Z"
/>
<path fill="#090709" d="
  M 127.25 35.04
  L 135.00 35.04
  Q 135.88 35.15 136.34 36.02
  Q 136.68 36.66 135.96 36.69
  L 133.35 36.80
  Q 132.86 36.82 132.40 36.94
  Q 129.65 37.68 126.85 36.98
  Q 126.30 36.85 126.24 36.28
  Q 126.12 35.27 127.25 35.04
  Z"
/>
<path fill="#1f1e1f" d="
  M 184.7134 65.8172
  A 0.29 0.29 0.0 0 1 184.4229 66.1067
  L 153.7629 66.0532
  A 0.29 0.29 0.0 0 1 153.4734 65.7627
  L 153.5266 35.2628
  A 0.29 0.29 0.0 0 1 153.8171 34.9733
  L 184.4771 35.0268
  A 0.29 0.29 0.0 0 1 184.7666 35.3173
  L 184.7134 65.8172
  Z
  M 181.9781 38.0275
  A 0.31 0.31 0.0 0 0 181.6676 37.7181
  L 156.5276 37.7620
  A 0.31 0.31 0.0 0 0 156.2182 38.0725
  L 156.2619 63.1125
  A 0.31 0.31 0.0 0 0 156.5724 63.4219
  L 181.7124 63.3780
  A 0.31 0.31 0.0 0 0 182.0218 63.0675
  L 181.9781 38.0275
  Z"
/>
<path fill="#e56a57" d="
  M 114.75 37.42
  L 117.50 37.46
  L 136.52 37.50
  Q 137.08 37.50 137.05 38.05
  L 136.81 43.41
  Q 136.79 43.87 136.34 43.86
  L 128.78 43.70
  Q 128.25 43.69 128.25 44.22
  L 128.25 51.78
  Q 128.25 52.30 127.72 52.29
  L 120.33 52.15
  Q 119.75 52.14 119.75 52.73
  L 119.75 59.79
  A 0.77 0.77 0.0 0 1 118.97 60.56
  L 112.04 60.47
  Q 111.49 60.47 111.49 61.02
  L 111.50 68.25
  Q 111.50 68.75 111.00 68.75
  L 103.23 68.75
  Q 102.71 68.75 102.72 69.27
  L 102.82 76.43
  Q 102.83 77.00 102.26 77.00
  L 95.78 77.00
  Q 94.50 77.00 94.50 78.28
  L 94.50 84.85
  Q 94.50 85.50 93.84 85.50
  L 86.59 85.50
  A 0.46 0.46 0.0 0 0 86.13 85.97
  L 86.30 93.47
  Q 86.31 94.00 85.78 94.00
  L 78.31 94.00
  Q 77.63 94.00 77.64 94.68
  L 77.79 101.82
  Q 77.80 102.50 77.12 102.50
  L 69.80 102.50
  Q 69.17 102.50 69.18 103.13
  L 69.27 110.33
  Q 69.28 111.00 68.61 111.00
  L 61.25 111.00
  Q 60.75 111.00 60.75 111.50
  L 60.75 124.25
  Q 60.75 125.00 61.50 125.00
  L 68.50 125.00
  Q 69.07 125.00 69.07 125.56
  L 69.06 130.09
  Q 69.06 130.68 68.48 130.65
  L 64.24 130.45
  A 0.57 0.57 0.0 0 0 63.64 131.03
  L 63.79 138.32
  Q 63.80 139.00 63.12 139.00
  L 55.43 139.00
  Q 54.85 139.00 54.86 138.43
  L 54.97 131.21
  Q 54.98 130.70 54.46 130.69
  L 47.03 130.62
  Q 46.38 130.61 46.39 129.96
  L 46.43 123.43
  Q 46.43 122.18 45.18 122.19
  L 38.49 122.28
  Q 37.94 122.28 37.95 121.74
  L 38.11 114.18
  Q 38.11 113.75 37.69 113.75
  L 30.00 113.75
  Q 29.50 113.75 29.50 113.25
  L 29.50 105.50
  Q 29.50 105.00 30.00 105.00
  L 37.55 105.00
  Q 38.09 105.00 38.08 104.46
  L 37.96 97.27
  Q 37.95 96.75 38.48 96.75
  L 46.00 96.75
  Q 46.50 96.75 46.50 96.25
  L 46.50 88.50
  Q 46.50 88.00 47.00 88.00
  L 54.38 88.00
  Q 55.00 88.00 55.00 87.37
  L 55.00 80.57
  Q 55.00 79.65 55.92 79.66
  L 62.98 79.79
  Q 63.50 79.80 63.50 79.27
  L 63.49 71.78
  Q 63.49 71.25 64.03 71.25
  L 88.50 71.25
  Q 89.00 71.25 89.00 70.75
  L 89.00 63.50
  Q 89.00 63.00 89.50 63.00
  L 96.75 63.00
  Q 97.25 63.00 97.25 62.50
  L 97.25 55.05
  Q 97.25 54.60 97.70 54.59
  L 105.23 54.54
  Q 105.75 54.54 105.75 54.02
  L 105.75 46.50
  Q 105.75 46.00 106.25 46.00
  L 113.78 46.00
  Q 114.50 46.00 114.41 45.29
  Q 113.89 41.29 114.75 37.42
  Z"
/>
<rect fill="#e56a57" x="-12.88" y="-12.83" transform="translate(169.12,50.57) rotate(-0.1)" width="25.76" height="25.66" rx="0.31"/>
<path fill="#e56a57" d="
  M 181.79 91.00
  L 181.88 105.09
  Q 181.88 105.51 181.46 105.51
  L 173.68 105.50
  Q 173.05 105.50 173.06 106.13
  L 173.18 113.54
  Q 173.19 113.98 172.75 113.99
  L 167.25 114.04
  L 165.23 114.01
  Q 164.69 114.01 164.70 114.54
  L 164.86 121.82
  Q 164.87 122.25 164.44 122.25
  L 156.75 122.25
  Q 156.25 122.25 156.25 122.75
  L 156.25 130.20
  A 0.65 0.64 1.7 0 1 155.56 130.84
  L 148.33 130.39
  Q 147.75 130.35 147.75 130.93
  L 147.75 155.34
  Q 147.75 155.99 147.10 155.99
  L 140.34 156.00
  Q 139.69 156.01 139.70 156.66
  L 139.88 163.82
  A 0.76 0.76 0.0 0 1 139.11 164.60
  L 131.86 164.49
  Q 130.95 164.48 130.97 165.39
  L 131.08 172.58
  Q 131.09 173.00 130.67 173.00
  L 123.25 173.00
  Q 122.75 173.00 122.75 173.50
  L 122.75 180.75
  Q 122.75 181.25 122.25 181.25
  L 114.84 181.25
  Q 114.19 181.25 114.19 181.91
  L 114.17 189.09
  A 0.74 0.74 0.0 0 1 113.42 189.83
  L 106.02 189.71
  Q 105.58 189.71 105.57 189.27
  L 105.47 181.73
  Q 105.46 181.25 104.98 181.25
  L 97.75 181.25
  Q 97.25 181.25 97.25 180.75
  L 97.25 173.50
  Q 97.25 173.00 96.75 173.00
  L 89.25 173.00
  Q 88.75 173.00 88.75 172.50
  L 88.75 165.09
  Q 88.75 164.68 88.34 164.68
  L 80.78 164.57
  Q 80.25 164.56 80.25 164.03
  L 80.25 156.50
  Q 80.25 156.00 80.75 156.00
  L 88.25 156.00
  Q 89.00 156.00 89.00 155.25
  L 89.00 151.00
  Q 89.00 150.25 89.75 150.25
  L 94.12 150.25
  Q 94.75 150.25 94.75 150.88
  L 94.75 158.00
  Q 94.75 158.75 95.50 158.75
  L 108.27 158.75
  Q 108.78 158.75 108.76 158.23
  L 108.43 150.80
  Q 108.40 150.25 108.95 150.25
  L 116.63 150.25
  Q 117.27 150.25 117.26 149.62
  L 117.22 142.61
  Q 117.22 142.00 117.82 142.00
  L 125.16 142.00
  Q 125.82 142.00 125.80 141.34
  L 125.62 133.82
  Q 125.60 133.25 126.17 133.25
  L 133.37 133.25
  A 0.63 0.63 0.0 0 0 134.00 132.62
  L 134.00 125.50
  Q 134.00 125.00 134.50 125.00
  L 141.97 125.00
  Q 142.45 125.00 142.44 124.53
  L 142.30 116.96
  Q 142.29 116.47 142.78 116.46
  L 150.46 116.27
  A 0.55 0.55 0.0 0 0 151.00 115.72
  L 151.00 108.50
  Q 151.00 108.00 151.50 108.00
  L 158.75 108.00
  Q 159.25 108.00 159.25 107.50
  L 159.25 100.53
  Q 159.25 99.49 160.29 99.49
  L 167.37 99.50
  Q 168.00 99.50 168.00 98.88
  L 168.00 91.49
  A 0.57 0.56 -89.5 0 1 168.57 90.92
  L 175.10 91.03
  Q 176.00 91.05 176.00 90.15
  L 176.00 83.25
  Q 176.00 82.50 176.75 82.50
  L 180.82 82.50
  Q 181.41 82.50 181.44 83.08
  L 181.79 91.00
  Z"
/>
<path fill="#090709" d="
  M 184.21 87.00
  L 184.24 107.51
  A 0.49 0.49 0.0 0 1 183.75 108.00
  L 176.50 108.00
  Q 176.00 108.00 176.00 108.50
  L 176.00 115.54
  A 1.09 1.09 0.0 0 1 174.73 116.61
  Q 171.34 116.02 168.04 116.50
  Q 166.42 115.49 167.25 114.04
  L 172.75 113.99
  Q 173.19 113.98 173.18 113.54
  L 173.06 106.13
  Q 173.05 105.50 173.68 105.50
  L 181.46 105.51
  Q 181.88 105.51 181.88 105.09
  L 181.79 91.00
  Q 181.89 89.14 182.49 87.41
  Q 182.76 86.61 182.75 87.45
  Q 182.75 87.59 182.75 87.72
  Q 182.75 88.06 183.02 87.86
  L 184.21 87.00
  Z"
/>
<path fill="#1f1e1f" d="
  M 32.99 127.75
  L 40.51 127.75
  A 0.49 0.49 0.0 0 1 41.00 128.24
  L 41.00 141.51
  A 0.49 0.49 0.0 0 1 40.51 142.00
  L 32.99 142.00
  A 0.49 0.49 0.0 0 0 32.50 142.49
  L 32.50 149.76
  A 0.49 0.49 0.0 0 1 32.01 150.25
  L 24.54 150.25
  A 0.49 0.49 0.0 0 0 24.05 150.73
  L 23.98 158.22
  A 0.49 0.49 0.0 0 1 23.49 158.71
  L 10.31 158.85
  A 0.49 0.49 0.0 0 1 9.81 158.36
  L 9.89 136.74
  A 0.49 0.49 0.0 0 1 10.38 136.25
  L 17.51 136.25
  A 0.49 0.49 0.0 0 0 18.00 135.76
  L 18.00 119.83
  A 0.49 0.49 0.0 0 1 18.49 119.34
  L 32.01 119.21
  A 0.49 0.49 0.0 0 1 32.50 119.70
  L 32.50 127.26
  A 0.49 0.49 0.0 0 0 32.99 127.75
  Z
  M 21.09 138.37
  A 0.63 0.63 0.0 0 1 20.46 139.00
  L 13.55 139.00
  A 0.63 0.63 0.0 0 0 12.92 139.63
  L 12.82 155.37
  A 0.63 0.63 0.0 0 0 13.45 156.00
  L 20.22 156.00
  A 0.63 0.63 0.0 0 0 20.85 155.36
  L 20.70 148.07
  A 0.63 0.63 0.0 0 1 21.33 147.43
  L 28.87 147.38
  A 0.63 0.63 0.0 0 0 29.50 146.75
  L 29.50 139.63
  A 0.63 0.63 0.0 0 1 30.13 139.00
  L 37.37 139.00
  A 0.63 0.63 0.0 0 0 38.00 138.37
  L 38.00 131.10
  A 0.63 0.63 0.0 0 0 37.37 130.47
  L 30.30 130.52
  A 0.63 0.63 0.0 0 1 29.67 129.89
  L 29.67 122.63
  A 0.63 0.63 0.0 0 0 29.04 122.00
  L 21.59 122.00
  A 0.63 0.63 0.0 0 0 20.96 122.63
  L 21.09 138.37
  Z"
/>
<path fill="#f1c321" d="
  M 21.09 138.37
  L 20.96 122.63
  A 0.63 0.63 0.0 0 1 21.59 122.00
  L 29.04 122.00
  A 0.63 0.63 0.0 0 1 29.67 122.63
  L 29.67 129.89
  A 0.63 0.63 0.0 0 0 30.30 130.52
  L 37.37 130.47
  A 0.63 0.63 0.0 0 1 38.00 131.10
  L 38.00 138.37
  A 0.63 0.63 0.0 0 1 37.37 139.00
  L 30.13 139.00
  A 0.63 0.63 0.0 0 0 29.50 139.63
  L 29.50 146.75
  A 0.63 0.63 0.0 0 1 28.87 147.38
  L 21.33 147.43
  A 0.63 0.63 0.0 0 0 20.70 148.07
  L 20.85 155.36
  A 0.63 0.63 0.0 0 1 20.22 156.00
  L 13.45 156.00
  A 0.63 0.63 0.0 0 1 12.82 155.37
  L 12.92 139.63
  A 0.63 0.63 0.0 0 1 13.55 139.00
  L 20.46 139.00
  A 0.63 0.63 0.0 0 0 21.09 138.37
  Z"
/>
<path fill="#1f1e1f" d="
  M 58.64 152.56
  L 66.36 152.47
  A 0.39 0.39 0.0 0 1 66.75 152.86
  L 66.75 160.61
  A 0.39 0.39 0.0 0 0 67.14 161.00
  L 74.86 161.00
  A 0.39 0.39 0.0 0 1 75.25 161.39
  L 75.25 174.73
  A 0.39 0.39 0.0 0 1 74.85 175.12
  L 67.16 174.95
  A 0.39 0.39 0.0 0 0 66.76 175.34
  L 66.75 183.11
  A 0.39 0.39 0.0 0 1 66.36 183.50
  L 58.59 183.50
  A 0.39 0.39 0.0 0 0 58.20 183.89
  L 58.28 191.87
  A 0.39 0.39 0.0 0 1 57.89 192.26
  L 50.14 192.24
  A 0.39 0.39 0.0 0 0 49.75 192.63
  L 49.75 200.16
  A 0.39 0.39 0.0 0 1 49.35 200.55
  L 41.65 200.40
  A 0.39 0.39 0.0 0 0 41.25 200.79
  L 41.25 208.86
  A 0.39 0.39 0.0 0 1 40.86 209.25
  L 27.63 209.25
  A 0.39 0.39 0.0 0 1 27.24 208.86
  L 27.07 178.64
  A 0.39 0.39 0.0 0 1 27.46 178.25
  L 35.36 178.25
  A 0.39 0.39 0.0 0 0 35.75 177.86
  L 35.75 161.89
  A 0.39 0.39 0.0 0 1 36.14 161.50
  L 43.61 161.50
  A 0.39 0.39 0.0 0 0 44.00 161.11
  L 44.00 144.89
  A 0.39 0.39 0.0 0 1 44.39 144.50
  L 57.86 144.50
  A 0.39 0.39 0.0 0 1 58.25 144.89
  L 58.25 152.17
  A 0.39 0.39 0.0 0 0 58.64 152.56
  Z
  M 63.75 173.00
  A 0.31 0.31 0.0 0 1 64.06 172.69
  L 71.94 172.78
  A 0.31 0.31 0.0 0 0 72.25 172.47
  L 72.25 164.56
  A 0.31 0.31 0.0 0 0 71.94 164.25
  L 64.06 164.25
  A 0.31 0.31 0.0 0 1 63.75 163.94
  L 63.75 155.77
  A 0.31 0.31 0.0 0 0 63.43 155.46
  L 55.57 155.58
  A 0.31 0.31 0.0 0 1 55.25 155.27
  L 55.25 147.56
  A 0.31 0.31 0.0 0 0 54.94 147.25
  L 47.06 147.25
  A 0.31 0.31 0.0 0 0 46.75 147.56
  L 46.75 163.94
  A 0.31 0.31 0.0 0 1 46.44 164.25
  L 38.56 164.25
  A 0.31 0.31 0.0 0 0 38.25 164.56
  L 38.25 180.69
  A 0.31 0.31 0.0 0 1 37.94 181.00
  L 30.08 181.00
  A 0.31 0.31 0.0 0 0 29.77 181.31
  L 29.70 206.20
  A 0.31 0.31 0.0 0 0 30.02 206.51
  L 38.26 206.28
  A 0.31 0.31 0.0 0 0 38.56 205.96
  L 38.38 198.27
  A 0.31 0.31 0.0 0 1 38.70 197.95
  L 46.43 198.13
  A 0.31 0.31 0.0 0 0 46.75 197.82
  L 46.75 190.06
  A 0.31 0.31 0.0 0 1 47.06 189.75
  L 54.94 189.75
  A 0.31 0.31 0.0 0 0 55.25 189.44
  L 55.25 181.31
  A 0.31 0.31 0.0 0 1 55.56 181.00
  L 63.44 181.00
  A 0.31 0.31 0.0 0 0 63.75 180.69
  L 63.75 173.00
  Z"
/>
<path fill="#f1c321" d="
  M 63.75 173.00
  L 63.75 180.69
  A 0.31 0.31 0.0 0 1 63.44 181.00
  L 55.56 181.00
  A 0.31 0.31 0.0 0 0 55.25 181.31
  L 55.25 189.44
  A 0.31 0.31 0.0 0 1 54.94 189.75
  L 47.06 189.75
  A 0.31 0.31 0.0 0 0 46.75 190.06
  L 46.75 197.82
  A 0.31 0.31 0.0 0 1 46.43 198.13
  L 38.70 197.95
  A 0.31 0.31 0.0 0 0 38.38 198.27
  L 38.56 205.96
  A 0.31 0.31 0.0 0 1 38.26 206.28
  L 30.02 206.51
  A 0.31 0.31 0.0 0 1 29.70 206.20
  L 29.77 181.31
  A 0.31 0.31 0.0 0 1 30.08 181.00
  L 37.94 181.00
  A 0.31 0.31 0.0 0 0 38.25 180.69
  L 38.25 164.56
  A 0.31 0.31 0.0 0 1 38.56 164.25
  L 46.44 164.25
  A 0.31 0.31 0.0 0 0 46.75 163.94
  L 46.75 147.56
  A 0.31 0.31 0.0 0 1 47.06 147.25
  L 54.94 147.25
  A 0.31 0.31 0.0 0 1 55.25 147.56
  L 55.25 155.27
  A 0.31 0.31 0.0 0 0 55.57 155.58
  L 63.43 155.46
  A 0.31 0.31 0.0 0 1 63.75 155.77
  L 63.75 163.94
  A 0.31 0.31 0.0 0 0 64.06 164.25
  L 71.94 164.25
  A 0.31 0.31 0.0 0 1 72.25 164.56
  L 72.25 172.47
  A 0.31 0.31 0.0 0 1 71.94 172.78
  L 64.06 172.69
  A 0.31 0.31 0.0 0 0 63.75 173.00
  Z"
/>
<path fill="#1f1e1f" d="
  M 92.42 186.50
  L 99.71 186.50
  A 0.54 0.54 0.0 0 1 100.25 187.04
  L 100.25 200.04
  A 0.54 0.54 0.0 0 1 99.68 200.58
  L 92.32 200.21
  A 0.54 0.54 0.0 0 0 91.75 200.75
  L 91.75 208.46
  A 0.54 0.54 0.0 0 1 91.21 209.00
  L 83.79 209.00
  A 0.54 0.54 0.0 0 0 83.25 209.54
  L 83.25 216.96
  A 0.54 0.54 0.0 0 1 82.71 217.50
  L 69.66 217.50
  A 0.54 0.54 0.0 0 1 69.12 216.96
  L 69.00 195.54
  A 0.54 0.54 0.0 0 1 69.54 195.00
  L 77.29 195.00
  A 0.54 0.54 0.0 0 0 77.83 194.45
  L 77.56 178.55
  A 0.54 0.54 0.0 0 1 78.10 178.00
  L 91.37 178.00
  A 0.54 0.54 0.0 0 1 91.91 178.54
  L 91.88 185.96
  A 0.54 0.54 0.0 0 0 92.42 186.50
  Z
  M 89.39 189.26
  A 0.39 0.39 0.0 0 1 89.00 188.87
  L 89.00 180.83
  A 0.39 0.39 0.0 0 0 88.60 180.44
  L 80.63 180.65
  A 0.39 0.39 0.0 0 0 80.25 181.04
  L 80.25 197.11
  A 0.39 0.39 0.0 0 1 79.86 197.50
  L 72.39 197.50
  A 0.39 0.39 0.0 0 0 72.00 197.89
  L 72.00 214.38
  A 0.39 0.39 0.0 0 0 72.37 214.77
  L 80.09 215.07
  A 0.39 0.39 0.0 0 0 80.50 214.68
  L 80.50 206.59
  A 0.39 0.39 0.0 0 1 80.91 206.20
  L 88.59 206.56
  A 0.39 0.39 0.0 0 0 89.00 206.17
  L 89.00 198.39
  A 0.39 0.39 0.0 0 1 89.39 198.00
  L 97.13 198.00
  A 0.39 0.39 0.0 0 0 97.52 197.61
  L 97.47 189.71
  A 0.39 0.39 0.0 0 0 97.09 189.33
  L 89.39 189.26
  Z"
/>
<path fill="#f1c321" d="
  M 89.39 189.26
  L 97.09 189.33
  A 0.39 0.39 0.0 0 1 97.47 189.71
  L 97.52 197.61
  A 0.39 0.39 0.0 0 1 97.13 198.00
  L 89.39 198.00
  A 0.39 0.39 0.0 0 0 89.00 198.39
  L 89.00 206.17
  A 0.39 0.39 0.0 0 1 88.59 206.56
  L 80.91 206.20
  A 0.39 0.39 0.0 0 0 80.50 206.59
  L 80.50 214.68
  A 0.39 0.39 0.0 0 1 80.09 215.07
  L 72.37 214.77
  A 0.39 0.39 0.0 0 1 72.00 214.38
  L 72.00 197.89
  A 0.39 0.39 0.0 0 1 72.39 197.50
  L 79.86 197.50
  A 0.39 0.39 0.0 0 0 80.25 197.11
  L 80.25 181.04
  A 0.39 0.39 0.0 0 1 80.63 180.65
  L 88.60 180.44
  A 0.39 0.39 0.0 0 1 89.00 180.83
  L 89.00 188.87
  A 0.39 0.39 0.0 0 0 89.39 189.26
  Z"
/>
</svg>
