<svg width="47" height="46" viewBox="0 0 47 46" fill="none" xmlns="http://www.w3.org/2000/svg">
<path d="M5.48438 35.182L17.0202 1.47827L25.5518 1.48861L14.0159 35.1924L5.48438 35.182Z" fill="white" stroke="white" stroke-width="0.291887" stroke-miterlimit="10"/>
<path d="M41.0578 10.9268L31.7935 10.9165L20.0273 45.3233L29.2916 45.3336L41.0578 10.9268Z" fill="#E93E3B"/>
<path d="M25.5539 1.47833H17.0224L5.4865 35.1821L14.018 35.1924L25.5539 1.47833ZM33.6353 6.03764L21.8691 40.4341L12.6048 40.4237L14.1541 35.8851L5.00497 35.8748H4.52344L4.68046 35.4199L16.4466 1.02343L16.5199 0.785645H16.7711L26.0354 0.795983H26.517L26.3704 1.25088L24.7269 6.0273L33.6353 6.03764Z" fill="#0B7DBC"/>
<path d="M3.70571 17.7305H46.4052L42.6994 28.6687H0L3.70571 17.7305Z" fill="white"/>
<path d="M25.0278 18.3716H34.962L31.696 28.0278H21.7617L25.0278 18.3716Z" fill="#0B7DBC"/>
<path d="M14.55 18.3716H24.4737L21.2077 28.0278H11.2734L14.55 18.3716Z" fill="#0B7DBC"/>
<path d="M4.17621 18.3716H14.1L10.8339 28.0278H0.910156L4.17621 18.3716Z" fill="#0B7DBC"/>
<path d="M23.1566 19.2203L22.6646 20.616C18.917 20.4816 16.9176 20.7711 16.2372 23.1076C15.473 25.5992 17.8178 25.8266 20.9897 25.7749L20.4558 27.243C15.2532 27.3878 12.4058 27.0052 13.7353 23.0972C15.1903 18.8067 18.0377 19.2203 23.1566 19.2203Z" fill="white"/>
<path d="M35.5695 18.3716H45.4933L42.2272 28.0278H32.293L35.5695 18.3716Z" fill="#0B7DBC"/>
<path d="M25.69 19.2192L22.8008 27.2523H25.5539L27.7836 20.6356H30.5681L28.2651 27.2523H31.0182L33.7818 19.2192H25.69Z" fill="white"/>
<path d="M36.1886 19.2192L33.3203 27.2523H36.0734L38.3031 20.6149L41.0877 20.6253L38.7847 27.2523H41.5378L44.3014 19.2192H36.1886Z" fill="white"/>
<path d="M4.93186 19.2192L2.10547 27.2523H4.78531L5.65416 24.74C9.70532 24.7504 11.4535 24.6677 11.8199 22.0003C12.113 19.9533 11.0138 19.1779 7.58029 19.2296L4.93186 19.2192ZM6.20897 23.1376L7.10923 20.5529C8.48055 20.4909 9.21332 20.77 9.27612 21.6281C9.25519 22.9515 8.15604 23.2099 6.20897 23.1376Z" fill="white"/>
</svg>
