<svg width="64" height="19" viewBox="0 0 64 19" fill="none" xmlns="http://www.w3.org/2000/svg">
<path d="M60.5755 15.9298C61.8175 15.9298 62.6972 15.7144 63.3527 15.2504V13.1458C62.68 13.5933 61.8692 13.875 60.7307 13.875C58.816 13.875 58.0225 12.4498 58.0225 10.1961C58.0225 7.8264 58.9885 6.61668 60.748 6.61668C61.783 6.61668 62.8007 6.96468 63.3355 7.29611V5.10868C62.7662 4.8104 61.783 4.59497 60.4375 4.59497C57.0047 4.59497 55.228 6.96468 55.228 10.279C55.2452 13.9081 56.9875 15.9298 60.5755 15.9298ZM43.7912 14.9687V12.8641C42.9632 13.411 41.5487 13.8915 40.255 13.8915C38.2885 13.8915 37.5467 12.9967 37.426 11.1738H43.912V9.81497C43.912 6.02011 42.1697 4.59497 39.496 4.59497C36.2185 4.59497 34.666 6.99783 34.666 10.2955C34.666 14.0904 36.6152 15.9298 40.0307 15.9298C41.7385 15.9298 42.9977 15.4824 43.7912 14.9687ZM19.1755 4.79383V9.1024H15.5875V4.79383H12.8965V15.7144H15.5875V11.1573H19.1755V15.7144H21.8665V4.8104L19.1755 4.79383ZM33.9932 13.6595H32.803V4.79383H24.9715V5.72183C24.9715 8.38983 24.799 11.8367 23.8502 13.6595H22.9877V18.2001H25.4717V15.7144H31.492V18.2001H33.976V13.6595H33.9932ZM52.3645 15.7144H55.4177L51.1052 9.83154L54.9002 4.79383H52.192L48.397 9.83154V4.79383H45.706V15.7144H48.397V10.3618L52.3645 15.7144ZM39.427 6.61668C40.7552 6.61668 41.1692 7.67726 41.1692 9.05268V9.26811H37.426C37.495 7.52811 38.1505 6.61668 39.427 6.61668ZM30.112 13.6595H26.317C27.0587 12.019 27.2657 9.03611 27.2657 7.14697V6.81554H30.112V13.6595Z" fill="white"/>
<path d="M7.9103 15.7143H10.6358V0.634277H6.6683C2.6663 0.634277 0.579047 2.60628 0.579047 5.50628C0.579047 7.82628 1.7348 9.18514 3.78755 10.6103L0.216797 15.7143H3.16655L7.13405 10.0137L5.75405 9.11885C4.0808 8.04171 3.27005 7.19656 3.27005 5.37371C3.27005 3.76628 4.44305 2.68914 6.68555 2.68914H7.9103V15.7143Z" fill="white"/>
</svg>
