<svg width="233" height="209" viewBox="0 0 233 209" fill="none" xmlns="http://www.w3.org/2000/svg">
<path d="M140.183 10C140.183 15.5228 135.706 20 130.183 20C124.66 20 120.183 15.5228 120.183 10C120.183 4.47715 124.66 0 130.183 0C135.706 0 140.183 4.47715 140.183 10Z" fill="#525375"/>
<path fill-rule="evenodd" clip-rule="evenodd" d="M220.572 105.871C216.693 112 211.586 118.169 205.413 124.208C218.078 147.312 220.771 168.681 210.424 182.249C194.52 203.105 152.699 199.11 109.153 175.187C57.1322 188.514 11.7356 180.967 1.91043 155.099C-4.43923 138.382 5.4015 117.524 26.0469 98.2281C18.3086 85.2575 13.6023 72.7071 12.4573 61.6239C8.25936 60.4372 5.18332 56.5778 5.18332 52C5.18332 46.5549 9.53532 42.1262 14.9507 42.0027C15.898 39.806 17.0941 37.7464 18.5473 35.8407C35.2572 13.929 80.5737 19.4482 126.443 46.6898L136.945 28.1H172.238V43.0078C200.113 43.8726 221 52.925 227.293 69.4941C229.489 75.2745 229.749 81.55 228.295 88.0847C230.66 89.9136 232.183 92.779 232.183 96C232.183 101.523 227.706 106 222.183 106C221.635 106 221.097 105.956 220.572 105.871ZM158.462 187.789C181.622 192.502 198.049 188.582 205.653 178.611C213.258 168.639 212.695 151.753 202.029 130.655C201.658 129.921 201.276 129.185 200.883 128.445C192.762 135.716 183.116 142.733 172.238 149.184V175.795H140.565V164.812C138.837 165.513 137.091 166.198 135.329 166.867C129.374 169.129 123.442 171.126 117.573 172.862C131.924 180.203 145.873 185.227 158.462 187.789ZM109.965 168.772C117.587 166.734 125.363 164.234 133.199 161.258C135.691 160.312 138.147 159.333 140.565 158.324V132.188C140.565 109.398 141.017 89.2379 143.054 69.9542H142.375C135.361 87.4848 125.633 106.988 116.584 122.546L95.0298 159.575C100.01 162.907 105.001 165.974 109.965 168.772ZM172.238 142.173V90.284C182.813 101.156 191.457 112.32 197.862 123.088C190.612 129.704 181.993 136.156 172.238 142.173ZM202.309 118.839C194.837 106.547 184.664 93.9043 172.238 81.7967V49.0109C174.584 49.0869 176.874 49.2236 179.103 49.4202C202.623 51.4948 217.238 59.9191 221.684 71.6245C223.307 75.8973 223.626 80.7426 222.589 86.0081C222.455 86.0027 222.319 86 222.183 86C216.66 86 212.183 90.4771 212.183 96C212.183 98.8048 213.338 101.34 215.198 103.156C212.409 107.483 208.877 111.95 204.581 116.498C203.843 117.28 203.085 118.06 202.309 118.839ZM18.4694 61.4475C19.3139 69.0625 22.0771 77.8104 26.9426 87.435C28.062 89.6493 29.2833 91.8883 30.6038 94.1456C35.3496 90.0653 40.5738 86.0753 46.2234 82.2316V28.6101C35.6886 29.6584 27.9011 33.4697 23.3183 39.4791C22.3309 40.7739 21.4812 42.1852 20.7734 43.7072C23.434 45.5042 25.1833 48.5478 25.1833 52C25.1833 56.3717 22.378 60.0882 18.4694 61.4475ZM29.2899 103.417C27.6573 104.97 26.1005 106.531 24.6228 108.095C8.41063 125.261 3.07348 141.263 7.51946 152.969C11.7158 164.017 24.9714 172.142 46.2234 174.764V125.335C39.7204 118.063 34.0454 110.696 29.2899 103.417ZM86.8457 173.636L92.0058 164.771C95.1962 166.898 98.3944 168.922 101.591 170.841C96.5815 171.975 91.6569 172.906 86.8457 173.636ZM33.7875 99.3252C37.6003 96.0035 41.7556 92.7314 46.2234 89.5437V116.158C41.5293 110.529 37.3703 104.887 33.7875 99.3252ZM77.8968 71.061V71.9264C77.8968 95.5927 77.4443 119.04 76.0869 138.762H76.9918C84.9102 121.45 95.0909 101.948 104.14 86.17L121.64 55.1935C113.252 57.3382 104.665 60.0461 96.0051 63.3351C89.7274 65.7196 83.6805 68.3074 77.8968 71.061ZM119.442 49.5637C111.048 51.7383 102.486 54.4555 93.8747 57.7261C88.3771 59.8142 83.0439 62.058 77.8968 64.4345V32.0458C90.8964 35.5265 105.059 41.4137 119.442 49.5637Z" fill="#525375"/>
<path d="M95.1833 199C95.1833 204.523 90.7062 209 85.1833 209C79.6605 209 75.1833 204.523 75.1833 199C75.1833 193.477 79.6605 189 85.1833 189C90.7062 189 95.1833 193.477 95.1833 199Z" fill="#525375"/>
</svg>
