<svg width="66" height="65" viewBox="0 0 66 65" fill="none" xmlns="http://www.w3.org/2000/svg"><path d="M54.978 7.8H46.662v2.112h-2.145v2.048h-2.046v2.015H40.392v2.112h-2.145v2.048h-2.046v2.015h-2.079v2.113H32.01v2.014h-2.046v2.048h-2.046v2.113H25.74v2.015h-2.046v2.112h-2.046v2.015h2.046v2.015H25.74v2.113h2.145V40.755h2.046v2.015h2.08v-2.015h2.144v-2.047h2.08v-2.113h2.045V34.58h2.145v-2.015h2.046v-2.112h2.046v-2.015h2.145v-2.113h2.046v-2.047h2.08V22.23h2.144v-2.08h2.046v-2.047h2.08V7.8h-2.08zM27.886 48.913h-2.145V53.072h-2.046V57.2h2.046v-2.113h2.145v-2.015h2.046v-2.047h-2.046v-2.112zM15.214 36.595h-2.046V34.58h-2.145v4.128H8.977V42.77h2.046v-2.048h2.145v-2.014h2.046v-2.113zM23.695 44.85h-2.079v-2.08h-2.112v-2.048h-2.079v4.128H15.38V48.913h-2.145V55.087h2.145v-2.015h2.046v-2.047h2.08v-2.112h2.111v-2.015h2.08V44.85z" fill="#F1C321"></path><path d="M27.16 27.69v-2.08H29.24v-2.047h2.046v-2.016h2.146v-2.112h2.045V17.42H37.555V15.373H39.7v-1.398h-5.577v2.112h-2.112v2.015h-2.079v2.048h-2.046v2.08h-6.27v2.047h-2.112v2.015h-2.079v2.113H15.38v2.015h-2.145v2.112h2.145v2.048h2.046v2.015h2.08v2.113h2.111v-2.113h1.353v-1.332h-2.046V31.85h2.046v-2.113H25.048V27.69h2.113zM49.436 26.293v.715H47.357v2.079h-2.112v2.048H43.166v2.113H41.12v2.015h-2.145v2.047H36.93v2.08H34.85v2.047h-2.145v2.015H29.24v-2.015h-1.353v1.333h-2.145v2.08h2.145v2.047h2.046v2.016h2.08v2.112h2.111v-2.112h2.08v-2.015h2.045V44.85h2.145v-2.08h2.08V36.595h2.045V34.58h2.145v-2.047h2.046V30.42h2.08v-5.46h-1.354v1.332z" fill="#E56A57"></path><path d="M57.027 7.117H45.906v2.08H43.76v2.048H41.682v2.047h-8.349v2.081H31.287V17.42H29.208v2.047H27.129v2.081h-6.204v2.047H18.78v2.047H16.7v2.113H14.622v2.047h-2.145V33.346h2.145v2.048H16.7v2.047H18.78v2.113h3.597V37.44H25.083v2.113h2.079V42.217h-2.145V45.76h2.145V47.807H29.24v2.048H31.32v2.113h3.564V49.627H36.963V47.58H39.042v-2.048h2.145v-2.08H43.266v-6.174H45.345V35.23h2.145v-2.048H49.569V31.07H51.648V22.848h2.145v-2.113H55.872v-1.917H57.95V7.084h-.924v.032zm0 2.795v8.223h-2.08v2.015h-2.045v2.113h-2.145V24.31h-2.08v2.048h-2.045v2.112h-2.145v2.015H42.44v2.112h-2.046v2.015H38.25v2.015h-2.046v2.113h-2.08v2.047h-2.111v2.016h-2.046v-2.015H27.92V38.74h-2.178v-2.113H23.664v-2.015h-2.046v-2.015h2.046v-2.112h2.079V28.47h2.145v-2.112h2.046V24.31h2.079v-2.015h2.145V20.15h2.079v-2.047h2.046v-2.048h2.145v-2.08H42.507v-2.047h2.046V9.88h2.145V7.8h10.395v2.112h-.066zm-6.237 16.38v4.128h-2.08v2.112h-2.045v2.016H44.52v2.047h-2.046V42.77h-2.046v2.112h-2.145v2.048h-2.046v2.015h-2.08v2.112h-2.144v-2.112h-2.046V46.93H27.92v-2.08h-2.178v-2.113h2.145v-1.332h1.353v2.047H32.739v-2.047h2.145v-2.047H36.963v-2.113H39.042v-2.048h2.145V33.15H43.266v-2.113H45.345V28.99h2.145v-2.112H49.569V24.83h1.353v1.463h-.132zM21.618 38.709h-2.145v-2.113h-2.08v-2.047h-2.045v-2.016h-2.145V30.42h2.145v-2.015h2.046v-2.113h2.079v-2.047h2.145V22.23h6.27v-2.08h2.046v-2.047h2.079v-2.048h2.145v-2.08H39.702v1.398h-2.145V17.42H35.478v2.047H33.399v2.081h-2.112v2.047H29.208v2.047H27.129v2.113h-2.112v2.047H22.938v2.048H20.859v3.445H22.938v1.332h-1.353v2.08h.033z" fill="#231F20"></path><path d="M28.58 50.31v-2.113h-3.564v4.161h-2.079V57.915h3.532v-2.113h2.144v-2.047h2.08V50.31H28.58zm1.354 2.762h-2.047v2.015h-2.145V57.2h-2.079v-4.128h2.08V48.913h2.145v2.112h2.045v2.047zM13.86 41.438V39.39H15.939v-3.543H13.86V33.8h-3.597v4.128H8.25v5.492H11.748v-2.047h2.112v.065zm-2.838 1.332H8.976v-4.062h2.046V34.58h2.145v2.015h2.079v2.113h-2.079v2.047h-2.145v2.015zM24.385 47.58v-3.445H22.306v-2.113h-2.145v-2.047H16.63v4.128H14.551v4.094h-2.145v7.605h3.597v-2.047h2.145v-2.047H20.227v-2.081h2.145V47.58h2.013zm-2.772 1.333h-2.145v2.112H17.39v2.047h-2.046v2.015h-2.145v-6.174h2.145V44.85h2.046v-4.128h2.08v2.015h2.144v2.113h2.046v2.047h-2.046v2.016z" fill="#231F20"></path><path d="M44.25 20.475v-4.713h2.079v-2.047h4.785v4.712h-2.079v2.048H44.25z" fill="#E56A57"></path><path d="M50.782 14.04v4.062h-2.046v2.048h-4.092V16.087h2.046v-2.014h4.092m.66-.683H46.03v2.015h-2.046V20.8h5.412v-2.015h2.046V13.39z" fill="#231F20"></path></svg>